<?xml version="1.0" standalone="no"?>
<!DOCTYPE svg PUBLIC "-//W3C//DTD SVG 1.1//EN" "http://www.w3.org/Graphics/SVG/1.1/DTD/svg11.dtd" >
<svg xmlns="http://www.w3.org/2000/svg" xmlns:xlink="http://www.w3.org/1999/xlink" version="1.1">
<metadata>
Created by FontForge 20190801 at Wed Dec 27 00:21:02 2006
 By Jimmy Wärting
Copyright 2006 House Industries/Brand Design Co., Inc. All Rights Reserved.
</metadata>
<defs>
<font id="BurbankBigRegular-Black" horiz-adv-x="543" >
  <font-face 
    font-family="Burbank Big Rg Bk"
    font-weight="700"
    font-stretch="normal"
    units-per-em="1000"
    panose-1="0 0 0 0 0 0 0 0 0 0"
    ascent="750"
    descent="-250"
    x-height="509"
    cap-height="695"
    bbox="-91 -281 1126 970"
    underline-thickness="50"
    underline-position="-100"
    unicode-range="U+0020-FB04"
  />
<missing-glyph horiz-adv-x="230" 
 />
    <glyph glyph-name="fi" unicode="fi" horiz-adv-x="670" 
d="M396 280c0 0 -35 1 -100 2c0 -139 2 -268 2 -268s-92 0 -211 -1c0 0 -3 121 -4 269h-71s1 48 -1 177l73 -3v12c2 149 53 235 196 235c32 0 69 -4 111 -13c0 0 -6 -56 -10 -171c-65 7 -82 -9 -82 -59v-9l99 -1s-4 -68 -2 -170zM435 -18c0 0 1 142 -3 509c0 0 77 -1 213 1
c0 0 0 -259 4 -509c0 0 -92 0 -214 -1zM544 534c-85 0 -125 36 -125 108c0 61 38 102 124 102c81 0 120 -42 120 -103c0 -71 -43 -107 -119 -107z" />
    <glyph glyph-name="fl" unicode="fl" horiz-adv-x="675" 
d="M388 270c0 0 -32 1 -92 2c0 -135 2 -257 2 -257s-92 1 -211 -1c0 0 -3 114 -4 258h-71s1 52 -1 181l73 -3v4c2 150 56 234 204 234c33 0 71 -5 114 -14c0 0 -6 -55 -10 -171c-73 9 -91 -7 -93 -58l92 -1s-4 -72 -3 -174zM648 -11c-133 3 -213 2 -213 2c4 501 0 723 0 723
c147 -4 214 -3 214 -3c-4 -525 -1 -722 -1 -722z" />
    <glyph glyph-name="ff" unicode="ff" horiz-adv-x="808" 
d="M792 288c0 0 -36 1 -106 2c0 -156 2 -312 2 -312s-92 1 -211 -1c0 0 -3 149 -4 313h-54s1 50 -1 177c0 0 20 -1 56 -2v15c2 154 64 236 216 236c35 0 76 -5 121 -14c0 0 -5 -56 -9 -171c-13 1 -24 2 -34 2c-58 0 -79 -21 -79 -62v-9h105s-4 -72 -2 -174zM383 272
c0 0 -29 1 -87 2c0 -137 2 -262 2 -262s-92 1 -211 -1c0 0 -3 118 -4 263h-71s1 48 -1 177c0 0 26 -1 73 -2v10c2 146 64 231 217 231c36 0 78 -4 125 -14c0 0 -6 -49 -10 -165c-16 2 -30 3 -42 3c-56 0 -73 -21 -75 -64v-5c27 -1 56 -1 86 -1c0 0 -4 -70 -2 -172z" />
    <glyph glyph-name="ffi" unicode="ffi" horiz-adv-x="1066" 
d="M792 288c0 0 -40 1 -114 2c0 -155 2 -310 2 -310s-91 1 -211 -1c0 0 -3 148 -3 311h-57s2 49 0 176c0 0 22 -2 58 -3v18c0 151 64 235 203 235c34 0 73 -4 117 -13c0 0 -5 -56 -9 -171c-66 7 -97 -11 -97 -58v-15c36 -1 73 -1 114 -1c0 0 -4 -68 -3 -170zM375 272
c0 0 -26 1 -79 2c0 -137 2 -262 2 -262s-92 1 -211 -1c0 0 -3 118 -4 263h-71s1 48 -1 177c0 0 25 -2 73 -3v11c2 144 66 231 214 231c35 0 74 -4 118 -13c0 0 -6 -50 -10 -165c-85 10 -105 -13 -107 -62v-6h78s-4 -70 -2 -172zM832 0c0 0 1 124 -3 491c0 0 77 -1 213 1
c0 0 -1 -242 4 -491c0 0 -93 0 -214 -1zM940 534c-84 0 -124 36 -124 108c0 61 37 102 123 102c82 0 120 -42 120 -103c0 -71 -42 -107 -119 -107z" />
    <glyph glyph-name="ffl" unicode="ffl" horiz-adv-x="1069" 
d="M784 286c0 0 -36 1 -106 2c0 -155 2 -310 2 -310s-92 1 -211 -1c0 0 -3 148 -4 311h-54s1 51 -1 178c0 0 20 -1 56 -2v22c2 148 59 236 212 236c35 0 74 -5 119 -14c0 0 -6 -56 -10 -171c-83 9 -106 -14 -106 -60v-16h105s-4 -73 -2 -175zM375 272c0 0 -26 1 -79 2
c0 -139 2 -266 2 -266s-92 1 -211 -1c0 0 -3 120 -4 267h-71s1 48 -1 177c0 0 25 -2 73 -3v11c2 147 65 235 219 235c35 0 75 -3 120 -12c0 0 -6 -53 -10 -169c-87 10 -112 -12 -114 -63v-6h78s-4 -70 -2 -172zM1042 -4c-133 4 -213 3 -213 3c4 501 0 708 0 708
c147 -5 214 -4 214 -4c-4 -524 -1 -707 -1 -707z" />
    <glyph glyph-name=".notdef" horiz-adv-x="230" 
 />
    <glyph glyph-name="Lslash" unicode="&#x141;" horiz-adv-x="466" 
d="M0 247c0 0 4 64 2 189c0 0 14 3 35 7l-3 246s69 -2 216 0c0 0 -1 -47 0 -196l76 19s-3 -57 1 -179l-75 -18c0 -39 1 -78 2 -125c131 -4 210 -3 210 -3c-3 -115 -1 -187 -1 -187c-193 3 -423 3 -423 3s0 102 -1 255z" />
    <glyph glyph-name="lslash" unicode="&#x142;" horiz-adv-x="298" 
d="M2 255c0 74 -2 163 -2 163l44 10c0 186 -2 259 -2 259c147 -5 214 -4 214 -4l-2 -197c28 8 44 13 44 13c-4 -96 -3 -168 -3 -168l-41 -10c-1 -218 1 -310 1 -310c-133 3 -213 2 -213 2c1 98 1 180 1 254z" />
    <glyph glyph-name="Scaron" unicode="&#x160;" horiz-adv-x="588" 
d="M236 741c0 0 -34 32 -127 108c0 0 25 24 76 83c0 0 32 -27 110 -84c0 0 35 24 106 85c0 0 21 -23 76 -76c0 0 -43 -34 -120 -108c0 0 -33 0 -121 -8zM298 -17c-194 0 -289 96 -292 263c0 0 86 -2 228 2c1 -67 21 -106 65 -106c31 0 48 15 48 54c0 36 -23 56 -129 85
c-133 36 -204 96 -204 227c0 138 113 204 275 204c181 1 280 -93 283 -265c0 0 -95 6 -221 7c3 70 -19 99 -55 99c-32 0 -50 -21 -50 -55c0 -42 34 -69 115 -87c165 -38 223 -95 222 -213c0 -146 -115 -215 -285 -215z" />
    <glyph glyph-name="scaron" unicode="&#x161;" horiz-adv-x="504" 
d="M196 545c0 0 -34 32 -127 108c0 0 25 24 76 83c0 0 32 -27 110 -84c0 0 35 24 106 85c0 0 21 -23 76 -76c0 0 -43 -34 -120 -108c0 0 -33 0 -121 -8zM263 -23c-154 0 -253 63 -260 207c0 0 60 0 203 -3c2 -38 17 -61 51 -61c25 0 39 10 39 30c0 21 -19 35 -97 49
c-109 21 -185 58 -185 161c0 100 93 165 234 165c162 0 248 -86 251 -205c0 0 -72 3 -195 -3c-3 36 -17 61 -47 61c-24 0 -37 -13 -37 -29c0 -22 21 -40 91 -52c151 -27 190 -77 190 -152c0 -115 -101 -168 -238 -168z" />
    <glyph glyph-name="Yacute" unicode="&#xdd;" horiz-adv-x="608" 
d="M198 -13c0 24 1 50 -4 152c0 0 -59 169 -194 536c0 0 55 0 240 8c0 0 13 -82 66 -288c0 0 25 117 71 311c0 0 60 -4 231 -4c0 0 -76 -212 -194 -561c0 0 -2 -15 2 -153c0 0 -52 1 -218 -1zM323 717c-63 45 -95 62 -95 62c87 115 116 162 116 162c77 -55 118 -80 118 -80
c-110 -110 -139 -144 -139 -144z" />
    <glyph glyph-name="yacute" unicode="&#xfd;" horiz-adv-x="546" 
d="M356 -233c-167 24 -216 29 -216 29c25 98 35 148 35 148c-101 328 -175 538 -175 538c149 1 230 11 230 11c25 -196 48 -305 48 -305c33 215 45 335 45 335c144 -9 223 -10 223 -10c-156 -590 -190 -746 -190 -746zM296 537c-63 45 -95 62 -95 62c87 115 116 162 116 162
c77 -55 118 -80 118 -80c-110 -110 -139 -144 -139 -144z" />
    <glyph glyph-name="Thorn" unicode="&#xde;" horiz-adv-x="579" 
d="M28 0c0 0 7 285 4 704c0 0 85 -6 211 -7c0 0 -1 -38 -1 -75c234 5 330 -98 330 -268c0 -190 -130 -274 -325 -273l3 -80s-91 3 -222 -1zM242 468c0 -75 1 -149 2 -245c73 0 109 28 109 119c0 88 -25 130 -111 126z" />
    <glyph glyph-name="thorn" unicode="&#xfe;" horiz-adv-x="578" 
d="M24 -202c4 423 0 881 0 881c58 -2 213 1 213 1c-5 -79 -5 -182 -5 -241c29 48 77 78 140 78c128 0 192 -118 192 -267c0 -170 -85 -258 -199 -258c-55 0 -105 21 -131 61c6 -189 11 -254 11 -254c-94 3 -221 -1 -221 -1zM290 123c32 0 48 26 48 132c1 85 -13 124 -48 124
c-34 0 -51 -35 -51 -124c0 -102 16 -132 51 -132z" />
    <glyph glyph-name="Zcaron" unicode="&#x17d;" horiz-adv-x="511" 
d="M199 732c0 0 -34 32 -127 108c0 0 25 24 76 83c0 0 32 -27 110 -84c0 0 35 24 106 85c0 0 21 -23 76 -76c0 0 -43 -34 -120 -108c0 0 -33 0 -121 -8zM492 -4c-311 7 -476 7 -476 7c2 129 1 184 1 184c105 138 182 242 232 310c-140 -2 -226 -6 -226 -6
c0 149 -1 201 -1 201c300 3 465 7 465 7c4 -119 3 -197 3 -197c-102 -135 -182 -241 -233 -311c141 -3 237 -2 237 -2c-4 -151 -2 -193 -2 -193z" />
    <glyph glyph-name="zcaron" unicode="&#x17e;" horiz-adv-x="471" 
d="M179 533c0 0 -34 32 -127 108c0 0 25 24 76 83c0 0 32 -27 110 -84c0 0 35 24 106 85c0 0 21 -23 76 -76c0 0 -43 -34 -120 -108c0 0 -33 0 -121 -8zM455 0c-340 10 -441 8 -441 8c4 94 2 136 2 136c135 130 188 190 188 190c-133 -2 -180 -8 -180 -8
c0 133 -4 177 -4 177c302 0 431 6 431 6c-1 -108 2 -147 2 -147c-139 -136 -188 -193 -188 -193c123 -2 192 3 192 3c-4 -133 -2 -172 -2 -172z" />
    <glyph glyph-name="onehalf" unicode="&#xbd;" horiz-adv-x="844" 
d="M826 -3c-208 5 -344 4 -344 4c-4 70 -5 135 -5 135c125 29 208 78 208 138c0 26 -11 37 -28 37c-28 0 -42 -23 -37 -87c0 0 -64 2 -147 0c-11 124 60 188 189 188c109 0 175 -51 175 -132s-75 -141 -178 -171c91 3 167 9 167 9v-121zM217 -15l-116 12
c301 434 465 699 465 699c72 -8 119 -10 119 -10c-372 -549 -468 -701 -468 -701zM102 312c1 129 1 199 1 237c-34 -14 -61 -26 -61 -26c-21 73 -40 125 -40 125c84 38 149 70 149 70c49 -6 100 -9 100 -9c0 -205 4 -396 4 -396c-83 0 -153 -1 -153 -1z" />
    <glyph glyph-name="onequarter" unicode="&#xbc;" horiz-adv-x="835" 
d="M649 -3l1 67l-217 -3s-1 27 -3 110c89 154 134 235 134 235c145 -7 227 -5 227 -5c-1 -101 -1 -170 -1 -233c13 0 37 1 37 1s-1 -35 -1 -105h-35c0 -43 1 -66 1 -66c-95 -2 -143 -1 -143 -1zM217 -15l-116 12c301 434 465 699 465 699c72 -8 119 -10 119 -10
c-372 -549 -468 -701 -468 -701zM102 312c1 129 1 199 1 237c-34 -14 -61 -26 -61 -26c-21 73 -40 125 -40 125c84 38 149 70 149 70c49 -6 100 -9 100 -9c0 -205 4 -396 4 -396c-83 0 -153 -1 -153 -1zM569 168h82v151c-41 -72 -69 -125 -82 -151z" />
    <glyph glyph-name="onesuperior" unicode="&#xb9;" horiz-adv-x="291" 
d="M102 312c1 129 1 199 1 237c-34 -14 -61 -26 -61 -26c-21 73 -40 125 -40 125c84 38 149 70 149 70c49 -6 100 -9 100 -9c0 -205 4 -396 4 -396c-83 0 -153 -1 -153 -1z" />
    <glyph glyph-name="threequarters" unicode="&#xbe;" horiz-adv-x="909" 
d="M205 298c-140 0 -205 56 -199 163c0 0 66 -4 156 -7c-1 -36 16 -54 41 -54c22 0 39 10 39 33c0 17 -8 28 -25 34c-20 6 -61 7 -91 5c0 0 0 30 -3 85c31 -3 69 -1 88 5c18 6 29 15 29 33c0 24 -17 33 -36 33c-24 0 -44 -15 -41 -54c-79 0 -154 -1 -154 -1
c-7 108 74 156 198 156c112 0 183 -47 183 -122c0 -48 -31 -78 -73 -88c50 -11 80 -50 80 -94c0 -83 -85 -127 -192 -127zM723 -3l1 67l-217 -3s-1 27 -3 110c89 154 134 235 134 235c145 -7 227 -5 227 -5c-1 -101 -1 -170 -1 -233c13 0 37 1 37 1s-1 -35 -1 -105h-35
c0 -43 1 -66 1 -66c-95 -2 -143 -1 -143 -1zM291 -15l-116 12c301 434 465 699 465 699c72 -8 119 -10 119 -10c-372 -549 -468 -701 -468 -701zM643 168h82v151c-41 -72 -69 -125 -82 -151z" />
    <glyph glyph-name="threesuperior" unicode="&#xb3;" horiz-adv-x="405" 
d="M205 298c-140 0 -205 56 -199 163c0 0 66 -4 156 -7c-1 -36 16 -54 41 -54c22 0 39 10 39 33c0 17 -8 28 -25 34c-20 6 -61 7 -91 5c0 0 0 30 -3 85c31 -3 69 -1 88 5c18 6 29 15 29 33c0 24 -17 33 -36 33c-24 0 -44 -15 -41 -54c-79 0 -154 -1 -154 -1
c-7 108 74 156 198 156c112 0 183 -47 183 -122c0 -48 -31 -78 -73 -88c50 -11 80 -50 80 -94c0 -83 -85 -127 -192 -127z" />
    <glyph glyph-name="twosuperior" unicode="&#xb2;" horiz-adv-x="379" 
d="M361 313c-208 5 -344 4 -344 4c-4 70 -5 135 -5 135c125 29 208 78 208 138c0 26 -11 37 -28 37c-28 0 -42 -23 -37 -87c0 0 -64 2 -147 0c-11 124 60 188 189 188c109 0 175 -51 175 -132s-75 -141 -178 -171c91 3 167 9 167 9v-121z" />
    <glyph glyph-name="minus" unicode="&#x2212;" horiz-adv-x="381" 
d="M370 408c-1 -100 1 -164 1 -164c-190 5 -361 2 -361 2c4 100 3 162 3 162c230 -4 357 0 357 0z" />
    <glyph glyph-name="multiply" unicode="&#xd7;" horiz-adv-x="453" 
d="M223 222c-37 -37 -74 -75 -108 -111c-2 2 -32 37 -104 104c0 0 46 44 112 109c-66 65 -114 113 -114 113c83 78 108 106 108 106c70 -73 111 -115 111 -115s47 47 110 112c0 0 40 -42 104 -101l-113 -111c68 -67 116 -113 116 -113c-80 -77 -109 -109 -109 -109z" />
    <glyph glyph-name="space" unicode=" " horiz-adv-x="230" 
 />
    <glyph glyph-name="exclam" unicode="!" horiz-adv-x="283" 
d="M145 -11c-85 0 -136 45 -136 119c0 65 44 115 134 115c86 0 131 -54 131 -118c0 -73 -58 -116 -129 -116zM49 255c0 0 -7 171 -29 444c0 0 123 -4 241 -2c0 0 -11 -146 -23 -440c0 0 -81 2 -189 -2z" />
    <glyph glyph-name="quotedbl" unicode="&#x22;" horiz-adv-x="358" 
d="M30 438c0 0 -8 108 -23 257c0 0 54 -1 156 4c0 0 -5 -87 -6 -254c0 0 -42 0 -127 -7zM199 436c0 0 1 71 -7 275c0 0 53 -4 159 -4c0 0 -13 -104 -25 -274c0 0 -50 3 -127 3z" />
    <glyph glyph-name="numbersign" unicode="#" horiz-adv-x="522" 
d="M296 148c0 0 0 35 1 88h-69c0 -26 1 -52 2 -76c0 0 -58 4 -148 3c0 0 0 27 1 71l-73 -1s4 54 -1 143c0 0 28 -1 74 -2c0 35 0 62 -1 101c-22 -1 -44 -2 -68 -2c0 0 3 51 -1 143c0 0 24 -1 68 -1c0 21 -1 48 -2 75c0 0 60 -3 147 1c0 0 -1 -31 -1 -76c21 0 45 0 70 1
l-2 87s59 -3 147 1c0 0 -1 -43 -1 -86l71 2s-4 -54 -2 -141h-69c0 -33 0 -64 1 -103c24 0 48 1 73 2c0 0 -4 -51 -1 -142h-70c0 -28 1 -58 2 -88c0 0 -51 3 -148 0zM225 478v-104h72c0 36 0 64 -1 105c-22 0 -46 0 -71 -1z" />
    <glyph glyph-name="dollar" unicode="$" horiz-adv-x="533" 
d="M368 -44c-123 4 -198 2 -198 2l6 94c-110 27 -175 105 -176 223c0 0 86 -4 215 -6c-2 -51 21 -80 54 -80c29 0 46 13 46 38c0 26 -18 47 -109 66c-137 28 -197 80 -197 183c0 90 64 149 167 169c-3 63 -7 103 -7 103c138 -1 202 2 202 2c-5 -45 -8 -82 -9 -109
c94 -24 159 -88 165 -219c0 0 -77 4 -211 2c1 48 -18 78 -47 78c-30 0 -41 -16 -41 -40c0 -28 25 -50 91 -61c165 -28 214 -76 214 -173c0 -103 -68 -159 -168 -179c0 -54 3 -93 3 -93z" />
    <glyph glyph-name="percent" unicode="%" horiz-adv-x="746" 
d="M184 336c-132 0 -179 90 -179 205c0 108 67 182 181 182c120 0 181 -74 181 -197c0 -140 -78 -190 -183 -190zM186 428c20 0 32 19 32 100c0 76 -10 97 -33 97c-22 0 -32 -29 -32 -94c0 -78 10 -103 33 -103zM176 -14c-53 7 -86 9 -86 9c299 438 467 701 467 701
c53 -5 89 -6 89 -6c-369 -553 -470 -704 -470 -704zM557 -25c-123 0 -179 82 -179 200c0 105 62 189 182 189c121 0 181 -80 181 -194c0 -136 -78 -195 -184 -195zM559 70c20 0 31 21 31 98c0 73 -9 97 -31 97s-32 -28 -32 -91c0 -83 12 -104 32 -104z" />
    <glyph glyph-name="ampersand" unicode="&#x26;" horiz-adv-x="687" 
d="M275 -33c-150 0 -270 71 -270 206c0 92 55 140 122 175c-47 54 -74 109 -74 166c0 128 103 202 255 202c131 0 230 -82 230 -193c0 -105 -79 -155 -157 -196c24 -19 52 -38 82 -59c11 27 21 57 30 91c104 -34 179 -53 179 -53c-14 -53 -32 -100 -53 -139l68 -43
s-33 -41 -99 -137l-75 53c-66 -50 -147 -73 -238 -73zM249 506c0 -28 12 -57 34 -86c36 22 61 48 61 88c0 34 -17 56 -47 56c-28 0 -48 -20 -48 -58zM304 122c21 0 43 7 64 21c-44 32 -86 63 -124 94c-9 -14 -15 -29 -15 -46c0 -40 31 -69 75 -69z" />
    <glyph glyph-name="quotesingle" unicode="'" horiz-adv-x="172" 
d="M17 441c0 0 1 65 -10 264c0 0 53 -4 158 -2c0 0 -11 -96 -21 -263c0 0 -50 3 -127 1z" />
    <glyph glyph-name="parenleft" unicode="(" horiz-adv-x="337" 
d="M150 -147c-90 139 -129 304 -129 449c0 180 42 350 139 468c109 -40 173 -61 173 -61c-63 -116 -92 -245 -92 -403c0 -114 27 -246 96 -395c-110 -30 -187 -58 -187 -58z" />
    <glyph glyph-name="parenright" unicode=")" horiz-adv-x="338" 
d="M189 -156c0 0 -79 29 -189 59c62 138 97 277 97 402c0 153 -30 290 -93 407c0 0 69 22 178 64c98 -124 135 -303 135 -468c0 -148 -40 -317 -128 -464z" />
    <glyph glyph-name="asterisk" unicode="*" horiz-adv-x="348" 
d="M140 348c-77 40 -123 59 -123 59c32 51 49 79 58 96c-52 6 -73 7 -73 7c15 72 21 125 21 125c38 -11 66 -18 85 -23c-9 70 -15 95 -15 95c83 0 152 5 152 5c-7 -46 -11 -78 -13 -100c59 15 90 26 90 26c11 -77 24 -130 24 -130c-31 -2 -55 -4 -72 -6
c38 -67 59 -94 59 -94c-79 -28 -127 -51 -127 -51c-12 38 -23 68 -31 89c-24 -62 -35 -98 -35 -98z" />
    <glyph glyph-name="plus" unicode="+" horiz-adv-x="417" 
d="M124 110c1 44 2 90 2 134c-67 -1 -115 -1 -115 -1c3 101 -1 164 -1 164l117 -3c0 80 -1 137 -1 137c123 -4 166 -3 166 -3l-2 -134c68 0 117 1 117 1c-5 -118 -3 -162 -3 -162l-114 1c1 -82 2 -133 2 -133c-106 0 -168 -1 -168 -1z" />
    <glyph glyph-name="comma" unicode="," horiz-adv-x="249" 
d="M96 -143c-65 47 -93 66 -93 66c41 37 60 65 69 80c-40 16 -63 55 -63 95c0 66 48 113 117 113c71 0 115 -52 115 -128c0 -74 -52 -150 -145 -226z" />
    <glyph glyph-name="hyphen" unicode="-" horiz-adv-x="303" 
d="M11 237c2 127 -1 177 -1 177c205 -5 283 -3 283 -3c-5 -148 -3 -174 -3 -174c-169 2 -279 0 -279 0z" />
    <glyph glyph-name="period" unicode="." horiz-adv-x="249" 
d="M125 -11c-78 0 -117 51 -117 118c0 71 49 114 117 114c70 0 117 -48 116 -114c-1 -80 -47 -118 -116 -118z" />
    <glyph glyph-name="slash" unicode="/" horiz-adv-x="435" 
d="M-5 -124c139 449 253 863 253 863c124 -3 192 0 192 0c-187 -617 -253 -863 -253 -863c-115 2 -192 0 -192 0z" />
    <glyph glyph-name="zero" unicode="0" horiz-adv-x="635" 
d="M316 -28c-188 0 -302 134 -302 369c0 249 118 361 302 361c199 0 305 -115 305 -358s-109 -372 -305 -372zM317 145c40 0 68 34 68 203c0 134 -27 184 -68 184c-50 0 -69 -45 -69 -193c0 -139 20 -194 69 -194z" />
    <glyph glyph-name="one" unicode="1" horiz-adv-x="428" 
d="M148 -3c3 252 2 379 1 434c-56 -24 -90 -42 -90 -42c-35 123 -59 195 -59 195c143 65 233 110 233 110c84 -9 133 -15 133 -15c0 -352 6 -681 6 -681c-138 -3 -224 -1 -224 -1z" />
    <glyph glyph-name="two" unicode="2" horiz-adv-x="576" 
d="M552 -1c-355 8 -529 6 -529 6c-6 119 -7 226 -7 226c200 58 320 145 320 246c0 40 -16 65 -45 65c-42 0 -63 -40 -55 -153c0 0 -81 2 -223 -1c-20 211 86 323 289 323c184 0 267 -89 267 -226c0 -131 -102 -239 -268 -293c159 1 248 9 248 9c0 -140 3 -202 3 -202z" />
    <glyph glyph-name="three" unicode="3" horiz-adv-x="600" 
d="M304 -25c-214 0 -315 102 -298 279c0 0 115 -6 237 -12c-8 -71 16 -98 58 -98c34 0 60 16 60 63c0 31 -14 49 -39 59c-29 10 -74 13 -125 8c0 0 -1 51 -6 144c54 -3 92 1 124 12c27 8 43 26 43 59c0 41 -21 62 -54 62c-46 0 -66 -36 -60 -103c-140 0 -231 -2 -231 -2
c-15 185 95 268 300 268c170 0 273 -91 273 -212c0 -72 -47 -121 -110 -145c68 -20 122 -77 122 -162c0 -154 -138 -220 -294 -220z" />
    <glyph glyph-name="four" unicode="4" horiz-adv-x="608" 
d="M322 -1l1 113l-313 -4s-3 45 -5 188c142 278 203 405 203 405c248 -8 328 -9 328 -9c-1 -162 -2 -295 -1 -400c22 0 44 0 68 1c0 0 -2 -59 -1 -180h-66c1 -75 2 -113 2 -113c-159 -6 -216 -1 -216 -1zM219 291h105c1 137 1 189 1 237c-50 -107 -88 -193 -106 -237z" />
    <glyph glyph-name="five" unicode="5" horiz-adv-x="597" 
d="M303 -20c-199 0 -292 98 -292 257c140 -4 230 -4 230 -4c4 -63 23 -91 61 -91c31 0 54 23 54 85c0 65 -17 100 -56 100c-30 0 -48 -22 -54 -66c0 0 -99 8 -226 17c0 0 6 184 8 412c0 0 161 0 526 9c0 0 -3 -49 -3 -186c0 0 -105 0 -314 -5c-1 -25 -1 -55 -1 -92
c38 33 96 52 150 52c151 0 206 -111 206 -235c0 -174 -116 -253 -289 -253z" />
    <glyph glyph-name="six" unicode="6" horiz-adv-x="615" 
d="M315 -24c-201 0 -301 126 -301 362c0 221 92 372 310 372c185 0 270 -99 272 -238c-151 4 -236 -1 -236 -1c-3 46 -16 73 -42 73c-41 0 -62 -42 -65 -165c40 37 100 62 159 62c138 0 198 -81 198 -204c0 -185 -133 -261 -295 -261zM320 299c-23 0 -45 -9 -65 -23
c8 -96 32 -129 68 -129s51 28 51 81c0 46 -16 71 -54 71z" />
    <glyph glyph-name="seven" unicode="7" horiz-adv-x="517" 
d="M108 -11c-8 223 59 402 179 506c-158 -1 -282 -7 -282 -7c4 129 3 203 3 203c382 3 501 8 501 8c-1 -171 3 -229 3 -229c-129 -114 -173 -261 -166 -490c-162 8 -238 9 -238 9z" />
    <glyph glyph-name="eight" unicode="8" horiz-adv-x="621" 
d="M321 -23c-228 0 -319 86 -319 214c0 75 45 128 123 150c-62 33 -106 94 -106 170c0 120 97 203 296 203c197 0 294 -87 294 -204c0 -77 -43 -130 -116 -162c78 -26 126 -78 126 -153c0 -163 -142 -218 -298 -218zM313 133c35 0 63 19 63 60c0 39 -31 70 -72 81
c-47 -13 -65 -46 -65 -76c0 -40 26 -65 74 -65zM323 411c31 15 52 46 52 81c0 41 -24 65 -65 65c-48 0 -64 -28 -64 -60c0 -39 31 -72 77 -86z" />
    <glyph glyph-name="nine" unicode="9" horiz-adv-x="611" 
d="M297 -22c-186 0 -286 107 -287 262c148 -12 231 -8 231 -8c1 -57 24 -83 59 -83c39 0 60 30 63 153c-31 -29 -78 -44 -133 -44c-146 0 -222 82 -222 213c0 154 117 242 289 242c192 0 300 -117 300 -376c0 -258 -119 -359 -300 -359zM306 376c17 0 38 5 57 15
c-4 127 -24 161 -62 161s-57 -31 -57 -87c0 -61 19 -89 62 -89z" />
    <glyph glyph-name="colon" unicode=":" horiz-adv-x="244" 
d="M122 -19c-68 0 -112 47 -112 114c0 69 46 114 114 114c69 0 112 -46 112 -114c0 -79 -46 -114 -114 -114zM119 261c-69 0 -111 46 -111 116c0 68 46 110 113 110c72 0 111 -46 111 -110c0 -85 -51 -116 -113 -116z" />
    <glyph glyph-name="semicolon" unicode=";" horiz-adv-x="251" 
d="M96 -146c-53 42 -91 66 -91 66c34 36 54 66 65 83c-32 15 -55 49 -55 94c0 60 40 109 115 109c74 0 113 -56 113 -120c0 -91 -66 -164 -147 -232zM127 260c-70 0 -111 51 -111 114c0 65 48 113 114 113c64 0 111 -46 111 -113c0 -76 -46 -114 -114 -114z" />
    <glyph glyph-name="less" unicode="&#x3c;" horiz-adv-x="364" 
d="M349 75c0 0 -135 68 -339 160c0 0 4 60 2 184c0 0 123 55 338 164c0 0 -6 -63 -4 -190c0 0 -77 -25 -184 -66c41 -15 107 -40 190 -67c0 0 -4 -72 -3 -185z" />
    <glyph glyph-name="equal" unicode="=" horiz-adv-x="378" 
d="M15 152c0 0 1 24 -3 151c0 0 161 -2 354 2c0 0 -2 -46 -1 -153c0 0 -163 3 -350 0zM366 350c-200 4 -354 2 -354 2c4 124 3 151 3 151c177 -3 350 0 350 0c-1 -113 1 -153 1 -153z" />
    <glyph glyph-name="greater" unicode="&#x3e;" horiz-adv-x="365" 
d="M13 75c3 113 -1 186 -1 186c87 26 163 54 197 67c-105 40 -190 65 -190 65c2 127 -3 190 -3 190c212 -108 337 -163 337 -163c-3 -123 2 -178 2 -178c-197 -93 -342 -167 -342 -167z" />
    <glyph glyph-name="question" unicode="?" horiz-adv-x="580" 
d="M151 243c0 98 -3 158 -3 158c140 -8 192 12 192 83c0 42 -17 69 -52 69c-46 0 -58 -45 -59 -107c0 0 -92 3 -224 3c2 178 102 264 290 264c173 0 280 -82 280 -208c0 -132 -83 -198 -207 -217v-43c-140 3 -217 -2 -217 -2zM265 -20c-96 0 -140 52 -140 120
c0 73 57 116 137 116c89 0 135 -45 135 -121c0 -70 -51 -115 -132 -115z" />
    <glyph glyph-name="at" unicode="@" horiz-adv-x="807" 
d="M519 -147c-294 -62 -509 59 -509 397c0 261 142 418 398 418c262 0 389 -149 389 -413c0 -209 -58 -271 -158 -271c-56 0 -98 27 -118 75c-37 -55 -108 -72 -174 -72c-128 0 -180 76 -180 156c0 98 72 157 271 152c0 0 0 13 -1 23c-3 45 -13 64 -36 64
c-20 0 -37 -16 -38 -63c0 0 -76 1 -186 -5c-6 125 79 210 240 210c147 0 216 -89 221 -201c3 -58 2 -124 0 -162c-2 -41 7 -60 26 -60c22 0 36 23 36 150c0 215 -80 327 -290 327c-203 0 -303 -118 -303 -329c0 -247 123 -366 395 -302c0 0 6 -35 17 -94zM446 186v33
c-67 -3 -94 -28 -94 -63c0 -24 15 -42 43 -42c26 0 48 14 51 72z" />
    <glyph glyph-name="A" unicode="A" horiz-adv-x="605" 
d="M0 16c0 0 60 281 139 681c170 6 322 5 322 5s64 -330 144 -719c0 0 -114 2 -231 0c0 0 -4 35 -15 110c-32 0 -75 1 -131 1l-9 -79s-103 3 -219 1zM293 545c-9 -53 -25 -156 -43 -289h86z" />
    <glyph glyph-name="B" unicode="B" horiz-adv-x="590" 
d="M37 1c0 0 -2 325 -9 691c93 16 173 23 241 23c205 0 297 -70 297 -201c0 -76 -44 -130 -112 -153c88 -26 132 -86 132 -170c0 -149 -122 -207 -333 -207c-64 0 -136 7 -216 17zM245 134c11 -1 21 -2 31 -2c55 0 89 21 89 74c0 51 -32 80 -123 74c1 -96 3 -146 3 -146z
M241 555c-2 -96 0 -140 0 -140c75 -4 113 17 113 71c0 45 -28 71 -84 71c-9 0 -18 -1 -29 -2z" />
    <glyph glyph-name="C" unicode="C" horiz-adv-x="620" 
d="M317 -16c-182 0 -303 99 -303 362c0 240 109 366 306 366c192 0 282 -129 290 -291c-159 -6 -236 -5 -236 -5c-5 91 -23 127 -59 127c-46 0 -65 -55 -64 -197c0 -146 22 -191 64 -191c38 0 58 30 62 143c142 0 238 -5 238 -5c-4 -223 -126 -310 -298 -309z" />
    <glyph glyph-name="D" unicode="D" horiz-adv-x="613" 
d="M248 152c77 -5 116 23 116 189c0 143 -31 201 -122 191c2 -218 6 -380 6 -380zM28 -4c3 398 1 692 1 692c72 12 136 18 194 18c259 0 376 -121 376 -371s-131 -352 -395 -352c-53 0 -112 5 -176 13z" />
    <glyph glyph-name="E" unicode="E" horiz-adv-x="495" 
d="M36 4c0 0 -1 286 -8 689c0 0 148 4 448 7c0 0 -1 -71 2 -187c0 0 -97 -1 -234 -5c-1 -51 0 -79 0 -79s43 -1 188 1c0 0 -2 -59 1 -171c0 0 -57 1 -185 1c1 -50 3 -76 3 -76s72 -4 227 -7c0 0 -2 -63 -2 -183c0 0 -195 7 -440 10z" />
    <glyph glyph-name="F" unicode="F" horiz-adv-x="480" 
d="M36 3c0 0 0 287 -8 691c0 0 197 1 440 5c0 0 -1 -75 0 -199c0 0 -100 -1 -223 -3c0 0 -1 -39 0 -118c28 0 71 0 183 2c0 0 -2 -73 1 -193c0 0 -67 1 -181 0l4 -184c-121 1 -216 -1 -216 -1z" />
    <glyph glyph-name="G" unicode="G" horiz-adv-x="632" 
d="M317 -22c-176 0 -303 99 -303 367c0 246 110 366 306 366c173 0 276 -108 287 -279c0 0 -143 -2 -226 -7c-4 83 -26 119 -63 119c-49 0 -74 -51 -74 -200c1 -155 30 -206 87 -206c37 0 63 24 73 87l-100 -4s2 50 -1 156c0 0 158 -2 318 -2c6 -302 -115 -397 -304 -397z
" />
    <glyph glyph-name="H" unicode="H" horiz-adv-x="589" 
d="M343 -18v214c-17 0 -42 0 -97 -1l3 -176s-99 2 -217 -1c0 0 1 269 -4 660c0 0 78 0 214 1c0 0 0 -121 2 -303c13 0 43 -1 98 -1l-3 337s91 -2 219 1c0 0 0 -323 3 -732c0 0 -91 4 -218 1z" />
    <glyph glyph-name="I" unicode="I" horiz-adv-x="290" 
d="M37 -1c0 0 1 306 -4 695c0 0 77 0 219 1c0 0 2 -335 5 -696c0 0 -89 1 -220 0z" />
    <glyph glyph-name="J" unicode="J" horiz-adv-x="535" 
d="M255 -10c-168 0 -250 92 -250 257c0 39 4 80 13 116c0 0 56 -8 197 -18c-3 -22 -4 -47 -4 -68c0 -72 15 -101 41 -101c34 0 52 39 52 241c0 87 -7 172 -22 282c0 0 72 4 214 14c15 -101 25 -205 25 -304c0 -267 -73 -419 -266 -419z" />
    <glyph glyph-name="K" unicode="K" horiz-adv-x="607" 
d="M366 -25c-26 95 -47 166 -63 216l-59 -107c1 -47 2 -72 2 -72c-140 2 -218 -1 -218 -1c1 391 0 672 0 672c132 -3 217 -1 217 -1c-2 -117 -2 -213 -2 -301c86 224 126 333 126 333c153 -7 236 -8 236 -8c-68 -149 -118 -265 -146 -329c86 -243 144 -391 144 -391
c-146 -3 -237 -11 -237 -11z" />
    <glyph glyph-name="L" unicode="L" horiz-adv-x="460" 
d="M34 3c0 0 0 329 -6 686c0 0 69 -2 216 0c0 0 -2 -90 4 -499c131 -4 210 -3 210 -3c-3 -115 -1 -187 -1 -187c-193 3 -423 3 -423 3z" />
    <glyph glyph-name="M" unicode="M" horiz-adv-x="817" 
d="M16 14c0 0 19 291 29 663c0 0 152 -2 307 3c0 0 18 -158 53 -361c16 97 37 238 57 394c0 0 149 -4 305 -10c0 0 6 -272 34 -715c0 0 -115 -5 -222 -8c0 0 6 220 -1 513c-19 -108 -45 -260 -62 -397c0 0 -107 -1 -220 3c0 0 -24 156 -62 370c0 -112 1 -280 6 -459
c0 0 -122 3 -224 4z" />
    <glyph glyph-name="N" unicode="N" horiz-adv-x="611" 
d="M31 17c0 0 3 248 -3 653c0 0 95 5 205 8c0 0 55 -127 150 -333c-2 72 -8 187 -20 368c0 0 92 -2 203 -2c0 0 3 -269 17 -713c0 0 -82 -9 -203 -16c0 0 -58 129 -155 328c2 -66 5 -159 12 -295c0 0 -92 2 -206 2z" />
    <glyph glyph-name="O" unicode="O" horiz-adv-x="636" 
d="M318 -19c-199 1 -302 126 -304 359c-2 230 108 369 302 370c215 0 306 -137 306 -369c-2 -257 -120 -360 -304 -360zM319 143c42 0 66 35 66 201c0 163 -24 201 -68 201c-46 0 -67 -46 -67 -205c0 -153 23 -197 69 -197z" />
    <glyph glyph-name="P" unicode="P" horiz-adv-x="570" 
d="M28 3c0 0 5 261 4 681c65 9 124 13 177 13c233 0 356 -88 356 -280s-137 -276 -319 -272l4 -141s-115 2 -222 -1zM243 524c0 0 -2 -72 0 -223c69 -3 106 26 106 114c0 72 -28 110 -85 110c-7 0 -14 0 -21 -1z" />
    <glyph glyph-name="Q" unicode="Q" horiz-adv-x="636" 
d="M420 -154c-27 61 -49 108 -64 138c-14 -2 -28 -3 -43 -3c-175 0 -299 115 -299 353c0 261 120 373 301 373c207 0 307 -106 307 -381c0 -128 -36 -215 -94 -269c50 -57 86 -93 86 -93c-136 -79 -194 -118 -194 -118zM318 138c43 0 68 33 68 193c0 174 -23 216 -68 216
c-46 0 -67 -46 -67 -215c0 -151 27 -194 67 -194z" />
    <glyph glyph-name="R" unicode="R" horiz-adv-x="585" 
d="M366 -23c0 0 -33 90 -93 234c0 0 -17 -2 -32 -2l4 -200s-110 1 -217 -1c0 0 5 262 4 683c80 16 152 24 215 24c214 0 331 -92 330 -259c0 -99 -42 -160 -110 -197c22 -49 62 -133 124 -260c0 0 -89 -8 -225 -22zM241 352c71 -4 118 20 118 94c0 58 -30 100 -92 100
c-9 0 -18 -1 -29 -3c2 -105 3 -191 3 -191z" />
    <glyph glyph-name="S" unicode="S" horiz-adv-x="588" 
d="M298 -17c-194 0 -289 96 -292 263c0 0 86 -2 228 2c1 -67 21 -106 65 -106c31 0 48 15 48 54c0 36 -23 56 -129 85c-133 36 -204 96 -204 227c0 138 113 204 275 204c181 1 280 -93 283 -265c0 0 -95 6 -221 7c3 70 -19 99 -55 99c-32 0 -50 -21 -50 -55
c0 -42 34 -69 115 -87c165 -38 223 -95 222 -213c0 -146 -115 -215 -285 -215z" />
    <glyph glyph-name="T" unicode="T" horiz-adv-x="513" 
d="M8 496c0 0 1 70 -1 199c0 0 277 -1 499 2c0 0 -3 -90 -2 -201c0 0 -61 0 -139 1c0 -116 1 -274 4 -500c0 0 -89 1 -219 -1c0 0 0 193 -2 501z" />
    <glyph glyph-name="U" unicode="U" horiz-adv-x="591" 
d="M300 -14c-193 0 -286 129 -286 420c0 87 8 185 25 282c0 0 65 -11 211 -27c-12 -91 -18 -168 -18 -238c0 -178 23 -242 61 -242s59 38 59 215c0 91 -7 199 -21 306c0 0 75 1 218 12c18 -109 28 -223 28 -324c0 -271 -87 -404 -277 -404z" />
    <glyph glyph-name="V" unicode="V" horiz-adv-x="583" 
d="M127 -13c-69 405 -127 680 -127 680c134 -1 226 2 226 2c22 -214 46 -390 61 -489c46 336 67 520 67 520c140 -2 229 1 229 1c-95 -512 -134 -718 -134 -718s-156 -1 -322 4z" />
    <glyph glyph-name="W" unicode="W" horiz-adv-x="824" 
d="M449 -28c-15 199 -28 351 -38 454c-36 -275 -49 -409 -49 -409c-228 10 -300 11 -300 11c-18 255 -40 492 -55 653c114 1 220 3 220 3c3 -180 9 -342 14 -453c48 334 59 415 59 415c168 0 229 -2 229 -2c23 -209 44 -367 58 -466c14 422 13 528 13 528
c153 -5 217 -4 217 -4c-41 -508 -54 -720 -54 -720c-210 -10 -314 -10 -314 -10z" />
    <glyph glyph-name="X" unicode="X" horiz-adv-x="641" 
d="M260 11c-177 8 -260 9 -260 9c66 145 112 253 137 313c-21 62 -60 177 -119 341l242 8s15 -68 55 -219c43 161 62 250 62 250c166 -8 248 -7 248 -7c-61 -169 -102 -288 -126 -359c93 -244 142 -353 142 -353c-202 -6 -261 -11 -261 -11c-23 97 -45 180 -61 238
c-38 -122 -59 -210 -59 -210z" />
    <glyph glyph-name="Y" unicode="Y" horiz-adv-x="608" 
d="M198 -13c0 24 1 50 -4 152c0 0 -59 169 -194 536c0 0 55 0 240 8c0 0 13 -82 66 -288c0 0 25 117 71 311c0 0 60 -4 231 -4c0 0 -76 -212 -194 -561c0 0 -2 -15 2 -153c0 0 -52 1 -218 -1z" />
    <glyph glyph-name="Z" unicode="Z" horiz-adv-x="511" 
d="M492 -4c-311 7 -476 7 -476 7c2 129 1 184 1 184c105 138 182 242 232 310c-140 -2 -226 -6 -226 -6c0 149 -1 201 -1 201c300 3 465 7 465 7c4 -119 3 -197 3 -197c-102 -135 -182 -241 -233 -311c141 -3 237 -2 237 -2c-4 -151 -2 -193 -2 -193z" />
    <glyph glyph-name="bracketleft" unicode="[" horiz-adv-x="341" 
d="M326 -134c0 0 -139 4 -288 3c0 0 3 294 -4 885c0 0 107 -1 288 2c0 0 -1 -67 3 -162c0 0 -37 0 -74 -3c0 0 -4 -288 0 -551c0 0 38 -2 80 -2c0 0 -4 -63 -5 -172z" />
    <glyph glyph-name="backslash" unicode="\" horiz-adv-x="435" 
d="M440 -123c0 0 -78 3 -192 0c0 0 -66 247 -253 864c0 0 68 -3 191 0c0 0 115 -414 254 -864z" />
    <glyph glyph-name="bracketright" unicode="]" horiz-adv-x="340" 
d="M16 -130c-3 110 -6 172 -6 172c45 0 81 2 81 2c4 263 0 556 0 556c-37 2 -74 1 -74 1c2 94 1 163 1 163c181 -3 288 -2 288 -2c-8 -589 -4 -887 -4 -887c-117 1 -286 -5 -286 -5z" />
    <glyph glyph-name="asciicircum" unicode="^" horiz-adv-x="472" 
d="M468 270c0 0 -45 6 -173 5c0 0 -22 103 -59 260c-14 -52 -37 -144 -62 -270c0 0 -56 7 -170 7c0 0 50 138 135 417c0 0 57 -4 194 -2c0 0 39 -136 135 -417z" />
    <glyph glyph-name="underscore" unicode="_" horiz-adv-x="401" 
d="M6 -138c1 120 -1 163 -1 163c205 -5 395 -3 395 -3c-4 -131 -3 -160 -3 -160c-170 2 -391 0 -391 0z" />
    <glyph glyph-name="grave" unicode="`" horiz-adv-x="571" 
d="M308 529c0 0 -30 34 -140 144c0 0 40 25 117 81c0 0 30 -48 118 -163c0 0 -33 -17 -95 -62z" />
    <glyph glyph-name="a" unicode="a" horiz-adv-x="537" 
d="M183 -17c-103 0 -176 55 -176 146c0 112 80 170 249 169c14 0 29 -1 44 -2v15c-2 48 -13 66 -36 66c-25 0 -37 -22 -40 -59c0 0 -75 1 -198 4c5 114 95 194 243 194c178 0 243 -86 248 -232c3 -147 -1 -297 -1 -297s-70 -1 -177 -2c0 0 3 30 5 73
c-32 -55 -97 -75 -161 -75zM258 113c32 1 52 20 51 96v8c-65 -1 -90 -30 -90 -62c0 -25 13 -42 39 -42z" />
    <glyph glyph-name="b" unicode="b" horiz-adv-x="571" 
d="M26 -15c0 0 1 220 -2 700c0 0 58 -3 219 -1c0 0 -6 -86 -8 -238c30 41 74 67 132 67c126 0 190 -105 190 -262c0 -167 -93 -255 -211 -255c-74 0 -126 29 -150 73c0 -24 1 -53 3 -83c0 0 -83 1 -173 -1zM281 122c32 0 50 41 50 132c0 78 -13 124 -50 124
c-32 0 -50 -40 -50 -121c0 -91 13 -135 50 -135z" />
    <glyph glyph-name="c" unicode="c" 
d="M282 -14c-182 0 -268 97 -268 268c0 161 89 263 264 263c162 0 259 -100 257 -231c-95 3 -222 -2 -222 -2c1 54 -11 91 -39 91c-29 0 -41 -41 -41 -125c0 -78 14 -112 41 -112c21 0 37 19 37 79c0 0 63 -4 227 -4c-12 -163 -123 -227 -256 -227z" />
    <glyph glyph-name="d" unicode="d" horiz-adv-x="573" 
d="M545 -20c0 0 -100 2 -175 1c0 0 3 37 5 93c-31 -57 -89 -84 -149 -84c-125 0 -212 87 -212 270c0 149 66 255 195 255c56 0 98 -27 126 -64c-1 52 -3 129 -8 237c0 0 42 -3 220 1c0 0 -4 -323 -2 -709zM290 122c27 0 51 23 51 133c0 76 -17 124 -52 124
c-34 0 -49 -39 -49 -129c0 -91 21 -128 50 -128z" />
    <glyph glyph-name="e" unicode="e" horiz-adv-x="567" 
d="M290 -14c-208 0 -276 115 -276 270s96 261 267 261c212 -1 282 -126 272 -313c0 0 -112 0 -317 -2c5 -59 22 -82 52 -82c22 0 39 14 45 52c0 0 83 -3 222 -7c-34 -121 -135 -179 -265 -179zM286 387c-32 0 -48 -23 -52 -95c30 0 62 1 99 3c-1 60 -14 92 -47 92z" />
    <glyph glyph-name="f" unicode="f" horiz-adv-x="422" 
d="M405 284c0 0 -39 1 -109 2c0 -145 2 -284 2 -284s-92 1 -211 -1c0 0 -3 131 -4 285h-71s1 52 -1 182l73 -3v8c2 134 47 226 209 226c37 0 81 -4 132 -15c0 0 -5 -56 -9 -171c-19 2 -34 3 -47 3c-56 0 -68 -20 -70 -50v-7l109 -1s-4 -72 -3 -174z" />
    <glyph glyph-name="g" unicode="g" horiz-adv-x="524" 
d="M257 -281c-149 0 -254 40 -254 127c0 48 42 86 105 97c-45 18 -73 53 -73 89c0 43 35 77 87 99c-68 31 -111 90 -111 186c1 140 106 209 253 209c9 0 27 -1 27 -1c6 35 14 95 24 177c0 0 76 -30 204 -71c0 0 -39 -55 -94 -141c58 -33 93 -91 93 -176
c0 -151 -117 -211 -243 -211c-18 0 -36 1 -53 3c-2 -4 -4 -9 -4 -14c0 -12 15 -20 57 -23c187 -12 264 -55 264 -164c0 -130 -142 -186 -282 -186zM264 196c26 0 41 23 41 97c0 63 -13 98 -41 98c-29 0 -44 -29 -44 -98c0 -70 17 -97 44 -97zM341 -128c0 27 -32 41 -93 43
c-23 -12 -35 -28 -35 -45c0 -25 22 -40 63 -39c36 0 65 15 65 41z" />
    <glyph glyph-name="h" unicode="h" horiz-adv-x="544" 
d="M24 18c0 0 6 294 2 661c0 0 70 -1 210 1c0 0 -3 -99 -2 -233c30 42 78 71 137 71c94 0 147 -70 151 -175c5 -160 2 -361 2 -361s-83 2 -212 1c0 0 4 164 0 302c0 32 -10 49 -33 49c-27 0 -36 -17 -37 -52c-3 -129 -1 -263 -1 -263s-83 1 -217 -1z" />
    <glyph glyph-name="i" unicode="i" horiz-adv-x="269" 
d="M30 1c0 0 1 134 -3 501c0 0 77 -1 213 1c0 0 0 -251 4 -501c0 0 -92 0 -214 -1zM137 536c-87 0 -130 36 -130 108c0 63 44 102 130 102c84 0 125 -44 125 -103c0 -62 -38 -107 -125 -107z" />
    <glyph glyph-name="j" unicode="j" horiz-adv-x="269" 
d="M136 535c-96 0 -129 50 -129 107c0 62 40 105 128 105c82 0 127 -41 127 -103c0 -70 -47 -109 -126 -109zM-91 -230c0 0 5 54 4 173c12 -1 23 -2 33 -2c63 0 84 28 85 88c3 174 -1 469 -1 469c142 -3 208 1 208 1s8 -182 4 -495c-1 -157 -79 -239 -251 -239
c-25 0 -53 2 -82 5z" />
    <glyph glyph-name="k" unicode="k" horiz-adv-x="556" 
d="M328 -23c-21 71 -37 126 -50 165c-17 -27 -30 -49 -40 -66c0 -38 1 -61 1 -61c-135 4 -215 1 -215 1c5 487 1 665 1 665c149 -4 215 -2 215 -2c-2 -163 -2 -269 -2 -367c44 130 68 209 68 209c152 -7 243 -9 243 -9c-55 -93 -94 -163 -118 -208
c76 -199 125 -319 125 -319c-166 -3 -228 -8 -228 -8z" />
    <glyph glyph-name="l" unicode="l" horiz-adv-x="267" 
d="M240 11c-133 3 -213 2 -213 2c4 501 0 674 0 674c147 -5 214 -4 214 -4c-4 -524 -1 -672 -1 -672z" />
    <glyph glyph-name="m" unicode="m" horiz-adv-x="828" 
d="M27 15c0 0 1 203 -3 482c0 0 73 -2 170 -1c0 0 -2 -36 -2 -80c33 58 93 101 165 101c80 0 124 -40 144 -96c32 47 87 80 156 80c111 0 146 -83 149 -171c5 -151 1 -347 1 -347s-81 2 -211 1c0 0 2 153 -3 287c-1 31 -10 50 -31 50c-26 0 -35 -22 -37 -59
c-3 -103 0 -236 0 -236s-97 0 -216 -1c0 0 8 143 3 256c-1 33 -11 52 -34 52c-27 0 -36 -26 -38 -61c-3 -111 1 -257 1 -257s-96 1 -214 0z" />
    <glyph glyph-name="n" unicode="n" 
d="M310 -18c0 0 4 153 2 303c-1 31 -10 49 -34 49c-26 0 -35 -17 -37 -52c-3 -71 -1 -268 -1 -268s-118 2 -216 0c0 0 4 193 2 477c0 0 86 -2 166 1c0 0 -2 -41 -1 -79c29 59 97 105 170 104c98 -1 156 -63 160 -178c3 -79 2 -356 2 -356c-61 1 -213 -1 -213 -1z" />
    <glyph glyph-name="o" unicode="o" horiz-adv-x="571" 
d="M284 -10c-176 0 -270 96 -270 273c0 162 106 254 270 254c176 0 274 -100 273 -262c0 -194 -119 -265 -273 -265zM287 122c30 0 48 21 48 134c0 98 -16 127 -49 127c-32 0 -50 -28 -50 -121c0 -111 14 -140 51 -140z" />
    <glyph glyph-name="p" unicode="p" horiz-adv-x="578" 
d="M24 -202c4 346 0 700 0 700c58 -2 182 1 182 1c-2 -40 -2 -57 -2 -75c28 54 80 93 154 93c134 0 206 -122 206 -267c0 -170 -85 -258 -199 -258c-55 0 -105 21 -131 61c6 -189 11 -254 11 -254c-94 3 -221 -1 -221 -1zM290 123c32 0 48 26 48 132c1 85 -13 124 -48 124
c-34 0 -51 -35 -51 -124c0 -102 16 -132 51 -132z" />
    <glyph glyph-name="q" unicode="q" horiz-adv-x="578" 
d="M332 -213l10 269c-24 -42 -69 -67 -129 -67c-117 0 -199 91 -199 269c0 160 90 263 207 263c68 0 122 -40 150 -90c-1 50 -4 85 -4 85c143 -3 185 0 185 0c-5 -445 0 -728 0 -728c-147 1 -220 -1 -220 -1zM289 123c32 0 50 37 50 132c0 76 -16 123 -49 123
c-38 0 -51 -45 -51 -123c0 -91 16 -132 50 -132z" />
    <glyph glyph-name="r" unicode="r" horiz-adv-x="396" 
d="M26 -2c0 0 1 262 -2 501c0 0 50 -1 174 1c0 0 -2 -37 -2 -85c32 67 108 112 198 102c0 0 -4 -71 -6 -203c-120 -2 -146 -36 -149 -148c-1 -56 1 -167 1 -167s-70 1 -214 -1z" />
    <glyph glyph-name="s" unicode="s" horiz-adv-x="504" 
d="M263 -23c-154 0 -253 63 -260 207c0 0 60 0 203 -3c2 -38 17 -61 51 -61c25 0 39 10 39 30c0 21 -19 35 -97 49c-109 21 -185 58 -185 161c0 100 93 165 234 165c162 0 248 -86 251 -205c0 0 -72 3 -195 -3c-3 36 -17 61 -47 61c-24 0 -37 -13 -37 -29
c0 -22 21 -40 91 -52c151 -27 190 -77 190 -152c0 -115 -101 -168 -238 -168z" />
    <glyph glyph-name="t" unicode="t" horiz-adv-x="417" 
d="M405 15c-55 -12 -103 -18 -146 -18c-116 0 -188 60 -190 206c-1 47 -1 93 -1 139c-37 -1 -63 -1 -63 -1c1 133 -2 169 -2 169c23 -1 45 -1 66 -1c1 76 2 127 2 127c130 -1 210 1 210 1s-2 -55 -3 -130h118c-3 -140 -1 -167 -1 -167l-117 2c0 -33 1 -66 2 -96
c2 -40 22 -57 64 -57c14 0 29 2 48 5c7 -113 13 -179 13 -179z" />
    <glyph glyph-name="u" unicode="u" 
d="M203 -4c-134 0 -184 92 -184 304c0 70 4 138 13 208c0 0 49 -7 201 -15c-5 -46 -6 -99 -6 -137c0 -153 14 -188 44 -188c20 0 32 15 34 56c6 151 -3 291 -3 291s52 -3 213 -3c0 0 -2 -205 2 -526c0 0 -49 3 -171 1c0 0 1 41 1 94c-29 -55 -85 -85 -144 -85z" />
    <glyph glyph-name="v" unicode="v" horiz-adv-x="527" 
d="M416 6c-190 1 -299 -1 -299 -1c-80 318 -117 477 -117 477c136 2 220 8 220 8c27 -250 41 -341 41 -341c48 291 53 375 53 375c149 -7 213 -6 213 -6c-77 -360 -111 -512 -111 -512z" />
    <glyph glyph-name="w" unicode="w" horiz-adv-x="776" 
d="M427 -7c-23 181 -43 290 -43 290c-29 -183 -37 -269 -37 -269c-202 2 -273 3 -273 3c-45 311 -74 474 -74 474c123 -1 210 3 210 3c9 -223 20 -315 20 -315c37 206 57 325 57 325h195c49 -280 66 -334 66 -334c13 263 16 354 16 354c145 -5 212 -3 212 -3
c-56 -351 -77 -526 -77 -526c-178 2 -272 -2 -272 -2z" />
    <glyph glyph-name="x" unicode="x" horiz-adv-x="584" 
d="M0 9c63 123 103 205 123 246c-67 151 -111 237 -111 237c147 -3 231 2 231 2c19 -65 35 -114 48 -149l59 176c156 -8 224 -7 224 -7c-65 -135 -102 -220 -118 -258c80 -177 128 -269 128 -269c-155 3 -230 -3 -230 -3c-25 71 -46 130 -63 173c-35 -93 -52 -148 -52 -148
c-169 4 -239 0 -239 0z" />
    <glyph glyph-name="y" unicode="y" horiz-adv-x="546" 
d="M356 -233c-167 24 -216 29 -216 29c25 98 35 148 35 148c-101 328 -175 538 -175 538c149 1 230 11 230 11c25 -196 48 -305 48 -305c33 215 45 335 45 335c144 -9 223 -10 223 -10c-156 -590 -190 -746 -190 -746z" />
    <glyph glyph-name="z" unicode="z" horiz-adv-x="471" 
d="M455 0c-340 10 -441 8 -441 8c4 94 2 136 2 136c135 130 188 190 188 190c-133 -2 -180 -8 -180 -8c0 133 -4 177 -4 177c302 0 431 6 431 6c-1 -108 2 -147 2 -147c-139 -136 -188 -193 -188 -193c123 -2 192 3 192 3c-4 -133 -2 -172 -2 -172z" />
    <glyph glyph-name="braceleft" unicode="{" horiz-adv-x="383" 
d="M370 -127c-43 -12 -85 -18 -124 -18c-114 0 -158 50 -158 166l3 116c0 69 -19 95 -86 92c0 0 3 80 2 182c62 -5 83 15 83 70c0 41 -7 95 -7 144c0 97 54 141 162 141c39 0 81 -6 118 -15c-1 -119 4 -160 4 -160c-57 5 -73 -6 -73 -48c0 -34 6 -74 6 -114
c0 -59 -24 -90 -81 -109c59 -22 77 -59 77 -123l-3 -101c0 -53 13 -66 76 -60c-2 -117 1 -163 1 -163z" />
    <glyph glyph-name="bar" unicode="|" horiz-adv-x="277" 
d="M45 -125c0 0 2 445 -3 866c0 0 62 -4 193 -3c0 0 -5 -366 -3 -861c0 0 -62 3 -187 -2z" />
    <glyph glyph-name="braceright" unicode="}" horiz-adv-x="382" 
d="M12 -132c0 0 4 42 1 158c60 -6 79 7 79 54c0 33 -6 80 -6 121c0 64 27 102 85 118c-59 16 -88 46 -88 114c0 39 6 74 6 108c0 42 -17 53 -74 49c0 0 5 44 4 163c35 8 73 13 108 13c129 0 172 -50 172 -142c0 -49 -8 -99 -8 -140c0 -56 17 -75 84 -72
c-1 -102 2 -177 2 -177c-65 5 -88 -18 -88 -84l7 -145c0 -105 -45 -157 -161 -156c-38 0 -81 7 -123 18z" />
    <glyph glyph-name="asciitilde" unicode="~" horiz-adv-x="440" 
d="M113 504l-106 8c-9 136 47 199 129 199c74 0 116 -68 160 -68c21 0 31 14 33 62c0 0 32 -4 105 -7c6 -130 -41 -199 -123 -199c-78 0 -121 65 -165 65c-25 0 -34 -17 -33 -60z" />
    <glyph glyph-name="Adieresis" unicode="&#xc4;" horiz-adv-x="605" 
d="M0 16c0 0 60 281 139 681c170 6 322 5 322 5s64 -330 144 -719c0 0 -114 2 -231 0c0 0 -4 35 -15 110c-32 0 -75 1 -131 1l-9 -79s-103 3 -219 1zM293 545c-9 -53 -25 -156 -43 -289h86zM194 753c-59 0 -85 40 -85 84c0 47 37 80 86 80c55 0 84 -35 84 -81
c0 -61 -42 -83 -85 -83zM395 756c-49 0 -82 33 -82 84c0 44 30 78 84 78c55 0 80 -37 80 -81c0 -54 -36 -81 -82 -81z" />
    <glyph glyph-name="Aring" unicode="&#xc5;" horiz-adv-x="605" 
d="M0 16c0 0 60 281 139 681c170 6 322 5 322 5s64 -330 144 -719c0 0 -114 2 -231 0c0 0 -4 35 -15 110c-32 0 -75 1 -131 1l-9 -79s-103 3 -219 1zM293 545c-9 -53 -25 -156 -43 -289h86zM292 744c-80 0 -121 47 -121 105c0 66 54 102 122 102c79 0 124 -46 124 -102
c0 -77 -60 -105 -125 -105zM295 805c24 0 39 18 39 44c0 23 -14 45 -39 45c-27 0 -40 -21 -40 -45c0 -25 16 -44 40 -44z" />
    <glyph glyph-name="Ccedilla" unicode="&#xc7;" horiz-adv-x="620" 
d="M615 293c-4 -204 -106 -294 -256 -307c-1 -18 0 -32 0 -32c77 -2 117 -34 117 -82c0 -59 -57 -99 -161 -99c-31 0 -70 6 -102 17c0 0 6 34 11 78c27 -12 57 -19 83 -19c24 0 40 8 40 22c0 16 -23 27 -85 23c0 0 9 39 17 92c-161 13 -265 115 -265 360
c0 240 109 366 306 366c192 0 282 -129 290 -291c-159 -6 -236 -5 -236 -5c-5 91 -23 127 -59 127c-46 0 -65 -55 -64 -197c0 -146 22 -191 64 -191c38 0 58 30 62 143c142 0 238 -5 238 -5z" />
    <glyph glyph-name="Eacute" unicode="&#xc9;" horiz-adv-x="495" 
d="M277 733c-63 45 -95 62 -95 62c87 115 116 162 116 162c77 -55 118 -80 118 -80c-110 -110 -139 -144 -139 -144zM36 4c0 0 -1 286 -8 689c0 0 148 4 448 7c0 0 -1 -71 2 -187c0 0 -97 -1 -234 -5c-1 -51 0 -79 0 -79s43 -1 188 1c0 0 -2 -59 1 -171c0 0 -57 1 -185 1
c1 -50 3 -76 3 -76s72 -4 227 -7c0 0 -2 -63 -2 -183c0 0 -195 7 -440 10z" />
    <glyph glyph-name="Ntilde" unicode="&#xd1;" horiz-adv-x="611" 
d="M31 17c0 0 3 248 -3 653c0 0 95 5 205 8c0 0 55 -127 150 -333c-2 72 -8 187 -20 368c0 0 92 -2 203 -2c0 0 3 -269 17 -713c0 0 -82 -9 -203 -16c0 0 -58 129 -155 328c2 -66 5 -159 12 -295c0 0 -92 2 -206 2zM228 760c0 0 -30 0 -102 -4c-6 94 28 168 107 168
c58 0 86 -50 123 -50c19 0 31 10 27 45c0 0 31 0 95 6c18 -105 -18 -168 -91 -168c-69 0 -92 45 -130 45c-21 0 -32 -18 -29 -42z" />
    <glyph glyph-name="Odieresis" unicode="&#xd6;" horiz-adv-x="636" 
d="M218 749c-59 0 -85 40 -85 84c0 47 37 80 86 80c55 0 84 -35 84 -81c0 -61 -42 -83 -85 -83zM419 752c-49 0 -82 33 -82 84c0 44 30 78 84 78c55 0 80 -37 80 -81c0 -54 -36 -81 -82 -81zM318 -19c-199 1 -302 126 -304 359c-2 230 108 369 302 370
c215 0 306 -137 306 -369c-2 -257 -120 -360 -304 -360zM319 143c42 0 66 35 66 201c0 163 -24 201 -68 201c-46 0 -67 -46 -67 -205c0 -153 23 -197 69 -197z" />
    <glyph glyph-name="Udieresis" unicode="&#xdc;" horiz-adv-x="591" 
d="M196 749c-59 0 -85 40 -85 84c0 47 37 80 86 80c55 0 84 -35 84 -81c0 -61 -42 -83 -85 -83zM397 752c-49 0 -82 33 -82 84c0 44 30 78 84 78c55 0 80 -37 80 -81c0 -54 -36 -81 -82 -81zM300 -14c-193 0 -286 129 -286 420c0 87 8 185 25 282c0 0 65 -11 211 -27
c-12 -91 -18 -168 -18 -238c0 -178 23 -242 61 -242s59 38 59 215c0 91 -7 199 -21 306c0 0 75 1 218 12c18 -109 28 -223 28 -324c0 -271 -87 -404 -277 -404z" />
    <glyph glyph-name="aacute" unicode="&#xe1;" horiz-adv-x="537" 
d="M183 -17c-103 0 -176 55 -176 146c0 112 80 170 249 169c14 0 29 -1 44 -2v15c-2 48 -13 66 -36 66c-25 0 -37 -22 -40 -59c0 0 -75 1 -198 4c5 114 95 194 243 194c178 0 243 -86 248 -232c3 -147 -1 -297 -1 -297s-70 -1 -177 -2c0 0 3 30 5 73
c-32 -55 -97 -75 -161 -75zM258 113c32 1 52 20 51 96v8c-65 -1 -90 -30 -90 -62c0 -25 13 -42 39 -42zM292 535c-63 45 -95 62 -95 62c87 115 116 162 116 162c77 -55 118 -80 118 -80c-110 -110 -139 -144 -139 -144z" />
    <glyph glyph-name="agrave" unicode="&#xe0;" horiz-adv-x="537" 
d="M183 -17c-103 0 -176 55 -176 146c0 112 80 170 249 169c14 0 29 -1 44 -2v15c-2 48 -13 66 -36 66c-25 0 -37 -22 -40 -59c0 0 -75 1 -198 4c5 114 95 194 243 194c178 0 243 -86 248 -232c3 -147 -1 -297 -1 -297s-70 -1 -177 -2c0 0 3 30 5 73
c-32 -55 -97 -75 -161 -75zM258 113c32 1 52 20 51 96v8c-65 -1 -90 -30 -90 -62c0 -25 13 -42 39 -42zM261 535c0 0 -30 34 -140 144c0 0 40 25 117 81c0 0 30 -48 118 -163c0 0 -33 -17 -95 -62z" />
    <glyph glyph-name="acircumflex" unicode="&#xe2;" horiz-adv-x="537" 
d="M183 -17c-103 0 -176 55 -176 146c0 112 80 170 249 169c14 0 29 -1 44 -2v15c-2 48 -13 66 -36 66c-25 0 -37 -22 -40 -59c0 0 -75 1 -198 4c5 114 95 194 243 194c178 0 243 -86 248 -232c3 -147 -1 -297 -1 -297s-70 -1 -177 -2c0 0 3 30 5 73
c-32 -55 -97 -75 -161 -75zM258 113c32 1 52 20 51 96v8c-65 -1 -90 -30 -90 -62c0 -25 13 -42 39 -42zM162 531c0 0 -21 24 -76 76c0 0 44 34 121 109c0 0 32 -1 121 7c0 0 33 -32 126 -107c0 0 -25 -24 -75 -84c0 0 -32 28 -110 84c0 0 -36 -23 -107 -85z" />
    <glyph glyph-name="adieresis" unicode="&#xe4;" horiz-adv-x="537" 
d="M183 -17c-103 0 -176 55 -176 146c0 112 80 170 249 169c14 0 29 -1 44 -2v15c-2 48 -13 66 -36 66c-25 0 -37 -22 -40 -59c0 0 -75 1 -198 4c5 114 95 194 243 194c178 0 243 -86 248 -232c3 -147 -1 -297 -1 -297s-70 -1 -177 -2c0 0 3 30 5 73
c-32 -55 -97 -75 -161 -75zM258 113c32 1 52 20 51 96v8c-65 -1 -90 -30 -90 -62c0 -25 13 -42 39 -42zM171 549c-59 0 -85 40 -85 84c0 47 37 80 86 80c55 0 84 -35 84 -81c0 -61 -42 -83 -85 -83zM372 552c-49 0 -82 33 -82 84c0 44 30 78 84 78c55 0 80 -37 80 -81
c0 -54 -36 -81 -82 -81z" />
    <glyph glyph-name="atilde" unicode="&#xe3;" horiz-adv-x="537" 
d="M183 -17c-103 0 -176 55 -176 146c0 112 80 170 249 169c14 0 29 -1 44 -2v15c-2 48 -13 66 -36 66c-25 0 -37 -22 -40 -59c0 0 -75 1 -198 4c5 114 95 194 243 194c178 0 243 -86 248 -232c3 -147 -1 -297 -1 -297s-70 -1 -177 -2c0 0 3 30 5 73
c-32 -55 -97 -75 -161 -75zM258 113c32 1 52 20 51 96v8c-65 -1 -90 -30 -90 -62c0 -25 13 -42 39 -42zM194 552c0 0 -30 0 -102 -4c-6 94 28 168 107 168c58 0 86 -50 123 -50c19 0 31 10 27 45c0 0 31 0 95 6c18 -105 -18 -168 -91 -168c-69 0 -92 45 -130 45
c-21 0 -32 -18 -29 -42z" />
    <glyph glyph-name="aring" unicode="&#xe5;" horiz-adv-x="537" 
d="M183 -17c-103 0 -176 55 -176 146c0 112 80 170 249 169c14 0 29 -1 44 -2v15c-2 48 -13 66 -36 66c-25 0 -37 -22 -40 -59c0 0 -75 1 -198 4c5 114 95 194 243 194c178 0 243 -86 248 -232c3 -147 -1 -297 -1 -297s-70 -1 -177 -2c0 0 3 30 5 73
c-32 -55 -97 -75 -161 -75zM258 113c32 1 52 20 51 96v8c-65 -1 -90 -30 -90 -62c0 -25 13 -42 39 -42zM269 544c-80 0 -121 47 -121 105c0 66 54 102 122 102c79 0 124 -46 124 -102c0 -77 -60 -105 -125 -105zM272 605c24 0 39 18 39 44c0 23 -14 45 -39 45
c-27 0 -40 -21 -40 -45c0 -25 16 -44 40 -44z" />
    <glyph glyph-name="ccedilla" unicode="&#xe7;" 
d="M538 213c-11 -148 -104 -214 -220 -225c-1 -9 -1 -21 -1 -34c77 -2 117 -34 117 -82c0 -59 -57 -99 -161 -99c-31 0 -70 6 -102 17c0 0 6 34 11 78c27 -12 57 -19 83 -19c24 0 40 8 40 22c0 16 -23 27 -85 23c0 0 9 40 17 94c-151 15 -223 109 -223 266
c0 161 89 263 264 263c162 0 259 -100 257 -231c-95 3 -222 -2 -222 -2c1 54 -11 91 -39 91c-29 0 -41 -41 -41 -125c0 -78 14 -112 41 -112c21 0 37 19 37 79c0 0 63 -4 227 -4z" />
    <glyph glyph-name="eacute" unicode="&#xe9;" horiz-adv-x="567" 
d="M307 539c-63 45 -95 62 -95 62c87 115 116 162 116 162c77 -55 118 -80 118 -80c-110 -110 -139 -144 -139 -144zM290 -14c-208 0 -276 115 -276 270s96 261 267 261c212 -1 282 -126 272 -313c0 0 -112 0 -317 -2c5 -59 22 -82 52 -82c22 0 39 14 45 52
c0 0 83 -3 222 -7c-34 -121 -135 -179 -265 -179zM286 387c-32 0 -48 -23 -52 -95c30 0 62 1 99 3c-1 60 -14 92 -47 92z" />
    <glyph glyph-name="egrave" unicode="&#xe8;" horiz-adv-x="567" 
d="M290 -14c-208 0 -276 115 -276 270s96 261 267 261c212 -1 282 -126 272 -313c0 0 -112 0 -317 -2c5 -59 22 -82 52 -82c22 0 39 14 45 52c0 0 83 -3 222 -7c-34 -121 -135 -179 -265 -179zM286 387c-32 0 -48 -23 -52 -95c30 0 62 1 99 3c-1 60 -14 92 -47 92zM276 539
c0 0 -30 34 -140 144c0 0 40 25 117 81c0 0 30 -48 118 -163c0 0 -33 -17 -95 -62z" />
    <glyph glyph-name="ecircumflex" unicode="&#xea;" horiz-adv-x="567" 
d="M176 532c0 0 -21 24 -76 76c0 0 44 34 121 109c0 0 32 -1 121 7c0 0 33 -32 126 -107c0 0 -25 -24 -75 -84c0 0 -32 28 -110 84c0 0 -36 -23 -107 -85zM290 -14c-208 0 -276 115 -276 270s96 261 267 261c212 -1 282 -126 272 -313c0 0 -112 0 -317 -2
c5 -59 22 -82 52 -82c22 0 39 14 45 52c0 0 83 -3 222 -7c-34 -121 -135 -179 -265 -179zM286 387c-32 0 -48 -23 -52 -95c30 0 62 1 99 3c-1 60 -14 92 -47 92z" />
    <glyph glyph-name="edieresis" unicode="&#xeb;" horiz-adv-x="567" 
d="M185 548c-59 0 -85 40 -85 84c0 47 37 80 86 80c55 0 84 -35 84 -81c0 -61 -42 -83 -85 -83zM386 551c-49 0 -82 33 -82 84c0 44 30 78 84 78c55 0 80 -37 80 -81c0 -54 -36 -81 -82 -81zM290 -14c-208 0 -276 115 -276 270s96 261 267 261c212 -1 282 -126 272 -313
c0 0 -112 0 -317 -2c5 -59 22 -82 52 -82c22 0 39 14 45 52c0 0 83 -3 222 -7c-34 -121 -135 -179 -265 -179zM286 387c-32 0 -48 -23 -52 -95c30 0 62 1 99 3c-1 60 -14 92 -47 92z" />
    <glyph glyph-name="iacute" unicode="&#xed;" horiz-adv-x="269" 
d="M159 540c-63 45 -95 62 -95 62c87 115 116 162 116 162c77 -55 118 -80 118 -80c-110 -110 -139 -144 -139 -144zM30 1c0 0 1 134 -3 501c0 0 77 -1 213 1c0 0 0 -251 4 -501c0 0 -92 0 -214 -1z" />
    <glyph glyph-name="igrave" unicode="&#xec;" horiz-adv-x="269" 
d="M30 1c0 0 1 134 -3 501c0 0 77 -1 213 1c0 0 0 -251 4 -501c0 0 -92 0 -214 -1zM127 540c0 0 -30 34 -140 144c0 0 40 25 117 81c0 0 30 -48 118 -163c0 0 -33 -17 -95 -62z" />
    <glyph glyph-name="icircumflex" unicode="&#xee;" horiz-adv-x="269" 
d="M28 536c0 0 -21 24 -76 76c0 0 44 34 121 109c0 0 32 -1 121 7c0 0 33 -32 126 -107c0 0 -25 -24 -75 -84c0 0 -32 28 -110 84c0 0 -36 -23 -107 -85zM30 1c0 0 1 134 -3 501c0 0 77 -1 213 1c0 0 0 -251 4 -501c0 0 -92 0 -214 -1z" />
    <glyph glyph-name="idieresis" unicode="&#xef;" horiz-adv-x="269" 
d="M37 558c-59 0 -85 40 -85 84c0 47 37 80 86 80c55 0 84 -35 84 -81c0 -61 -42 -83 -85 -83zM238 561c-49 0 -82 33 -82 84c0 44 30 78 84 78c55 0 80 -37 80 -81c0 -54 -36 -81 -82 -81zM30 1c0 0 1 134 -3 501c0 0 77 -1 213 1c0 0 0 -251 4 -501c0 0 -92 0 -214 -1z
" />
    <glyph glyph-name="ntilde" unicode="&#xf1;" 
d="M310 -18c0 0 4 153 2 303c-1 31 -10 49 -34 49c-26 0 -35 -17 -37 -52c-3 -71 -1 -268 -1 -268s-118 2 -216 0c0 0 4 193 2 477c0 0 86 -2 166 1c0 0 -2 -41 -1 -79c29 59 97 105 170 104c98 -1 156 -63 160 -178c3 -79 2 -356 2 -356c-61 1 -213 -1 -213 -1zM206 550
c0 0 -30 0 -102 -4c-6 94 28 168 107 168c58 0 86 -50 123 -50c19 0 31 10 27 45c0 0 31 0 95 6c18 -105 -18 -168 -91 -168c-69 0 -92 45 -130 45c-21 0 -32 -18 -29 -42z" />
    <glyph glyph-name="oacute" unicode="&#xf3;" horiz-adv-x="571" 
d="M308 536c-63 45 -95 62 -95 62c87 115 116 162 116 162c77 -55 118 -80 118 -80c-110 -110 -139 -144 -139 -144zM284 -10c-176 0 -270 96 -270 273c0 162 106 254 270 254c176 0 274 -100 273 -262c0 -194 -119 -265 -273 -265zM287 122c30 0 48 21 48 134
c0 98 -16 127 -49 127c-32 0 -50 -28 -50 -121c0 -111 14 -140 51 -140z" />
    <glyph glyph-name="ograve" unicode="&#xf2;" horiz-adv-x="571" 
d="M284 -10c-176 0 -270 96 -270 273c0 162 106 254 270 254c176 0 274 -100 273 -262c0 -194 -119 -265 -273 -265zM287 122c30 0 48 21 48 134c0 98 -16 127 -49 127c-32 0 -50 -28 -50 -121c0 -111 14 -140 51 -140zM277 536c0 0 -30 34 -140 144c0 0 40 25 117 81
c0 0 30 -48 118 -163c0 0 -33 -17 -95 -62z" />
    <glyph glyph-name="ocircumflex" unicode="&#xf4;" horiz-adv-x="571" 
d="M178 533c0 0 -21 24 -76 76c0 0 44 34 121 109c0 0 32 -1 121 7c0 0 33 -32 126 -107c0 0 -25 -24 -75 -84c0 0 -32 28 -110 84c0 0 -36 -23 -107 -85zM284 -10c-176 0 -270 96 -270 273c0 162 106 254 270 254c176 0 274 -100 273 -262c0 -194 -119 -265 -273 -265z
M287 122c30 0 48 21 48 134c0 98 -16 127 -49 127c-32 0 -50 -28 -50 -121c0 -111 14 -140 51 -140z" />
    <glyph glyph-name="odieresis" unicode="&#xf6;" horiz-adv-x="571" 
d="M187 554c-59 0 -85 40 -85 84c0 47 37 80 86 80c55 0 84 -35 84 -81c0 -61 -42 -83 -85 -83zM388 557c-49 0 -82 33 -82 84c0 44 30 78 84 78c55 0 80 -37 80 -81c0 -54 -36 -81 -82 -81zM284 -10c-176 0 -270 96 -270 273c0 162 106 254 270 254
c176 0 274 -100 273 -262c0 -194 -119 -265 -273 -265zM287 122c30 0 48 21 48 134c0 98 -16 127 -49 127c-32 0 -50 -28 -50 -121c0 -111 14 -140 51 -140z" />
    <glyph glyph-name="otilde" unicode="&#xf5;" horiz-adv-x="571" 
d="M284 -10c-176 0 -270 96 -270 273c0 162 106 254 270 254c176 0 274 -100 273 -262c0 -194 -119 -265 -273 -265zM287 122c30 0 48 21 48 134c0 98 -16 127 -49 127c-32 0 -50 -28 -50 -121c0 -111 14 -140 51 -140zM210 553c0 0 -30 0 -102 -4c-6 94 28 168 107 168
c58 0 86 -50 123 -50c19 0 31 10 27 45c0 0 31 0 95 6c18 -105 -18 -168 -91 -168c-69 0 -92 45 -130 45c-21 0 -32 -18 -29 -42z" />
    <glyph glyph-name="uacute" unicode="&#xfa;" 
d="M291 537c-63 45 -95 62 -95 62c87 115 116 162 116 162c77 -55 118 -80 118 -80c-110 -110 -139 -144 -139 -144zM203 -4c-134 0 -184 92 -184 304c0 70 4 138 13 208c0 0 49 -7 201 -15c-5 -46 -6 -99 -6 -137c0 -153 14 -188 44 -188c20 0 32 15 34 56
c6 151 -3 291 -3 291s52 -3 213 -3c0 0 -2 -205 2 -526c0 0 -49 3 -171 1c0 0 1 41 1 94c-29 -55 -85 -85 -144 -85z" />
    <glyph glyph-name="ugrave" unicode="&#xf9;" 
d="M203 -4c-134 0 -184 92 -184 304c0 70 4 138 13 208c0 0 49 -7 201 -15c-5 -46 -6 -99 -6 -137c0 -153 14 -188 44 -188c20 0 32 15 34 56c6 151 -3 291 -3 291s52 -3 213 -3c0 0 -2 -205 2 -526c0 0 -49 3 -171 1c0 0 1 41 1 94c-29 -55 -85 -85 -144 -85zM259 537
c0 0 -30 34 -140 144c0 0 40 25 117 81c0 0 30 -48 118 -163c0 0 -33 -17 -95 -62z" />
    <glyph glyph-name="ucircumflex" unicode="&#xfb;" 
d="M160 533c0 0 -21 24 -76 76c0 0 44 34 121 109c0 0 32 -1 121 7c0 0 33 -32 126 -107c0 0 -25 -24 -75 -84c0 0 -32 28 -110 84c0 0 -36 -23 -107 -85zM203 -4c-134 0 -184 92 -184 304c0 70 4 138 13 208c0 0 49 -7 201 -15c-5 -46 -6 -99 -6 -137
c0 -153 14 -188 44 -188c20 0 32 15 34 56c6 151 -3 291 -3 291s52 -3 213 -3c0 0 -2 -205 2 -526c0 0 -49 3 -171 1c0 0 1 41 1 94c-29 -55 -85 -85 -144 -85z" />
    <glyph glyph-name="udieresis" unicode="&#xfc;" 
d="M169 555c-59 0 -85 40 -85 84c0 47 37 80 86 80c55 0 84 -35 84 -81c0 -61 -42 -83 -85 -83zM370 558c-49 0 -82 33 -82 84c0 44 30 78 84 78c55 0 80 -37 80 -81c0 -54 -36 -81 -82 -81zM203 -4c-134 0 -184 92 -184 304c0 70 4 138 13 208c0 0 49 -7 201 -15
c-5 -46 -6 -99 -6 -137c0 -153 14 -188 44 -188c20 0 32 15 34 56c6 151 -3 291 -3 291s52 -3 213 -3c0 0 -2 -205 2 -526c0 0 -49 3 -171 1c0 0 1 41 1 94c-29 -55 -85 -85 -144 -85z" />
    <glyph glyph-name="dagger" unicode="&#x2020;" horiz-adv-x="333" 
d="M7 476c0 0 2 36 2 135c0 0 32 -1 88 -2c0 0 2 42 0 95c0 0 34 -2 141 2c0 0 -1 -43 -1 -98h88s-1 -44 1 -135c0 0 -33 1 -88 2c0 -70 1 -150 3 -234c0 0 -46 3 -148 2c0 0 2 93 3 233h-89z" />
    <glyph glyph-name="degree" unicode="&#xb0;" horiz-adv-x="328" 
d="M166 400c-84 0 -161 53 -161 160c0 85 54 150 157 150c106 0 161 -59 161 -150c0 -93 -58 -160 -157 -160zM165 482c35 0 59 24 59 75c0 46 -20 75 -60 75c-38 0 -60 -31 -60 -75c0 -43 22 -75 61 -75z" />
    <glyph glyph-name="cent" unicode="&#xa2;" horiz-adv-x="547" 
d="M181 -43c4 44 6 81 7 103c-110 31 -180 126 -180 293c0 161 57 261 181 289c-3 57 -8 106 -8 106c115 -1 202 2 202 2c-5 -48 -8 -88 -10 -114c110 -34 164 -124 163 -241c-150 1 -222 -3 -222 -3c-1 67 -13 108 -42 108c-33 0 -45 -48 -45 -136c0 -126 15 -156 47 -156
c24 0 41 27 41 106c0 0 75 -4 223 -4c-5 -145 -64 -223 -164 -250c2 -62 6 -103 6 -103c-122 3 -199 0 -199 0z" />
    <glyph glyph-name="sterling" unicode="&#xa3;" horiz-adv-x="609" 
d="M18 241c3 94 -1 145 -1 145l47 -1c-13 36 -27 73 -27 118c0 128 100 214 278 214c205 0 295 -128 284 -292c0 0 -82 -1 -228 -4c5 81 -12 125 -51 125c-31 0 -52 -24 -52 -74c0 -35 9 -62 19 -88c136 1 214 3 214 3c-2 -98 2 -151 2 -151c-73 2 -142 3 -204 4
c-7 -20 -18 -37 -32 -52c53 -1 160 -1 325 3c0 0 -5 -58 -3 -197c0 0 -226 8 -571 8c0 0 3 80 2 165c29 18 50 43 59 74h-61z" />
    <glyph glyph-name="section" unicode="&#xa7;" horiz-adv-x="586" 
d="M306 -187c-177 0 -290 83 -299 246c150 -8 228 -5 228 -5c2 -49 24 -81 66 -81c33 0 52 17 52 44c0 34 -26 55 -135 68c-142 16 -211 56 -211 153c0 55 40 99 99 115c-62 32 -90 94 -90 160c0 121 102 200 266 200c178 0 275 -90 281 -249c-164 11 -217 8 -217 8
c2 52 -20 78 -56 78c-31 0 -49 -20 -49 -48c0 -38 39 -58 121 -68c163 -19 219 -60 219 -148c0 -55 -37 -100 -85 -125c53 -26 82 -72 83 -137c0 -122 -102 -211 -273 -211zM234 266c0 -28 27 -47 101 -55c13 11 19 24 19 37c0 33 -26 53 -90 60c-20 -11 -30 -27 -30 -42z
" />
    <glyph glyph-name="bullet" unicode="&#x2022;" horiz-adv-x="302" 
d="M153 200c-93 0 -143 62 -143 153s57 150 140 150c90 0 142 -68 142 -148c0 -101 -54 -155 -139 -155z" />
    <glyph glyph-name="paragraph" unicode="&#xb6;" horiz-adv-x="595" 
d="M358 527c-19 -1 -37 -4 -54 -7c-1 -85 -4 -254 -3 -486c-170 10 -292 124 -292 331c0 224 133 337 385 337c50 0 105 -4 165 -13c0 0 -3 -318 8 -851c0 0 -62 5 -216 4c0 0 5 445 7 685z" />
    <glyph glyph-name="germandbls" unicode="&#xdf;" horiz-adv-x="571" 
d="M29 17c-8 147 -7 298 5 435c15 165 98 248 279 248c150 0 249 -80 249 -204c0 -79 -45 -133 -106 -159c73 -25 108 -87 108 -158c0 -143 -95 -194 -235 -194c-16 0 -32 1 -49 2c0 0 2 38 4 143c37 2 57 20 57 63s-22 63 -62 65c0 0 2 37 -1 148c43 3 65 23 65 71
c0 46 -15 67 -43 67c-35 0 -50 -30 -55 -85c-12 -122 -13 -262 0 -446c-146 -2 -216 4 -216 4z" />
    <glyph glyph-name="registered" unicode="&#xae;" horiz-adv-x="421" 
d="M213 265c-148 0 -208 79 -208 226c0 133 59 225 201 225c160 0 210 -107 210 -231c0 -152 -76 -220 -203 -220zM214 310c97 0 152 48 152 171c0 121 -42 190 -162 190c-104 0 -150 -60 -150 -183c0 -118 34 -178 160 -178zM234 350c0 0 -7 29 -22 85c-7 -1 -15 -1 -15 -1
c0 -14 0 -33 2 -78c0 0 -30 1 -94 0c0 0 3 99 3 271c32 6 60 9 85 9c87 0 135 -36 135 -103c0 -36 -15 -61 -39 -77c5 -14 15 -41 36 -91c0 0 -37 -5 -91 -15zM197 488c20 -1 30 10 30 39c0 28 -9 42 -31 40c-1 -57 1 -79 1 -79z" />
    <glyph glyph-name="copyright" unicode="&#xa9;" horiz-adv-x="704" 
d="M351 97c-138 0 -212 68 -212 244c0 172 87 245 220 245c132 0 204 -83 199 -199c-84 4 -166 3 -166 3c-1 58 -15 79 -39 79c-31 0 -44 -29 -44 -128c0 -105 15 -126 43 -126c25 0 39 19 39 89c95 -1 167 2 167 2c2 -172 -113 -209 -207 -209zM341 -21
c-212 0 -327 120 -327 372c0 230 122 356 349 356c219 0 327 -136 327 -360c0 -300 -162 -368 -349 -368zM347 39c135 0 277 42 277 306c0 186 -71 301 -264 301c-191 0 -280 -109 -280 -302c0 -204 89 -305 267 -305z" />
    <glyph glyph-name="trademark" unicode="&#x2122;" horiz-adv-x="629" 
d="M234 389c0 0 8 108 12 281c0 0 69 -1 158 2c0 0 8 -68 20 -150c5 47 11 107 16 174c0 0 82 -5 159 -5c0 0 4 -122 18 -319c0 0 -55 0 -111 -4c0 0 -1 103 -7 242c-6 -46 -14 -113 -19 -189c0 0 -71 0 -109 2c0 0 -6 64 -26 179c0 -47 0 -126 4 -215c0 0 -47 3 -115 2z
M5 592c0 0 2 34 2 100c0 0 82 -1 222 3c0 0 -2 -44 -1 -103c0 0 -23 0 -51 1c0 -54 1 -115 3 -221c0 0 -49 2 -116 0c0 0 2 88 1 221z" />
    <glyph glyph-name="acute" unicode="&#xb4;" horiz-adv-x="571" 
d="M264 529c-63 45 -95 62 -95 62c87 115 116 162 116 162c77 -55 118 -80 118 -80c-110 -110 -139 -144 -139 -144z" />
    <glyph glyph-name="dieresis" unicode="&#xa8;" horiz-adv-x="571" 
d="M187 547c-59 0 -85 40 -85 84c0 47 37 80 86 80c55 0 84 -35 84 -81c0 -61 -42 -83 -85 -83zM388 550c-49 0 -82 33 -82 84c0 44 30 78 84 78c55 0 80 -37 80 -81c0 -54 -36 -81 -82 -81z" />
    <glyph glyph-name="AE" unicode="&#xc6;" horiz-adv-x="810" 
d="M760 259c0 0 -80 3 -198 1l5 -85s82 -3 225 2c0 0 -3 -63 -2 -181c0 0 -145 -1 -411 -9l-8 106c-31 0 -79 1 -136 1l-14 -80s-97 2 -221 1c0 0 71 272 156 680c424 -3 636 7 636 7s-2 -75 2 -189c0 0 -110 2 -238 -1c0 0 -1 -32 0 -84c32 0 99 0 203 2c0 0 -2 -69 1 -171
zM324 554c-11 -51 -31 -146 -60 -297c25 -1 57 -1 92 -1c-8 85 -19 187 -32 298z" />
    <glyph glyph-name="Oslash" unicode="&#xd8;" horiz-adv-x="646" 
d="M204 -133c0 0 -69 40 -176 90c0 0 27 33 75 103c-58 63 -89 159 -89 282c0 241 111 360 302 360c28 0 54 -2 78 -7c10 25 23 60 41 112c0 0 68 -37 189 -89c0 0 -31 -37 -79 -104c51 -58 77 -147 77 -269c0 -234 -98 -371 -306 -371c-23 0 -45 2 -65 6
c-12 -26 -27 -61 -47 -113zM317 139c47 0 68 46 68 211c0 135 -22 191 -68 191c-50 0 -69 -54 -69 -201c0 -144 23 -201 69 -201z" />
    <glyph glyph-name="yen" unicode="&#xa5;" horiz-adv-x="608" 
d="M44 206c0 0 1 38 -4 123h100c-26 68 -70 177 -140 346c0 0 59 -1 237 7c0 0 17 -90 70 -287c0 0 38 137 72 310c0 0 78 -6 229 -3c0 0 -50 -116 -138 -367l97 3s-3 -39 -1 -123c0 0 -54 0 -152 -1c0 -5 -1 -19 -1 -36c48 1 100 2 156 4c0 0 -1 -31 1 -118
c0 0 -55 0 -156 -1l3 -77s-69 3 -215 -1c0 0 1 32 1 75l-164 -3s1 38 1 119c0 0 58 -1 161 0c0 11 0 22 -1 34z" />
    <glyph glyph-name="ordfeminine" unicode="&#xaa;" horiz-adv-x="423" 
d="M145 311c-81 0 -140 40 -140 117c0 86 81 124 233 121v12c0 29 -6 43 -23 43c-18 0 -26 -15 -30 -43c0 0 -70 6 -164 6c8 90 84 139 198 139c128 0 182 -68 189 -168c7 -103 0 -216 0 -216s-49 -2 -137 -1c0 0 3 22 5 56c-21 -44 -70 -66 -131 -66zM209 403
c20 0 33 13 34 63v27c-48 -3 -64 -27 -64 -51c0 -26 13 -39 30 -39z" />
    <glyph glyph-name="ordmasculine" unicode="&#xba;" horiz-adv-x="432" 
d="M215 304c-137 0 -208 72 -208 211c0 124 84 194 210 194c138 0 208 -73 208 -200c0 -147 -90 -205 -210 -205zM217 409c23 0 33 25 33 100c0 69 -10 98 -34 98c-25 0 -35 -30 -35 -93c0 -80 10 -105 36 -105z" />
    <glyph glyph-name="ae" unicode="&#xe6;" horiz-adv-x="877" 
d="M605 -19c-82 0 -164 24 -205 75c-37 -51 -111 -74 -191 -74c-124 0 -202 57 -202 158c0 97 73 153 245 153c15 0 31 0 48 -1v16c0 47 -12 69 -37 69s-37 -22 -39 -60c0 0 -70 3 -199 5c8 115 93 194 237 194c74 0 130 -22 165 -61c38 37 98 60 176 60
c194 0 272 -113 260 -307c0 0 -112 1 -317 -3c6 -67 25 -89 52 -89c21 0 41 14 46 54c0 0 110 -5 221 -8c-32 -116 -125 -181 -260 -181zM596 385c-33 0 -48 -25 -51 -93l99 2c-1 61 -15 91 -48 91zM310 205v8c-61 0 -91 -21 -91 -58c0 -25 13 -42 39 -42c31 0 52 19 52 92z
" />
    <glyph glyph-name="oslash" unicode="&#xf8;" horiz-adv-x="586" 
d="M290 -9c-16 0 -30 1 -44 2c-10 -23 -23 -55 -42 -105c0 0 -69 38 -168 85c0 0 23 27 61 79c-54 47 -78 120 -78 208c0 172 99 259 275 259c17 0 33 -1 48 -3c9 22 22 55 40 104c0 0 73 -38 172 -84c0 0 -25 -30 -64 -84c50 -47 74 -117 74 -200
c0 -164 -103 -261 -274 -261zM292 124c36 0 48 30 48 127c0 107 -15 135 -49 135s-50 -31 -50 -129s15 -133 51 -133z" />
    <glyph glyph-name="questiondown" unicode="&#xbf;" horiz-adv-x="580" 
d="M285 -125c-173 0 -280 82 -280 208c0 132 84 198 207 217v43c140 -3 217 2 217 2c0 -98 3 -159 3 -159c-140 8 -192 -11 -192 -82c0 -42 17 -69 52 -69c46 0 58 45 59 107c0 0 92 -3 224 -3c-2 -178 -102 -264 -290 -264zM318 372c-89 0 -135 45 -135 120
c0 71 51 116 132 116c97 0 140 -52 140 -120c0 -73 -57 -116 -137 -116z" />
    <glyph glyph-name="exclamdown" unicode="&#xa1;" horiz-adv-x="283" 
d="M21 -101c0 0 12 146 24 440c0 0 81 -2 189 2c0 0 7 -171 29 -444c0 0 -123 4 -242 2zM140 373c-87 0 -131 54 -131 118c0 73 58 116 129 116c85 0 136 -45 136 -119c0 -66 -45 -115 -134 -115z" />
    <glyph glyph-name="florin" unicode="&#x192;" horiz-adv-x="548" 
d="M490 266c-38 1 -72 2 -104 2c-15 -75 -30 -154 -46 -223c-36 -153 -114 -209 -248 -209c-25 0 -51 1 -79 5c0 0 3 46 7 170c77 -6 102 17 119 82c15 60 27 120 39 178h-70c4 152 2 167 2 167c35 -1 68 -2 99 -2l12 61c27 136 86 200 214 200c29 0 63 -3 100 -10
c-11 -112 -13 -169 -13 -169s-15 2 -26 2c-40 0 -62 -19 -70 -56l-7 -31c44 0 69 1 69 1c-1 -134 2 -168 2 -168z" />
    <glyph glyph-name="guillemotleft" unicode="&#xab;" horiz-adv-x="422" 
d="M89 132c0 0 -33 85 -87 211c0 0 41 74 98 196c0 0 44 -3 144 -4c0 0 -46 -86 -98 -198c0 0 26 -72 84 -198c0 0 -43 0 -141 -7zM272 134c0 0 -29 77 -87 207c0 0 33 61 87 179c0 0 48 -4 141 -5c0 0 -42 -78 -88 -181c0 0 28 -69 89 -198c0 0 -50 2 -142 -2z" />
    <glyph glyph-name="guillemotright" unicode="&#xbb;" horiz-adv-x="429" 
d="M148 138c0 0 -50 4 -139 6c0 0 35 63 93 186c0 0 -33 83 -87 196c0 0 43 -1 140 6c0 0 27 -74 87 -208c0 0 -42 -76 -94 -186zM334 139c0 0 -38 4 -143 5c0 0 34 63 92 188c0 0 -28 71 -86 194c0 0 49 -2 144 3c0 0 30 -78 86 -203c0 0 -40 -74 -93 -187z" />
    <glyph glyph-name="ellipsis" unicode="&#x2026;" horiz-adv-x="751" 
d="M122 0c-75 0 -114 52 -114 119c0 71 46 116 114 116s114 -49 113 -116c-1 -79 -45 -119 -113 -119zM374 -22c-73 0 -113 51 -113 120c0 71 46 116 113 116c69 0 113 -49 113 -115c-1 -82 -46 -121 -113 -121zM628 -8c-76 0 -116 48 -116 118s48 115 116 115
c71 0 116 -50 115 -114c0 -80 -46 -119 -115 -119z" />
    <glyph glyph-name="Agrave" unicode="&#xc0;" horiz-adv-x="605" 
d="M0 16c0 0 60 281 139 681c170 6 322 5 322 5s64 -330 144 -719c0 0 -114 2 -231 0c0 0 -4 35 -15 110c-32 0 -75 1 -131 1l-9 -79s-103 3 -219 1zM293 545c-9 -53 -25 -156 -43 -289h86zM286 735c0 0 -30 34 -140 144c0 0 40 25 117 81c0 0 30 -48 118 -163
c0 0 -33 -17 -95 -62z" />
    <glyph glyph-name="Atilde" unicode="&#xc3;" horiz-adv-x="605" 
d="M0 16c0 0 60 281 139 681c170 6 322 5 322 5s64 -330 144 -719c0 0 -114 2 -231 0c0 0 -4 35 -15 110c-32 0 -75 1 -131 1l-9 -79s-103 3 -219 1zM293 545c-9 -53 -25 -156 -43 -289h86zM217 752c0 0 -30 0 -102 -4c-6 94 28 168 107 168c58 0 86 -50 123 -50
c19 0 31 10 27 45c0 0 31 0 95 6c18 -105 -18 -168 -91 -168c-69 0 -92 45 -130 45c-21 0 -32 -18 -29 -42z" />
    <glyph glyph-name="Otilde" unicode="&#xd5;" horiz-adv-x="636" 
d="M318 -19c-199 1 -302 126 -304 359c-2 230 108 369 302 370c215 0 306 -137 306 -369c-2 -257 -120 -360 -304 -360zM319 143c42 0 66 35 66 201c0 163 -24 201 -68 201c-46 0 -67 -46 -67 -205c0 -153 23 -197 69 -197zM241 748c0 0 -30 0 -102 -4c-6 94 28 168 107 168
c58 0 86 -50 123 -50c19 0 31 10 27 45c0 0 31 0 95 6c18 -105 -18 -168 -91 -168c-69 0 -92 45 -130 45c-21 0 -32 -18 -29 -42z" />
    <glyph glyph-name="OE" unicode="&#x152;" horiz-adv-x="859" 
d="M796 259c0 0 -85 2 -190 1l2 -76s93 -6 234 -7c0 0 -3 -72 -3 -184c0 0 -125 9 -396 15c-35 -17 -85 -27 -131 -27c-203 0 -298 142 -298 361c0 230 112 368 295 368c41 0 81 -11 114 -24c35 0 141 1 413 12c0 0 0 -82 4 -187c0 0 -114 1 -232 -3c0 0 -1 -31 -2 -80
c32 0 93 0 188 2c0 0 -1 -73 2 -171zM320 143c41 0 65 38 65 204c0 155 -22 198 -68 198c-48 0 -67 -52 -67 -202c0 -156 23 -200 70 -200z" />
    <glyph glyph-name="oe" unicode="&#x153;" horiz-adv-x="894" 
d="M628 -17c-85 0 -150 21 -189 66c-39 -38 -97 -60 -167 -60c-170 0 -258 103 -258 273c0 164 100 254 256 254c79 0 138 -25 177 -63c38 38 98 61 175 61c175 0 270 -102 257 -312c0 0 -92 1 -317 -3c5 -58 22 -82 52 -82c23 0 40 15 46 54c0 0 109 -6 221 -9
c-28 -111 -115 -179 -253 -179zM286 122c31 0 49 22 49 133c0 94 -15 129 -49 129c-33 0 -50 -28 -50 -123c0 -109 14 -139 50 -139zM612 385c-35 0 -48 -30 -51 -96l99 4c-2 61 -16 92 -48 92z" />
    <glyph glyph-name="endash" unicode="&#x2013;" horiz-adv-x="365" 
d="M354 240c-93 1 -251 2 -344 1c3 74 4 101 2 174c77 -1 230 -2 342 1c0 -64 -1 -112 0 -176z" />
    <glyph glyph-name="emdash" unicode="&#x2014;" horiz-adv-x="440" 
d="M12 240c2 73 1 101 -2 174c93 -1 327 0 420 2c-2 -63 -2 -113 -2 -177c-112 3 -339 2 -416 1z" />
    <glyph glyph-name="quotedblleft" unicode="&#x201c;" horiz-adv-x="454" 
d="M112 417c-65 0 -102 51 -102 115c0 70 48 137 132 199c52 -37 85 -57 85 -57c-36 -34 -54 -59 -63 -72c31 -14 54 -48 54 -85c0 -60 -43 -100 -106 -100zM336 394c-59 0 -103 47 -103 115c0 64 47 135 129 193c55 -37 84 -57 84 -57c-37 -31 -56 -57 -64 -72
c37 -12 56 -46 56 -81c0 -59 -44 -98 -102 -98z" />
    <glyph glyph-name="quotedblright" unicode="&#x201d;" horiz-adv-x="448" 
d="M307 418c-50 38 -81 59 -81 59c36 34 53 60 60 73c-31 13 -54 47 -54 87c0 58 43 98 104 98c65 0 102 -51 102 -114c0 -71 -48 -140 -131 -203zM88 417c-54 38 -80 57 -80 57c36 30 53 55 60 70c-36 12 -55 47 -55 82c0 58 44 96 101 96c65 0 103 -48 103 -114
c0 -63 -46 -131 -129 -191z" />
    <glyph glyph-name="quoteleft" unicode="&#x2018;" horiz-adv-x="227" 
d="M113 417c-64 0 -103 48 -103 114c0 63 46 131 129 191c54 -38 80 -57 80 -57c-36 -31 -53 -56 -61 -71c37 -12 57 -46 57 -81c0 -58 -45 -96 -102 -96z" />
    <glyph glyph-name="quoteright" unicode="&#x2019;" horiz-adv-x="236" 
d="M93 406c-52 38 -85 57 -85 57c36 32 55 59 64 74c-32 13 -52 46 -52 84c0 58 42 99 103 99c62 0 103 -50 103 -114c0 -69 -55 -145 -133 -200z" />
    <glyph glyph-name="divide" unicode="&#xf7;" horiz-adv-x="393" 
d="M10 408c190 -5 373 -2 373 -2c-4 -101 -3 -162 -3 -162c-230 4 -369 0 -369 0c1 100 -1 164 -1 164zM194 611c57 0 90 -38 90 -88c0 -55 -39 -88 -92 -88s-88 33 -88 88c0 60 34 88 90 88zM196 219c58 0 89 -30 89 -90c0 -53 -36 -85 -90 -85c-56 0 -89 34 -89 85
c0 61 36 90 90 90z" />
    <glyph glyph-name="ydieresis" unicode="&#xff;" horiz-adv-x="546" 
d="M356 -233c-167 24 -216 29 -216 29c25 98 35 148 35 148c-101 328 -175 538 -175 538c149 1 230 11 230 11c25 -196 48 -305 48 -305c33 215 45 335 45 335c144 -9 223 -10 223 -10c-156 -590 -190 -746 -190 -746zM174 555c-59 0 -85 40 -85 84c0 47 37 80 86 80
c55 0 84 -35 84 -81c0 -61 -42 -83 -85 -83zM375 558c-49 0 -82 33 -82 84c0 44 30 78 84 78c55 0 80 -37 80 -81c0 -54 -36 -81 -82 -81z" />
    <glyph glyph-name="Ydieresis" unicode="&#x178;" horiz-adv-x="608" 
d="M198 -13c0 24 1 50 -4 152c0 0 -59 169 -194 536c0 0 55 0 240 8c0 0 13 -82 66 -288c0 0 25 117 71 311c0 0 60 -4 231 -4c0 0 -76 -212 -194 -561c0 0 -2 -15 2 -153c0 0 -52 1 -218 -1zM205 747c-59 0 -85 40 -85 84c0 47 37 80 86 80c55 0 84 -35 84 -81
c0 -61 -42 -83 -85 -83zM406 750c-49 0 -82 33 -82 84c0 44 30 78 84 78c55 0 80 -37 80 -81c0 -54 -36 -81 -82 -81z" />
    <glyph glyph-name="fraction" unicode="&#x2044;" horiz-adv-x="544" 
d="M96 -15l-116 12c301 434 465 699 465 699c72 -8 119 -10 119 -10c-372 -549 -468 -701 -468 -701z" />
    <glyph glyph-name="Euro" unicode="&#x20ac;" horiz-adv-x="670" 
d="M1 352c0 0 1 13 0 80c0 0 24 -1 70 0c25 183 133 285 303 285c167 0 269 -112 287 -249c-116 0 -239 -4 -239 -4c-5 57 -22 81 -51 81c-36 0 -58 -28 -65 -110l259 5s-3 -19 -2 -81c0 0 -91 0 -259 -2v-28l267 5s-2 -17 0 -80c0 0 -91 0 -264 -2c7 -77 26 -101 62 -101
c30 0 50 24 57 76c138 -4 239 -6 239 -6c-16 -154 -131 -243 -298 -242c-169 0 -269 89 -295 269l-70 -1s1 9 1 81h63v25z" />
    <glyph glyph-name="guilsinglleft" unicode="&#x2039;" horiz-adv-x="245" 
d="M88 136c0 0 -28 72 -86 203c0 0 38 71 92 187c0 0 39 -4 144 -5c0 0 -35 -63 -93 -188c0 0 26 -66 87 -193c0 0 -48 1 -144 -4z" />
    <glyph glyph-name="guilsinglright" unicode="&#x203a;" horiz-adv-x="241" 
d="M152 139c0 0 -50 4 -143 5c0 0 36 67 88 182c0 0 -26 65 -89 197c0 0 52 -2 144 2c0 0 25 -66 87 -206c0 0 -32 -60 -87 -180z" />
    <glyph glyph-name="daggerdbl" unicode="&#x2021;" horiz-adv-x="333" 
d="M8 516c1 84 -1 115 -1 115h86l-1 74c54 -1 100 -1 148 0l-2 -73c56 1 87 2 87 2c-2 -73 -1 -115 -1 -115h-86l-1 -85h89c-1 -39 -2 -63 -2 -115h-87v-77c-56 2 -90 2 -141 0v78h-88c0 30 0 72 -1 115h88s1 30 0 83c-59 -1 -87 -2 -87 -2z" />
    <glyph glyph-name="periodcentered" unicode="&#xb7;" horiz-adv-x="245" 
d="M121 244c-68 0 -111 46 -111 113c0 69 46 114 114 114c69 0 111 -45 111 -114c0 -78 -45 -113 -114 -113z" />
    <glyph glyph-name="quotesinglbase" unicode="&#x201a;" horiz-adv-x="236" 
d="M93 -133c-52 37 -85 56 -85 56c36 33 55 59 64 74c-32 13 -52 46 -52 84c0 58 42 100 103 100c62 0 103 -51 103 -115c0 -69 -55 -144 -133 -199z" />
    <glyph glyph-name="quotedblbase" unicode="&#x201e;" horiz-adv-x="448" 
d="M307 -127c-50 37 -81 58 -81 58c36 35 53 60 60 73c-31 14 -54 48 -54 87c0 59 43 98 104 98c65 0 102 -51 102 -114c0 -71 -48 -140 -131 -202zM88 -129c-54 38 -80 57 -80 57c37 31 54 57 61 71c-37 12 -56 46 -56 82c0 58 44 95 101 95c65 0 103 -48 103 -113
c0 -64 -46 -132 -129 -192z" />
    <glyph glyph-name="perthousand" unicode="&#x2030;" horiz-adv-x="1131" 
d="M186 428c20 0 32 19 32 100c0 76 -10 97 -33 97c-22 0 -32 -29 -32 -94c0 -78 10 -103 33 -103zM184 336c-132 0 -179 90 -179 205c0 108 67 182 181 182c120 0 181 -74 181 -197c0 -140 -78 -190 -183 -190zM176 -14c-53 7 -86 9 -86 9c299 438 467 701 467 701
c53 -5 89 -6 89 -6c-369 -553 -470 -704 -470 -704zM559 70c20 0 31 21 31 98c0 73 -9 97 -31 97s-32 -28 -32 -91c0 -83 12 -104 32 -104zM557 -25c-123 0 -179 82 -179 200c0 105 62 189 182 189c121 0 181 -80 181 -194c0 -136 -78 -195 -184 -195zM945 78
c22 0 32 25 32 102c0 65 -10 94 -32 94s-32 -21 -32 -96c0 -82 11 -100 32 -100zM946 -15c-101 0 -182 55 -182 191c0 115 64 196 180 196c119 0 182 -75 182 -182c0 -123 -57 -205 -180 -205z" />
    <glyph glyph-name="Acircumflex" unicode="&#xc2;" horiz-adv-x="605" 
d="M0 16c0 0 60 281 139 681c170 6 322 5 322 5s64 -330 144 -719c0 0 -114 2 -231 0c0 0 -4 35 -15 110c-32 0 -75 1 -131 1l-9 -79s-103 3 -219 1zM293 545c-9 -53 -25 -156 -43 -289h86zM185 731c0 0 -21 24 -76 76c0 0 44 34 121 109c0 0 32 -1 121 7
c0 0 33 -32 126 -107c0 0 -25 -24 -75 -84c0 0 -32 28 -110 84c0 0 -36 -23 -107 -85z" />
    <glyph glyph-name="Ecircumflex" unicode="&#xca;" horiz-adv-x="495" 
d="M146 729c0 0 -21 24 -76 76c0 0 44 34 121 109c0 0 32 -1 121 7c0 0 33 -32 126 -107c0 0 -25 -24 -75 -84c0 0 -32 28 -110 84c0 0 -36 -23 -107 -85zM36 4c0 0 -1 286 -8 689c0 0 148 4 448 7c0 0 -1 -71 2 -187c0 0 -97 -1 -234 -5c-1 -51 0 -79 0 -79s43 -1 188 1
c0 0 -2 -59 1 -171c0 0 -57 1 -185 1c1 -50 3 -76 3 -76s72 -4 227 -7c0 0 -2 -63 -2 -183c0 0 -195 7 -440 10z" />
    <glyph glyph-name="Aacute" unicode="&#xc1;" horiz-adv-x="605" 
d="M0 16c0 0 60 281 139 681c170 6 322 5 322 5s64 -330 144 -719c0 0 -114 2 -231 0c0 0 -4 35 -15 110c-32 0 -75 1 -131 1l-9 -79s-103 3 -219 1zM293 545c-9 -53 -25 -156 -43 -289h86zM317 735c-63 45 -95 62 -95 62c87 115 116 162 116 162c77 -55 118 -80 118 -80
c-110 -110 -139 -144 -139 -144z" />
    <glyph glyph-name="Edieresis" unicode="&#xcb;" horiz-adv-x="495" 
d="M156 751c-59 0 -85 40 -85 84c0 47 37 80 86 80c55 0 84 -35 84 -81c0 -61 -42 -83 -85 -83zM357 754c-49 0 -82 33 -82 84c0 44 30 78 84 78c55 0 80 -37 80 -81c0 -54 -36 -81 -82 -81zM36 4c0 0 -1 286 -8 689c0 0 148 4 448 7c0 0 -1 -71 2 -187c0 0 -97 -1 -234 -5
c-1 -51 0 -79 0 -79s43 -1 188 1c0 0 -2 -59 1 -171c0 0 -57 1 -185 1c1 -50 3 -76 3 -76s72 -4 227 -7c0 0 -2 -63 -2 -183c0 0 -195 7 -440 10z" />
    <glyph glyph-name="Egrave" unicode="&#xc8;" horiz-adv-x="495" 
d="M36 4c0 0 -1 286 -8 689c0 0 148 4 448 7c0 0 -1 -71 2 -187c0 0 -97 -1 -234 -5c-1 -51 0 -79 0 -79s43 -1 188 1c0 0 -2 -59 1 -171c0 0 -57 1 -185 1c1 -50 3 -76 3 -76s72 -4 227 -7c0 0 -2 -63 -2 -183c0 0 -195 7 -440 10zM246 733c0 0 -30 34 -140 144
c0 0 40 25 117 81c0 0 30 -48 118 -163c0 0 -33 -17 -95 -62z" />
    <glyph glyph-name="Iacute" unicode="&#xcd;" horiz-adv-x="290" 
d="M37 -1c0 0 1 306 -4 695c0 0 77 0 219 1c0 0 2 -335 5 -696c0 0 -89 1 -220 0zM169 731c-63 45 -95 62 -95 62c87 115 116 162 116 162c77 -55 118 -80 118 -80c-110 -110 -139 -144 -139 -144z" />
    <glyph glyph-name="Icircumflex" unicode="&#xce;" horiz-adv-x="290" 
d="M37 -1c0 0 1 306 -4 695c0 0 77 0 219 1c0 0 2 -335 5 -696c0 0 -89 1 -220 0zM37 727c0 0 -21 24 -76 76c0 0 44 34 121 109c0 0 32 -1 121 7c0 0 33 -32 126 -107c0 0 -25 -24 -75 -84c0 0 -32 28 -110 84c0 0 -36 -23 -107 -85z" />
    <glyph glyph-name="Idieresis" unicode="&#xcf;" horiz-adv-x="290" 
d="M37 -1c0 0 1 306 -4 695c0 0 77 0 219 1c0 0 2 -335 5 -696c0 0 -89 1 -220 0zM46 749c-59 0 -85 40 -85 84c0 47 37 80 86 80c55 0 84 -35 84 -81c0 -61 -42 -83 -85 -83zM247 752c-49 0 -82 33 -82 84c0 44 30 78 84 78c55 0 80 -37 80 -81c0 -54 -36 -81 -82 -81z" />
    <glyph glyph-name="Igrave" unicode="&#xcc;" horiz-adv-x="290" 
d="M37 -1c0 0 1 306 -4 695c0 0 77 0 219 1c0 0 2 -335 5 -696c0 0 -89 1 -220 0zM137 731c0 0 -30 34 -140 144c0 0 40 25 117 81c0 0 30 -48 118 -163c0 0 -33 -17 -95 -62z" />
    <glyph glyph-name="Oacute" unicode="&#xd3;" horiz-adv-x="636" 
d="M341 731c-63 45 -95 62 -95 62c87 115 116 162 116 162c77 -55 118 -80 118 -80c-110 -110 -139 -144 -139 -144zM318 -19c-199 1 -302 126 -304 359c-2 230 108 369 302 370c215 0 306 -137 306 -369c-2 -257 -120 -360 -304 -360zM319 143c42 0 66 35 66 201
c0 163 -24 201 -68 201c-46 0 -67 -46 -67 -205c0 -153 23 -197 69 -197z" />
    <glyph glyph-name="Ocircumflex" unicode="&#xd4;" horiz-adv-x="636" 
d="M209 726c0 0 -21 24 -76 76c0 0 44 34 121 109c0 0 32 -1 121 7c0 0 33 -32 126 -107c0 0 -25 -24 -75 -84c0 0 -32 28 -110 84c0 0 -36 -23 -107 -85zM318 -19c-199 1 -302 126 -304 359c-2 230 108 369 302 370c215 0 306 -137 306 -369c-2 -257 -120 -360 -304 -360z
M319 143c42 0 66 35 66 201c0 163 -24 201 -68 201c-46 0 -67 -46 -67 -205c0 -153 23 -197 69 -197z" />
    <glyph glyph-name="Ograve" unicode="&#xd2;" horiz-adv-x="636" 
d="M318 -19c-199 1 -302 126 -304 359c-2 230 108 369 302 370c215 0 306 -137 306 -369c-2 -257 -120 -360 -304 -360zM319 143c42 0 66 35 66 201c0 163 -24 201 -68 201c-46 0 -67 -46 -67 -205c0 -153 23 -197 69 -197zM308 731c0 0 -30 34 -140 144c0 0 40 25 117 81
c0 0 30 -48 118 -163c0 0 -33 -17 -95 -62z" />
    <glyph glyph-name="Uacute" unicode="&#xda;" horiz-adv-x="591" 
d="M319 728c-63 45 -95 62 -95 62c87 115 116 162 116 162c77 -55 118 -80 118 -80c-110 -110 -139 -144 -139 -144zM300 -14c-193 0 -286 129 -286 420c0 87 8 185 25 282c0 0 65 -11 211 -27c-12 -91 -18 -168 -18 -238c0 -178 23 -242 61 -242s59 38 59 215
c0 91 -7 199 -21 306c0 0 75 1 218 12c18 -109 28 -223 28 -324c0 -271 -87 -404 -277 -404z" />
    <glyph glyph-name="Ucircumflex" unicode="&#xdb;" horiz-adv-x="591" 
d="M187 727c0 0 -21 24 -76 76c0 0 44 34 121 109c0 0 32 -1 121 7c0 0 33 -32 126 -107c0 0 -25 -24 -75 -84c0 0 -32 28 -110 84c0 0 -36 -23 -107 -85zM300 -14c-193 0 -286 129 -286 420c0 87 8 185 25 282c0 0 65 -11 211 -27c-12 -91 -18 -168 -18 -238
c0 -178 23 -242 61 -242s59 38 59 215c0 91 -7 199 -21 306c0 0 75 1 218 12c18 -109 28 -223 28 -324c0 -271 -87 -404 -277 -404z" />
    <glyph glyph-name="Ugrave" unicode="&#xd9;" horiz-adv-x="591" 
d="M300 -14c-193 0 -286 129 -286 420c0 87 8 185 25 282c0 0 65 -11 211 -27c-12 -91 -18 -168 -18 -238c0 -178 23 -242 61 -242s59 38 59 215c0 91 -7 199 -21 306c0 0 75 1 218 12c18 -109 28 -223 28 -324c0 -271 -87 -404 -277 -404zM287 724c0 0 -30 34 -140 144
c0 0 40 25 117 81c0 0 30 -48 118 -163c0 0 -33 -17 -95 -62z" />
    <glyph glyph-name="dotlessi" unicode="&#x131;" horiz-adv-x="269" 
d="M30 1c0 0 1 134 -3 501c0 0 77 -1 213 1c0 0 0 -251 4 -501c0 0 -92 0 -214 -1z" />
    <glyph glyph-name="circumflex" unicode="&#x2c6;" horiz-adv-x="571" 
d="M178 525c0 0 -21 24 -76 76c0 0 44 34 121 109c0 0 32 -1 121 7c0 0 33 -32 126 -107c0 0 -25 -24 -75 -84c0 0 -32 28 -110 84c0 0 -36 -23 -107 -85z" />
    <glyph glyph-name="tilde" unicode="&#x2dc;" horiz-adv-x="571" 
d="M210 546c0 0 -30 0 -102 -4c-6 94 28 168 107 168c58 0 86 -50 123 -50c19 0 31 10 27 45c0 0 31 0 95 6c18 -105 -18 -168 -91 -168c-69 0 -92 45 -130 45c-21 0 -32 -18 -29 -42z" />
    <glyph glyph-name="macron" unicode="&#xaf;" horiz-adv-x="571" 
d="M140 564c0 0 1 32 -2 116c0 0 73 -1 296 2c0 0 -2 -32 -2 -116c0 0 -77 1 -292 -2z" />
    <glyph glyph-name="breve" unicode="&#x2d8;" horiz-adv-x="571" 
d="M283 543c-121 0 -166 68 -161 146c0 0 42 0 125 5c-2 -29 11 -50 39 -50c22 0 42 15 34 59c0 0 39 -1 128 1c11 -117 -72 -161 -165 -161z" />
    <glyph glyph-name="dotaccent" unicode="&#x2d9;" horiz-adv-x="571" 
d="M286 546c-68 0 -99 46 -99 93s36 89 99 89c67 0 99 -47 99 -90c0 -61 -43 -92 -99 -92z" />
    <glyph glyph-name="ring" unicode="&#x2da;" horiz-adv-x="571" 
d="M284 538c-80 0 -121 47 -121 105c0 66 54 102 122 102c79 0 124 -46 124 -102c0 -77 -60 -105 -125 -105zM287 599c24 0 39 18 39 44c0 23 -14 45 -39 45c-27 0 -40 -21 -40 -45c0 -25 16 -44 40 -44z" />
    <glyph glyph-name="cedilla" unicode="&#xb8;" horiz-adv-x="571" 
d="M223 9l79 1s-2 -23 -2 -52c77 -2 117 -34 117 -82c0 -59 -57 -99 -161 -99c-31 0 -70 6 -102 17c0 0 6 34 11 78c27 -12 57 -19 83 -19c24 0 40 8 40 22c0 16 -23 27 -85 23c0 0 11 48 20 111z" />
    <glyph glyph-name="hungarumlaut" unicode="&#x2dd;" horiz-adv-x="571" 
d="M356 537c-65 39 -94 52 -94 52c77 119 104 169 104 169c81 -47 114 -63 114 -63c-98 -121 -124 -158 -124 -158zM185 543c-66 39 -94 50 -94 50c75 123 98 170 98 170c79 -46 115 -63 115 -63c-94 -120 -119 -157 -119 -157z" />
    <glyph glyph-name="ogonek" unicode="&#x2db;" horiz-adv-x="571" 
d="M364 -216c-119 -12 -178 32 -179 104c0 49 34 98 100 127l84 -4c-44 -21 -67 -50 -67 -73c0 -26 22 -43 72 -42c0 0 -6 -34 -10 -112z" />
    <glyph glyph-name="caron" unicode="&#x2c7;" horiz-adv-x="571" 
d="M229 529c0 0 -34 32 -127 108c0 0 25 24 76 83c0 0 32 -27 110 -84c0 0 35 24 106 85c0 0 21 -23 76 -76c0 0 -43 -34 -120 -108c0 0 -33 0 -121 -8z" />
    <glyph glyph-name="commaaccent" horiz-adv-x="571" 
d="M368 -107c0 -51 -39 -102 -111 -148c-31 31 -47 44 -50 46c25 21 38 39 44 49c-28 8 -47 32 -47 61c0 39 33 69 83 69c48 0 81 -29 81 -77z" />
    <glyph glyph-name="uni0237" unicode="&#x237;" horiz-adv-x="269" 
d="M-91 -230c0 0 5 54 4 173c13 -1 24 -2 35 -2c60 0 82 28 83 88c3 174 -1 469 -1 469c142 -3 208 1 208 1s8 -182 4 -495c-1 -155 -80 -239 -246 -239c-27 0 -56 1 -87 5z" />
    <glyph glyph-name="Dcroat" unicode="&#x110;" horiz-adv-x="646" 
d="M3 247c0 0 4 64 2 189c0 0 21 -2 57 -3v255c71 12 135 18 192 18c260 0 378 -121 378 -371s-131 -352 -395 -352c-53 0 -112 5 -176 13l1 253zM281 146c81 -5 116 37 116 193c0 146 -36 204 -122 197c0 -38 0 -74 1 -108h45s-3 -52 1 -173h-44c1 -68 3 -109 3 -109z" />
    <glyph glyph-name="dcroat" unicode="&#x111;" horiz-adv-x="591" 
d="M609 487l-64 4c-1 -130 -1 -311 0 -511c0 0 -100 2 -175 1c0 0 3 37 5 93c-31 -57 -89 -84 -149 -84c-125 0 -212 87 -212 270c0 149 66 255 195 255c56 0 98 -27 126 -64c-1 52 -3 129 -8 237c0 0 42 -3 220 1c0 0 0 -20 -1 -50c43 2 69 4 69 4c-6 -95 -6 -156 -6 -156z
M290 122c29 0 51 25 51 136c0 73 -16 121 -51 121c-30 0 -50 -32 -50 -131c0 -86 19 -126 50 -126z" />
    <glyph glyph-name="Abreve" unicode="&#x102;" horiz-adv-x="605" 
d="M0 16c0 0 60 281 139 681c170 6 322 5 322 5s64 -330 144 -719c0 0 -114 2 -231 0c0 0 -4 35 -15 110c-32 0 -75 1 -131 1l-9 -79s-103 3 -219 1zM293 545c-9 -53 -25 -156 -43 -289h86zM290 745c-121 0 -166 68 -161 146c0 0 42 0 125 5c-2 -29 11 -50 39 -50
c22 0 42 15 34 59c0 0 39 -1 128 1c11 -117 -72 -161 -165 -161z" />
    <glyph glyph-name="Amacron" unicode="&#x100;" horiz-adv-x="605" 
d="M0 16c0 0 60 281 139 681c170 6 322 5 322 5s64 -330 144 -719c0 0 -114 2 -231 0c0 0 -4 35 -15 110c-32 0 -75 1 -131 1l-9 -79s-103 3 -219 1zM293 545c-9 -53 -25 -156 -43 -289h86zM148 766c0 0 1 32 -2 116c0 0 73 -1 296 2c0 0 -2 -32 -2 -116c0 0 -77 1 -292 -2z
" />
    <glyph glyph-name="Aogonek" unicode="&#x104;" horiz-adv-x="605" 
d="M475 -221c-119 -12 -178 32 -179 104c0 43 26 85 76 115l-13 95c-32 0 -75 1 -131 1l-9 -79s-103 3 -219 1c0 0 60 281 139 681c170 6 322 5 322 5s64 -330 144 -719c0 0 -73 2 -161 1c-21 -17 -31 -35 -31 -51c0 -26 22 -43 72 -42c0 0 -6 -34 -10 -112zM293 545
c-9 -53 -25 -156 -43 -289h86z" />
    <glyph glyph-name="Cacute" unicode="&#x106;" horiz-adv-x="620" 
d="M338 739c-63 45 -95 62 -95 62c87 115 116 162 116 162c77 -55 118 -80 118 -80c-110 -110 -139 -144 -139 -144zM317 -16c-182 0 -303 99 -303 362c0 240 109 366 306 366c192 0 282 -129 290 -291c-159 -6 -236 -5 -236 -5c-5 91 -23 127 -59 127
c-46 0 -65 -55 -64 -197c0 -146 22 -191 64 -191c38 0 58 30 62 143c142 0 238 -5 238 -5c-4 -223 -126 -310 -298 -309z" />
    <glyph glyph-name="Ccaron" unicode="&#x10c;" horiz-adv-x="620" 
d="M257 739c0 0 -34 32 -127 108c0 0 25 24 76 83c0 0 32 -27 110 -84c0 0 35 24 106 85c0 0 21 -23 76 -76c0 0 -43 -34 -120 -108c0 0 -33 0 -121 -8zM317 -16c-182 0 -303 99 -303 362c0 240 109 366 306 366c192 0 282 -129 290 -291c-159 -6 -236 -5 -236 -5
c-5 91 -23 127 -59 127c-46 0 -65 -55 -64 -197c0 -146 22 -191 64 -191c38 0 58 30 62 143c142 0 238 -5 238 -5c-4 -223 -126 -310 -298 -309z" />
    <glyph glyph-name="Ccircumflex" unicode="&#x108;" horiz-adv-x="620" 
d="M206 731c0 0 -21 24 -76 76c0 0 44 34 121 109c0 0 32 -1 121 7c0 0 33 -32 126 -107c0 0 -25 -24 -75 -84c0 0 -32 28 -110 84c0 0 -36 -23 -107 -85zM317 -16c-182 0 -303 99 -303 362c0 240 109 366 306 366c192 0 282 -129 290 -291c-159 -6 -236 -5 -236 -5
c-5 91 -23 127 -59 127c-46 0 -65 -55 -64 -197c0 -146 22 -191 64 -191c38 0 58 30 62 143c142 0 238 -5 238 -5c-4 -223 -126 -310 -298 -309z" />
    <glyph glyph-name="Dcaron" unicode="&#x10e;" horiz-adv-x="613" 
d="M209 738c0 0 -34 32 -127 108c0 0 25 24 76 83c0 0 32 -27 110 -84c0 0 35 24 106 85c0 0 21 -23 76 -76c0 0 -43 -34 -120 -108c0 0 -33 0 -121 -8zM248 152c77 -5 116 23 116 189c0 143 -31 201 -122 191c2 -218 6 -380 6 -380zM28 -4c3 398 1 692 1 692
c72 12 136 18 194 18c259 0 376 -121 376 -371s-131 -352 -395 -352c-53 0 -112 5 -176 13z" />
    <glyph glyph-name="Ecaron" unicode="&#x11a;" horiz-adv-x="495" 
d="M197 730c0 0 -34 32 -127 108c0 0 25 24 76 83c0 0 32 -27 110 -84c0 0 35 24 106 85c0 0 21 -23 76 -76c0 0 -43 -34 -120 -108c0 0 -33 0 -121 -8zM36 4c0 0 -1 286 -8 689c0 0 148 4 448 7c0 0 -1 -71 2 -187c0 0 -97 -1 -234 -5c-1 -51 0 -79 0 -79s43 -1 188 1
c0 0 -2 -59 1 -171c0 0 -57 1 -185 1c1 -50 3 -76 3 -76s72 -4 227 -7c0 0 -2 -63 -2 -183c0 0 -195 7 -440 10z" />
    <glyph glyph-name="Edotaccent" unicode="&#x116;" horiz-adv-x="495" 
d="M36 4c0 0 -1 286 -8 689c0 0 148 4 448 7c0 0 -1 -71 2 -187c0 0 -97 -1 -234 -5c-1 -51 0 -79 0 -79s43 -1 188 1c0 0 -2 -59 1 -171c0 0 -57 1 -185 1c1 -50 3 -76 3 -76s72 -4 227 -7c0 0 -2 -63 -2 -183c0 0 -195 7 -440 10zM255 750c-68 0 -99 46 -99 93
s36 89 99 89c67 0 99 -47 99 -90c0 -61 -43 -92 -99 -92z" />
    <glyph glyph-name="Emacron" unicode="&#x112;" horiz-adv-x="495" 
d="M36 4c0 0 -1 286 -8 689c0 0 148 4 448 7c0 0 -1 -71 2 -187c0 0 -97 -1 -234 -5c-1 -51 0 -79 0 -79s43 -1 188 1c0 0 -2 -59 1 -171c0 0 -57 1 -185 1c1 -50 3 -76 3 -76s72 -4 227 -7c0 0 -2 -63 -2 -183c0 0 -195 7 -440 10zM109 768c0 0 1 32 -2 116
c0 0 73 -1 296 2c0 0 -2 -32 -2 -116c0 0 -77 1 -292 -2z" />
    <glyph glyph-name="Eogonek" unicode="&#x118;" horiz-adv-x="495" 
d="M470 -223c-116 -12 -179 32 -179 104c-1 44 29 91 92 118l-347 5s-1 286 -8 689c0 0 148 4 448 7c0 0 -1 -71 2 -187c0 0 -97 -1 -234 -5c-2 -57 0 -79 0 -79c10 0 43 -1 188 1c0 0 -2 -59 1 -171c0 0 -57 1 -185 1c0 0 -1 -29 3 -76c0 0 72 -4 227 -7
c0 0 -2 -61 -2 -181c-49 -17 -68 -43 -68 -66c0 -25 22 -43 72 -42c0 0 -7 -33 -10 -111z" />
    <glyph glyph-name="Gbreve" unicode="&#x11e;" horiz-adv-x="632" 
d="M317 -22c-176 0 -303 99 -303 367c0 246 110 366 306 366c173 0 276 -108 287 -279c0 0 -143 -2 -226 -7c-4 83 -26 119 -63 119c-49 0 -74 -51 -74 -200c1 -155 30 -206 87 -206c37 0 63 24 73 87l-100 -4s2 50 -1 156c0 0 158 -2 318 -2c6 -302 -115 -397 -304 -397z
M314 743c-121 0 -166 68 -161 146c0 0 42 0 125 5c-2 -29 11 -50 39 -50c22 0 42 15 34 59c0 0 39 -1 128 1c11 -117 -72 -161 -165 -161z" />
    <glyph glyph-name="Gcircumflex" unicode="&#x11c;" horiz-adv-x="632" 
d="M209 728c0 0 -21 24 -76 76c0 0 44 34 121 109c0 0 32 -1 121 7c0 0 33 -32 126 -107c0 0 -25 -24 -75 -84c0 0 -32 28 -110 84c0 0 -36 -23 -107 -85zM317 -22c-176 0 -303 99 -303 367c0 246 110 366 306 366c173 0 276 -108 287 -279c0 0 -143 -2 -226 -7
c-4 83 -26 119 -63 119c-49 0 -74 -51 -74 -200c1 -155 30 -206 87 -206c37 0 63 24 73 87l-100 -4s2 50 -1 156c0 0 158 -2 318 -2c6 -302 -115 -397 -304 -397z" />
    <glyph glyph-name="Gcommaaccent" unicode="&#x122;" horiz-adv-x="632" 
d="M400 -124c0 -51 -39 -102 -111 -148c-31 31 -47 44 -50 46c25 21 38 39 44 49c-28 8 -47 32 -47 61c0 39 33 69 83 69c48 0 81 -29 81 -77zM317 -22c-176 0 -303 99 -303 367c0 246 110 366 306 366c173 0 276 -108 287 -279c0 0 -143 -2 -226 -7c-4 83 -26 119 -63 119
c-49 0 -74 -51 -74 -200c1 -155 30 -206 87 -206c37 0 63 24 73 87l-100 -4s2 50 -1 156c0 0 158 -2 318 -2c6 -302 -115 -397 -304 -397z" />
    <glyph glyph-name="Hcircumflex" unicode="&#x124;" horiz-adv-x="589" 
d="M186 737c0 0 -21 24 -76 76c0 0 44 34 121 109c0 0 32 -1 121 7c0 0 33 -32 126 -107c0 0 -25 -24 -75 -84c0 0 -32 28 -110 84c0 0 -36 -23 -107 -85zM343 -18v214c-17 0 -42 0 -97 -1l3 -176s-99 2 -217 -1c0 0 1 269 -4 660c0 0 78 0 214 1c0 0 0 -121 2 -303
c13 0 43 -1 98 -1l-3 337s91 -2 219 1c0 0 0 -323 3 -732c0 0 -91 4 -218 1z" />
    <glyph glyph-name="Idotaccent" unicode="&#x130;" horiz-adv-x="290" 
d="M37 -1c0 0 1 306 -4 695c0 0 77 0 219 1c0 0 2 -335 5 -696c0 0 -89 1 -220 0zM145 748c-68 0 -99 46 -99 93s36 89 99 89c67 0 99 -47 99 -90c0 -61 -43 -92 -99 -92z" />
    <glyph glyph-name="Imacron" unicode="&#x12a;" horiz-adv-x="290" 
d="M37 -1c0 0 1 306 -4 695c0 0 77 0 219 1c0 0 2 -335 5 -696c0 0 -89 1 -220 0zM-1 766c0 0 1 32 -2 116c0 0 73 -1 296 2c0 0 -2 -32 -2 -116c0 0 -77 1 -292 -2z" />
    <glyph glyph-name="Iogonek" unicode="&#x12e;" horiz-adv-x="290" 
d="M206 -219c-119 -12 -179 32 -179 104c0 43 26 85 76 115l-66 -1s1 306 -4 695c0 0 77 0 219 1c0 0 2 -335 5 -696c0 0 -30 1 -63 1c-33 -20 -50 -45 -50 -65c0 -26 22 -43 72 -42c0 0 -6 -34 -10 -112z" />
    <glyph glyph-name="Jcircumflex" unicode="&#x134;" horiz-adv-x="535" 
d="M279 731c0 0 -21 24 -76 76c0 0 44 34 121 109c0 0 32 -1 121 7c0 0 33 -32 126 -107c0 0 -25 -24 -75 -84c0 0 -32 28 -110 84c0 0 -36 -23 -107 -85zM255 -10c-168 0 -250 92 -250 257c0 39 4 80 13 116c0 0 56 -8 197 -18c-3 -22 -4 -47 -4 -68c0 -72 15 -101 41 -101
c34 0 52 39 52 241c0 87 -7 172 -22 282c0 0 72 4 214 14c15 -101 25 -205 25 -304c0 -267 -73 -419 -266 -419z" />
    <glyph glyph-name="Kcommaaccent" unicode="&#x136;" horiz-adv-x="607" 
d="M389 -124c0 -51 -39 -102 -111 -148c-31 31 -47 44 -50 46c25 21 38 39 44 49c-28 8 -47 32 -47 61c0 39 33 69 83 69c48 0 81 -29 81 -77zM366 -25c-26 95 -47 166 -63 216l-59 -107c1 -47 2 -72 2 -72c-140 2 -218 -1 -218 -1c1 391 0 672 0 672c132 -3 217 -1 217 -1
c-2 -117 -2 -213 -2 -301c86 224 126 333 126 333c153 -7 236 -8 236 -8c-68 -149 -118 -265 -146 -329c86 -243 144 -391 144 -391c-146 -3 -237 -11 -237 -11z" />
    <glyph glyph-name="Lacute" unicode="&#x139;" horiz-adv-x="460" 
d="M165 723c-63 45 -95 62 -95 62c87 115 116 162 116 162c77 -55 118 -80 118 -80c-110 -110 -139 -144 -139 -144zM34 3c0 0 0 329 -6 686c0 0 69 -2 216 0c0 0 -2 -90 4 -499c131 -4 210 -3 210 -3c-3 -115 -1 -187 -1 -187c-193 3 -423 3 -423 3z" />
    <glyph glyph-name="Lcaron" unicode="&#x13d;" horiz-adv-x="460" 
d="M458 663c0 -51 -39 -102 -111 -148c-31 31 -47 44 -50 46c25 21 38 39 44 49c-28 8 -47 32 -47 61c0 39 33 69 83 69c48 0 81 -29 81 -77zM34 3c0 0 0 329 -6 686c0 0 69 -2 216 0c0 0 -2 -90 4 -499c131 -4 210 -3 210 -3c-3 -115 -1 -187 -1 -187c-193 3 -423 3 -423 3
z" />
    <glyph glyph-name="Lcommaaccent" unicode="&#x13b;" horiz-adv-x="460" 
d="M326 -107c0 -51 -39 -102 -111 -148c-31 31 -47 44 -50 46c25 21 38 39 44 49c-28 8 -47 32 -47 61c0 39 33 69 83 69c48 0 81 -29 81 -77zM34 3c0 0 0 329 -6 686c0 0 69 -2 216 0c0 0 -2 -90 4 -499c131 -4 210 -3 210 -3c-3 -115 -1 -187 -1 -187
c-193 3 -423 3 -423 3z" />
    <glyph glyph-name="Nacute" unicode="&#x143;" horiz-adv-x="611" 
d="M323 731c-63 45 -95 62 -95 62c87 115 116 162 116 162c77 -55 118 -80 118 -80c-110 -110 -139 -144 -139 -144zM31 17c0 0 3 248 -3 653c0 0 95 5 205 8c0 0 55 -127 150 -333c-2 72 -8 187 -20 368c0 0 92 -2 203 -2c0 0 3 -269 17 -713c0 0 -82 -9 -203 -16
c0 0 -58 129 -155 328c2 -66 5 -159 12 -295c0 0 -92 2 -206 2z" />
    <glyph glyph-name="Ncaron" unicode="&#x147;" horiz-adv-x="611" 
d="M248 743c0 0 -34 32 -127 108c0 0 25 24 76 83c0 0 32 -27 110 -84c0 0 35 24 106 85c0 0 21 -23 76 -76c0 0 -43 -34 -120 -108c0 0 -33 0 -121 -8zM31 17c0 0 3 248 -3 653c0 0 95 5 205 8c0 0 55 -127 150 -333c-2 72 -8 187 -20 368c0 0 92 -2 203 -2
c0 0 3 -269 17 -713c0 0 -82 -9 -203 -16c0 0 -58 129 -155 328c2 -66 5 -159 12 -295c0 0 -92 2 -206 2z" />
    <glyph glyph-name="Ncommaaccent" unicode="&#x145;" horiz-adv-x="611" 
d="M388 -107c0 -51 -39 -102 -111 -148c-31 31 -47 44 -50 46c25 21 38 39 44 49c-28 8 -47 32 -47 61c0 39 33 69 83 69c48 0 81 -29 81 -77zM31 17c0 0 3 248 -3 653c0 0 95 5 205 8c0 0 55 -127 150 -333c-2 72 -8 187 -20 368c0 0 92 -2 203 -2c0 0 3 -269 17 -713
c0 0 -82 -9 -203 -16c0 0 -58 129 -155 328c2 -66 5 -159 12 -295c0 0 -92 2 -206 2z" />
    <glyph glyph-name="Ohungarumlaut" unicode="&#x150;" horiz-adv-x="636" 
d="M417 729c-65 39 -94 52 -94 52c77 119 104 169 104 169c81 -47 114 -63 114 -63c-98 -121 -124 -158 -124 -158zM246 735c-66 39 -94 50 -94 50c75 123 98 170 98 170c79 -46 115 -63 115 -63c-94 -120 -119 -157 -119 -157zM318 -19c-199 1 -302 126 -304 359
c-2 230 108 369 302 370c215 0 306 -137 306 -369c-2 -257 -120 -360 -304 -360zM319 143c42 0 66 35 66 201c0 163 -24 201 -68 201c-46 0 -67 -46 -67 -205c0 -153 23 -197 69 -197z" />
    <glyph glyph-name="Omacron" unicode="&#x14c;" horiz-adv-x="636" 
d="M171 760c0 0 1 32 -2 116c0 0 73 -1 296 2c0 0 -2 -32 -2 -116c0 0 -77 1 -292 -2zM318 -19c-199 1 -302 126 -304 359c-2 230 108 369 302 370c215 0 306 -137 306 -369c-2 -257 -120 -360 -304 -360zM319 143c42 0 66 35 66 201c0 163 -24 201 -68 201
c-46 0 -67 -46 -67 -205c0 -153 23 -197 69 -197z" />
    <glyph glyph-name="Racute" unicode="&#x154;" horiz-adv-x="585" 
d="M302 746c-63 45 -95 62 -95 62c87 115 116 162 116 162c77 -55 118 -80 118 -80c-110 -110 -139 -144 -139 -144zM366 -23c0 0 -33 90 -93 234c0 0 -17 -2 -32 -2l4 -200s-110 1 -217 -1c0 0 5 262 4 683c80 16 152 24 215 24c214 0 331 -92 330 -259
c0 -99 -42 -160 -110 -197c22 -49 62 -133 124 -260c0 0 -89 -8 -225 -22zM241 352c71 -4 118 20 118 94c0 58 -30 100 -92 100c-9 0 -18 -1 -29 -3c2 -105 3 -191 3 -191z" />
    <glyph glyph-name="Rcaron" unicode="&#x158;" horiz-adv-x="585" 
d="M222 746c0 0 -34 32 -127 108c0 0 25 24 76 83c0 0 32 -27 110 -84c0 0 35 24 106 85c0 0 21 -23 76 -76c0 0 -43 -34 -120 -108c0 0 -33 0 -121 -8zM366 -23c0 0 -33 90 -93 234c0 0 -17 -2 -32 -2l4 -200s-110 1 -217 -1c0 0 5 262 4 683c80 16 152 24 215 24
c214 0 331 -92 330 -259c0 -99 -42 -160 -110 -197c22 -49 62 -133 124 -260c0 0 -89 -8 -225 -22zM241 352c71 -4 118 20 118 94c0 58 -30 100 -92 100c-9 0 -18 -1 -29 -3c2 -105 3 -191 3 -191z" />
    <glyph glyph-name="Rcommaaccent" unicode="&#x156;" horiz-adv-x="585" 
d="M362 -110c0 -51 -39 -102 -111 -148c-31 31 -47 44 -50 46c25 21 38 39 44 49c-28 8 -47 32 -47 61c0 39 33 69 83 69c48 0 81 -29 81 -77zM366 -23c0 0 -33 90 -93 234c0 0 -17 -2 -32 -2l4 -200s-110 1 -217 -1c0 0 5 262 4 683c80 16 152 24 215 24
c214 0 331 -92 330 -259c0 -99 -42 -160 -110 -197c22 -49 62 -133 124 -260c0 0 -89 -8 -225 -22zM241 352c71 -4 118 20 118 94c0 58 -30 100 -92 100c-9 0 -18 -1 -29 -3c2 -105 3 -191 3 -191z" />
    <glyph glyph-name="Sacute" unicode="&#x15a;" horiz-adv-x="588" 
d="M317 741c-63 45 -95 62 -95 62c87 115 116 162 116 162c77 -55 118 -80 118 -80c-110 -110 -139 -144 -139 -144zM298 -17c-194 0 -289 96 -292 263c0 0 86 -2 228 2c1 -67 21 -106 65 -106c31 0 48 15 48 54c0 36 -23 56 -129 85c-133 36 -204 96 -204 227
c0 138 113 204 275 204c181 1 280 -93 283 -265c0 0 -95 6 -221 7c3 70 -19 99 -55 99c-32 0 -50 -21 -50 -55c0 -42 34 -69 115 -87c165 -38 223 -95 222 -213c0 -146 -115 -215 -285 -215z" />
    <glyph glyph-name="Scedilla" unicode="&#x15e;" horiz-adv-x="588" 
d="M347 196c0 36 -23 56 -129 85c-133 36 -204 96 -204 227c0 138 113 204 275 204c181 1 280 -93 283 -265c0 0 -95 6 -221 7c3 70 -19 99 -55 99c-32 0 -50 -21 -50 -55c0 -42 34 -69 115 -87c165 -38 223 -95 222 -213c0 -134 -97 -203 -245 -214v-30
c77 -2 117 -34 117 -82c0 -59 -57 -99 -161 -99c-31 0 -70 6 -102 17c0 0 6 34 11 78c27 -12 57 -19 83 -19c24 0 40 8 40 22c0 16 -23 27 -85 23c0 0 9 38 17 91c-167 12 -249 106 -252 261c0 0 86 -2 228 2c1 -67 21 -106 65 -106c31 0 48 15 48 54z" />
    <glyph glyph-name="Scircumflex" unicode="&#x15c;" horiz-adv-x="588" 
d="M185 732c0 0 -21 24 -76 76c0 0 44 34 121 109c0 0 32 -1 121 7c0 0 33 -32 126 -107c0 0 -25 -24 -75 -84c0 0 -32 28 -110 84c0 0 -36 -23 -107 -85zM298 -17c-194 0 -289 96 -292 263c0 0 86 -2 228 2c1 -67 21 -106 65 -106c31 0 48 15 48 54c0 36 -23 56 -129 85
c-133 36 -204 96 -204 227c0 138 113 204 275 204c181 1 280 -93 283 -265c0 0 -95 6 -221 7c3 70 -19 99 -55 99c-32 0 -50 -21 -50 -55c0 -42 34 -69 115 -87c165 -38 223 -95 222 -213c0 -146 -115 -215 -285 -215z" />
    <glyph glyph-name="Scommaaccent" unicode="&#x218;" horiz-adv-x="588" 
d="M376 -115c0 -51 -39 -102 -111 -148c-31 31 -47 44 -50 46c25 21 38 39 44 49c-28 8 -47 32 -47 61c0 39 33 69 83 69c48 0 81 -29 81 -77zM298 -17c-194 0 -289 96 -292 263c0 0 86 -2 228 2c1 -67 21 -106 65 -106c31 0 48 15 48 54c0 36 -23 56 -129 85
c-133 36 -204 96 -204 227c0 138 113 204 275 204c181 1 280 -93 283 -265c0 0 -95 6 -221 7c3 70 -19 99 -55 99c-32 0 -50 -21 -50 -55c0 -42 34 -69 115 -87c165 -38 223 -95 222 -213c0 -146 -115 -215 -285 -215z" />
    <glyph glyph-name="Tcaron" unicode="&#x164;" horiz-adv-x="513" 
d="M200 731c0 0 -34 32 -127 108c0 0 25 24 76 83c0 0 32 -27 110 -84c0 0 35 24 106 85c0 0 21 -23 76 -76c0 0 -43 -34 -120 -108c0 0 -33 0 -121 -8zM8 496c0 0 1 70 -1 199c0 0 277 -1 499 2c0 0 -3 -90 -2 -201c0 0 -61 0 -139 1c0 -116 1 -274 4 -500
c0 0 -89 1 -219 -1c0 0 0 193 -2 501z" />
    <glyph glyph-name="Tcommaaccent" unicode="&#x162;" horiz-adv-x="513" 
d="M340 -107c0 -51 -39 -102 -111 -148c-31 31 -47 44 -50 46c25 21 38 39 44 49c-28 8 -47 32 -47 61c0 39 33 69 83 69c48 0 81 -29 81 -77zM8 496c0 0 1 70 -1 199c0 0 277 -1 499 2c0 0 -3 -90 -2 -201c0 0 -61 0 -139 1c0 -116 1 -274 4 -500c0 0 -89 1 -219 -1
c0 0 0 193 -2 501z" />
    <glyph glyph-name="Ubreve" unicode="&#x16c;" horiz-adv-x="591" 
d="M300 -14c-193 0 -286 129 -286 420c0 87 8 185 25 282c0 0 65 -11 211 -27c-12 -91 -18 -168 -18 -238c0 -178 23 -242 61 -242s59 38 59 215c0 91 -7 199 -21 306c0 0 75 1 218 12c18 -109 28 -223 28 -324c0 -271 -87 -404 -277 -404zM292 738c-121 0 -166 68 -161 146
c0 0 42 0 125 5c-2 -29 11 -50 39 -50c22 0 42 15 34 59c0 0 39 -1 128 1c11 -117 -72 -161 -165 -161z" />
    <glyph glyph-name="Uhungarumlaut" unicode="&#x170;" horiz-adv-x="591" 
d="M300 -14c-193 0 -286 129 -286 420c0 87 8 185 25 282c0 0 65 -11 211 -27c-12 -91 -18 -168 -18 -238c0 -178 23 -242 61 -242s59 38 59 215c0 91 -7 199 -21 306c0 0 75 1 218 12c18 -109 28 -223 28 -324c0 -271 -87 -404 -277 -404zM394 735c-65 39 -94 52 -94 52
c77 119 104 169 104 169c81 -47 114 -63 114 -63c-98 -121 -124 -158 -124 -158zM223 741c-66 39 -94 50 -94 50c75 123 98 170 98 170c79 -46 115 -63 115 -63c-94 -120 -119 -157 -119 -157z" />
    <glyph glyph-name="Umacron" unicode="&#x16a;" horiz-adv-x="591" 
d="M300 -14c-193 0 -286 129 -286 420c0 87 8 185 25 282c0 0 65 -11 211 -27c-12 -91 -18 -168 -18 -238c0 -178 23 -242 61 -242s59 38 59 215c0 91 -7 199 -21 306c0 0 75 1 218 12c18 -109 28 -223 28 -324c0 -271 -87 -404 -277 -404zM149 766c0 0 1 32 -2 116
c0 0 73 -1 296 2c0 0 -2 -32 -2 -116c0 0 -77 1 -292 -2z" />
    <glyph glyph-name="Uogonek" unicode="&#x172;" horiz-adv-x="591" 
d="M380 -216c-119 -12 -178 32 -179 104c0 36 18 73 54 101c-162 19 -241 149 -241 417c0 87 8 185 25 282c0 0 65 -11 211 -27c-12 -91 -18 -168 -18 -238c0 -178 23 -242 61 -242s59 38 59 215c0 91 -7 199 -21 306c0 0 75 1 218 12c18 -109 28 -223 28 -324
c0 -246 -72 -379 -228 -400c-21 -17 -31 -36 -31 -52c0 -26 22 -43 72 -42c0 0 -6 -34 -10 -112z" />
    <glyph glyph-name="Uring" unicode="&#x16e;" horiz-adv-x="591" 
d="M293 737c-80 0 -121 47 -121 105c0 66 54 102 122 102c79 0 124 -46 124 -102c0 -77 -60 -105 -125 -105zM296 798c24 0 39 18 39 44c0 23 -14 45 -39 45c-27 0 -40 -21 -40 -45c0 -25 16 -44 40 -44zM300 -14c-193 0 -286 129 -286 420c0 87 8 185 25 282
c0 0 65 -11 211 -27c-12 -91 -18 -168 -18 -238c0 -178 23 -242 61 -242s59 38 59 215c0 91 -7 199 -21 306c0 0 75 1 218 12c18 -109 28 -223 28 -324c0 -271 -87 -404 -277 -404z" />
    <glyph glyph-name="Zacute" unicode="&#x179;" horiz-adv-x="511" 
d="M278 725c-63 45 -95 62 -95 62c87 115 116 162 116 162c77 -55 118 -80 118 -80c-110 -110 -139 -144 -139 -144zM492 -4c-311 7 -476 7 -476 7c2 129 1 184 1 184c105 138 182 242 232 310c-140 -2 -226 -6 -226 -6c0 149 -1 201 -1 201c300 3 465 7 465 7
c4 -119 3 -197 3 -197c-102 -135 -182 -241 -233 -311c141 -3 237 -2 237 -2c-4 -151 -2 -193 -2 -193z" />
    <glyph glyph-name="Zdotaccent" unicode="&#x17b;" horiz-adv-x="511" 
d="M492 -4c-311 7 -476 7 -476 7c2 129 1 184 1 184c105 138 182 242 232 310c-140 -2 -226 -6 -226 -6c0 149 -1 201 -1 201c300 3 465 7 465 7c4 -119 3 -197 3 -197c-102 -135 -182 -241 -233 -311c141 -3 237 -2 237 -2c-4 -151 -2 -193 -2 -193zM256 742
c-68 0 -99 46 -99 93s36 89 99 89c67 0 99 -47 99 -90c0 -61 -43 -92 -99 -92z" />
    <glyph glyph-name="abreve" unicode="&#x103;" horiz-adv-x="537" 
d="M183 -17c-103 0 -176 55 -176 146c0 112 80 170 249 169c14 0 29 -1 44 -2v15c-2 48 -13 66 -36 66c-25 0 -37 -22 -40 -59c0 0 -75 1 -198 4c5 114 95 194 243 194c178 0 243 -86 248 -232c3 -147 -1 -297 -1 -297s-70 -1 -177 -2c0 0 3 30 5 73
c-32 -55 -97 -75 -161 -75zM258 113c32 1 52 20 51 96v8c-65 -1 -90 -30 -90 -62c0 -25 13 -42 39 -42zM268 547c-121 0 -166 68 -161 146c0 0 42 0 125 5c-2 -29 11 -50 39 -50c22 0 42 15 34 59c0 0 39 -1 128 1c11 -117 -72 -161 -165 -161z" />
    <glyph glyph-name="amacron" unicode="&#x101;" horiz-adv-x="537" 
d="M183 -17c-103 0 -176 55 -176 146c0 112 80 170 249 169c14 0 29 -1 44 -2v15c-2 48 -13 66 -36 66c-25 0 -37 -22 -40 -59c0 0 -75 1 -198 4c5 114 95 194 243 194c178 0 243 -86 248 -232c3 -147 -1 -297 -1 -297s-70 -1 -177 -2c0 0 3 30 5 73
c-32 -55 -97 -75 -161 -75zM258 113c32 1 52 20 51 96v8c-65 -1 -90 -30 -90 -62c0 -25 13 -42 39 -42zM124 565c0 0 1 32 -2 116c0 0 73 -1 296 2c0 0 -2 -32 -2 -116c0 0 -77 1 -292 -2z" />
    <glyph glyph-name="aogonek" unicode="&#x105;" horiz-adv-x="537" 
d="M183 -17c-103 0 -176 55 -176 146c0 110 80 169 239 169c17 0 35 -1 54 -2v15c-2 48 -13 66 -36 66c-25 0 -37 -22 -40 -59c0 0 -75 1 -198 4c5 114 95 194 243 194c178 0 243 -86 248 -232c3 -147 -1 -297 -1 -297s-37 -1 -94 -1c-21 -17 -32 -37 -32 -52
c0 -26 22 -43 72 -42c0 0 -6 -34 -10 -112c-119 -13 -179 31 -179 104c0 40 23 79 67 109l4 65c-32 -55 -97 -75 -161 -75zM258 113c32 1 52 20 51 96v8c-65 -1 -90 -30 -90 -62c0 -25 13 -42 39 -42z" />
    <glyph glyph-name="cacute" unicode="&#x107;" 
d="M299 539c-63 45 -95 62 -95 62c87 115 116 162 116 162c77 -55 118 -80 118 -80c-110 -110 -139 -144 -139 -144zM282 -14c-182 0 -268 97 -268 268c0 161 89 263 264 263c162 0 259 -100 257 -231c-95 3 -222 -2 -222 -2c1 54 -11 91 -39 91c-29 0 -41 -41 -41 -125
c0 -78 14 -112 41 -112c21 0 37 19 37 79c0 0 63 -4 227 -4c-12 -163 -123 -227 -256 -227z" />
    <glyph glyph-name="ccaron" unicode="&#x10d;" 
d="M220 541c0 0 -34 32 -127 108c0 0 25 24 76 83c0 0 32 -27 110 -84c0 0 35 24 106 85c0 0 21 -23 76 -76c0 0 -43 -34 -120 -108c0 0 -33 0 -121 -8zM282 -14c-182 0 -268 97 -268 268c0 161 89 263 264 263c162 0 259 -100 257 -231c-95 3 -222 -2 -222 -2
c1 54 -11 91 -39 91c-29 0 -41 -41 -41 -125c0 -78 14 -112 41 -112c21 0 37 19 37 79c0 0 63 -4 227 -4c-12 -163 -123 -227 -256 -227z" />
    <glyph glyph-name="ccircumflex" unicode="&#x109;" 
d="M169 529c0 0 -21 24 -76 76c0 0 44 34 121 109c0 0 32 -1 121 7c0 0 33 -32 126 -107c0 0 -25 -24 -75 -84c0 0 -32 28 -110 84c0 0 -36 -23 -107 -85zM282 -14c-182 0 -268 97 -268 268c0 161 89 263 264 263c162 0 259 -100 257 -231c-95 3 -222 -2 -222 -2
c1 54 -11 91 -39 91c-29 0 -41 -41 -41 -125c0 -78 14 -112 41 -112c21 0 37 19 37 79c0 0 63 -4 227 -4c-12 -163 -123 -227 -256 -227z" />
    <glyph glyph-name="dcaron" unicode="&#x10f;" horiz-adv-x="573" 
d="M741 611c0 -51 -39 -102 -111 -148c-31 31 -47 44 -50 46c25 21 38 39 44 49c-28 8 -47 32 -47 61c0 39 33 69 83 69c48 0 81 -29 81 -77zM545 -20c0 0 -100 2 -175 1c0 0 3 37 5 93c-31 -57 -89 -84 -149 -84c-125 0 -212 87 -212 270c0 149 66 255 195 255
c56 0 98 -27 126 -64c-1 52 -3 129 -8 237c0 0 42 -3 220 1c0 0 -4 -323 -2 -709zM290 122c27 0 51 23 51 133c0 76 -17 124 -52 124c-34 0 -49 -39 -49 -129c0 -91 21 -128 50 -128z" />
    <glyph glyph-name="ecaron" unicode="&#x11b;" horiz-adv-x="567" 
d="M227 540c0 0 -34 32 -127 108c0 0 25 24 76 83c0 0 32 -27 110 -84c0 0 35 24 106 85c0 0 21 -23 76 -76c0 0 -43 -34 -120 -108c0 0 -33 0 -121 -8zM290 -14c-208 0 -276 115 -276 270s96 261 267 261c212 -1 282 -126 272 -313c0 0 -112 0 -317 -2c5 -59 22 -82 52 -82
c22 0 39 14 45 52c0 0 83 -3 222 -7c-34 -121 -135 -179 -265 -179zM286 387c-32 0 -48 -23 -52 -95c30 0 62 1 99 3c-1 60 -14 92 -47 92z" />
    <glyph glyph-name="edotaccent" unicode="&#x117;" horiz-adv-x="567" 
d="M290 -14c-208 0 -276 115 -276 270s96 261 267 261c212 -1 282 -126 272 -313c0 0 -112 0 -317 -2c5 -59 22 -82 52 -82c22 0 39 14 45 52c0 0 83 -3 222 -7c-34 -121 -135 -179 -265 -179zM286 387c-32 0 -48 -23 -52 -95c30 0 62 1 99 3c-1 60 -14 92 -47 92zM284 552
c-68 0 -99 46 -99 93s36 89 99 89c67 0 99 -47 99 -90c0 -61 -43 -92 -99 -92z" />
    <glyph glyph-name="emacron" unicode="&#x113;" horiz-adv-x="567" 
d="M290 -14c-208 0 -276 115 -276 270s96 261 267 261c212 -1 282 -126 272 -313c0 0 -112 0 -317 -2c5 -59 22 -82 52 -82c22 0 39 14 45 52c0 0 83 -3 222 -7c-34 -121 -135 -179 -265 -179zM286 387c-32 0 -48 -23 -52 -95c30 0 62 1 99 3c-1 60 -14 92 -47 92zM138 568
c0 0 1 32 -2 116c0 0 73 -1 296 2c0 0 -2 -32 -2 -116c0 0 -77 1 -292 -2z" />
    <glyph glyph-name="eogonek" unicode="&#x119;" horiz-adv-x="567" 
d="M369 -216c-119 -12 -178 32 -179 104c0 36 18 72 54 100c-172 16 -230 125 -230 268c0 155 96 261 267 261c212 -1 282 -126 272 -313c0 0 -112 0 -317 -2c5 -59 22 -82 52 -82c22 0 39 14 45 52c0 0 83 -3 222 -7c-30 -106 -111 -164 -217 -176c-21 -17 -31 -35 -31 -51
c0 -26 22 -43 72 -42c0 0 -6 -34 -10 -112zM286 387c-32 0 -48 -23 -52 -95c30 0 62 1 99 3c-1 60 -14 92 -47 92z" />
    <glyph glyph-name="gbreve" unicode="&#x11f;" horiz-adv-x="524" 
d="M257 -281c-149 0 -254 40 -254 127c0 48 42 86 105 97c-45 18 -73 53 -73 89c0 43 35 77 87 99c-68 31 -111 90 -111 186c1 140 106 209 253 209c150 0 254 -64 254 -212c0 -151 -117 -211 -243 -211c-18 0 -36 1 -53 3c-3 -4 -4 -9 -4 -14c0 -12 15 -22 58 -24
c184 -7 263 -59 263 -163c0 -130 -142 -186 -282 -186zM264 196c26 0 41 23 41 97c0 63 -13 98 -41 98c-29 0 -44 -29 -44 -98c0 -70 17 -97 44 -97zM341 -128c0 27 -32 41 -93 43c-23 -12 -35 -28 -35 -45c0 -25 22 -40 63 -39c36 0 65 15 65 41zM269 560
c-121 0 -166 68 -161 146c0 0 42 0 125 5c-2 -29 11 -50 39 -50c22 0 42 15 34 59c0 0 39 -1 128 1c11 -117 -72 -161 -165 -161z" />
    <glyph glyph-name="gcircumflex" unicode="&#x11d;" horiz-adv-x="524" 
d="M257 -281c-149 0 -254 40 -254 127c0 48 42 86 105 97c-45 18 -73 53 -73 89c0 43 35 77 87 99c-68 31 -111 90 -111 186c1 140 106 209 253 209c150 0 254 -64 254 -212c0 -151 -117 -211 -243 -211c-18 0 -36 1 -53 3c-3 -4 -4 -9 -4 -14c0 -12 15 -22 58 -24
c184 -7 263 -59 263 -163c0 -130 -142 -186 -282 -186zM264 196c26 0 41 23 41 97c0 63 -13 98 -41 98c-29 0 -44 -29 -44 -98c0 -70 17 -97 44 -97zM341 -128c0 27 -32 41 -93 43c-23 -12 -35 -28 -35 -45c0 -25 22 -40 63 -39c36 0 65 15 65 41zM163 545
c0 0 -21 24 -76 76c0 0 44 34 121 109c0 0 32 -1 121 7c0 0 33 -32 126 -107c0 0 -25 -24 -75 -84c0 0 -32 28 -110 84c0 0 -36 -23 -107 -85z" />
    <glyph glyph-name="gcommaaccent" unicode="&#x123;" horiz-adv-x="524" 
d="M257 -281c-149 0 -254 40 -254 127c0 48 42 86 105 97c-45 18 -73 53 -73 89c0 43 35 77 87 99c-68 31 -111 90 -111 186c1 140 106 209 253 209c150 0 254 -64 254 -212c0 -151 -117 -211 -243 -211c-18 0 -36 1 -53 3c-3 -4 -4 -9 -4 -14c0 -12 15 -22 58 -24
c184 -7 263 -59 263 -163c0 -130 -142 -186 -282 -186zM264 196c26 0 41 23 41 97c0 63 -13 98 -41 98c-29 0 -44 -29 -44 -98c0 -70 17 -97 44 -97zM341 -128c0 27 -32 41 -93 43c-23 -12 -35 -28 -35 -45c0 -25 22 -40 63 -39c36 0 65 15 65 41zM189 636
c0 51 39 102 111 148c31 -31 47 -44 50 -46c-25 -21 -38 -39 -44 -49c28 -8 47 -32 47 -61c0 -39 -33 -69 -83 -69c-48 0 -81 29 -81 77z" />
    <glyph glyph-name="hcircumflex" unicode="&#x125;" horiz-adv-x="544" 
d="M22 698c0 0 -21 24 -76 76c0 0 44 34 121 109c0 0 32 -1 121 7c0 0 33 -32 126 -107c0 0 -25 -24 -75 -84c0 0 -32 28 -110 84c0 0 -36 -23 -107 -85zM24 18c0 0 6 294 2 661c0 0 70 -1 210 1c0 0 -3 -99 -2 -233c30 42 78 71 137 71c94 0 147 -70 151 -175
c5 -160 2 -361 2 -361s-83 2 -212 1c0 0 4 164 0 302c0 32 -10 49 -33 49c-27 0 -36 -17 -37 -52c-3 -129 -1 -263 -1 -263s-83 1 -217 -1z" />
    <glyph glyph-name="imacron" unicode="&#x12b;" horiz-adv-x="269" 
d="M30 1c0 0 1 134 -3 501c0 0 77 -1 213 1c0 0 0 -251 4 -501c0 0 -92 0 -214 -1zM-10 575c0 0 1 32 -2 116c0 0 73 -1 296 2c0 0 -2 -32 -2 -116c0 0 -77 1 -292 -2z" />
    <glyph glyph-name="iogonek" unicode="&#x12f;" horiz-adv-x="269" 
d="M30 1c0 0 1 134 -3 501c0 0 77 -1 213 1c0 0 0 -251 4 -501h-57c-33 -20 -50 -44 -50 -64c0 -26 22 -43 72 -42c0 0 -7 -34 -10 -112c-119 -12 -179 32 -179 104c-1 42 25 84 73 113h-63zM137 536c-87 0 -130 36 -130 108c0 63 44 102 130 102c84 0 125 -44 125 -103
c0 -62 -38 -107 -125 -107z" />
    <glyph glyph-name="jcircumflex" unicode="&#x135;" horiz-adv-x="269" 
d="M28 540c0 0 -21 24 -76 76c0 0 44 34 121 109c0 0 32 -1 121 7c0 0 33 -32 126 -107c0 0 -25 -24 -75 -84c0 0 -32 28 -110 84c0 0 -36 -23 -107 -85zM-91 -230c0 0 5 54 4 173c13 -1 24 -2 35 -2c60 0 82 28 83 88c3 174 -1 469 -1 469c142 -3 208 1 208 1
s8 -182 4 -495c-1 -155 -80 -239 -246 -239c-27 0 -56 1 -87 5z" />
    <glyph glyph-name="kcommaaccent" unicode="&#x137;" horiz-adv-x="556" 
d="M362 -114c0 -51 -39 -102 -111 -148c-31 31 -47 44 -50 46c25 21 38 39 44 49c-28 8 -47 32 -47 61c0 39 33 69 83 69c48 0 81 -29 81 -77zM328 -23c-21 71 -37 126 -50 165c-17 -27 -30 -49 -40 -66c0 -38 1 -61 1 -61c-135 4 -215 1 -215 1c5 487 1 665 1 665
c149 -4 215 -2 215 -2c-2 -163 -2 -269 -2 -367c44 130 68 209 68 209c152 -7 243 -9 243 -9c-55 -93 -94 -163 -118 -208c76 -199 125 -319 125 -319c-166 -3 -228 -8 -228 -8z" />
    <glyph glyph-name="lacute" unicode="&#x13a;" horiz-adv-x="267" 
d="M154 709c-63 45 -95 62 -95 62c87 115 116 162 116 162c77 -55 118 -80 118 -80c-110 -110 -139 -144 -139 -144zM240 11c-133 3 -213 2 -213 2c4 501 0 674 0 674c147 -5 214 -4 214 -4c-4 -524 -1 -672 -1 -672z" />
    <glyph glyph-name="lcaron" unicode="&#x13e;" horiz-adv-x="267" 
d="M435 609c0 -51 -39 -102 -111 -148c-31 31 -47 44 -50 46c25 21 38 39 44 49c-28 8 -47 32 -47 61c0 39 33 69 83 69c48 0 81 -29 81 -77zM240 11c-133 3 -213 2 -213 2c4 501 0 674 0 674c147 -5 214 -4 214 -4c-4 -524 -1 -672 -1 -672z" />
    <glyph glyph-name="lcommaaccent" unicode="&#x13c;" horiz-adv-x="267" 
d="M216 -107c0 -51 -39 -102 -111 -148c-31 31 -47 44 -50 46c25 21 38 39 44 49c-28 8 -47 32 -47 61c0 39 33 69 83 69c48 0 81 -29 81 -77zM240 11c-133 3 -213 2 -213 2c4 501 0 674 0 674c147 -5 214 -4 214 -4c-4 -524 -1 -672 -1 -672z" />
    <glyph glyph-name="nacute" unicode="&#x144;" 
d="M305 533c-63 45 -95 62 -95 62c87 115 116 162 116 162c77 -55 118 -80 118 -80c-110 -110 -139 -144 -139 -144zM310 -18c0 0 4 153 2 303c-1 31 -10 49 -34 49c-26 0 -35 -17 -37 -52c-3 -71 -1 -268 -1 -268s-118 2 -216 0c0 0 4 193 2 477c0 0 86 -2 166 1
c0 0 -2 -41 -1 -79c29 59 97 105 170 104c98 -1 156 -63 160 -178c3 -79 2 -356 2 -356c-61 1 -213 -1 -213 -1z" />
    <glyph glyph-name="ncaron" unicode="&#x148;" 
d="M225 539c0 0 -34 32 -127 108c0 0 25 24 76 83c0 0 32 -27 110 -84c0 0 35 24 106 85c0 0 21 -23 76 -76c0 0 -43 -34 -120 -108c0 0 -33 0 -121 -8zM310 -18c0 0 4 153 2 303c-1 31 -10 49 -34 49c-26 0 -35 -17 -37 -52c-3 -71 -1 -268 -1 -268s-118 2 -216 0
c0 0 4 193 2 477c0 0 86 -2 166 1c0 0 -2 -41 -1 -79c29 59 97 105 170 104c98 -1 156 -63 160 -178c3 -79 2 -356 2 -356c-61 1 -213 -1 -213 -1z" />
    <glyph glyph-name="ncommaaccent" unicode="&#x146;" 
d="M365 -115c0 -51 -39 -102 -111 -148c-31 31 -47 44 -50 46c25 21 38 39 44 49c-28 8 -47 32 -47 61c0 39 33 69 83 69c48 0 81 -29 81 -77zM310 -18c0 0 4 153 2 303c-1 31 -10 49 -34 49c-26 0 -35 -17 -37 -52c-3 -71 -1 -268 -1 -268s-118 2 -216 0c0 0 4 193 2 477
c0 0 86 -2 166 1c0 0 -2 -41 -1 -79c29 59 97 105 170 104c98 -1 156 -63 160 -178c3 -79 2 -356 2 -356c-61 1 -213 -1 -213 -1z" />
    <glyph glyph-name="ohungarumlaut" unicode="&#x151;" horiz-adv-x="571" 
d="M384 538c-65 39 -94 52 -94 52c77 119 104 169 104 169c81 -47 114 -63 114 -63c-98 -121 -124 -158 -124 -158zM213 544c-66 39 -94 50 -94 50c75 123 98 170 98 170c79 -46 115 -63 115 -63c-94 -120 -119 -157 -119 -157zM284 -10c-176 0 -270 96 -270 273
c0 162 106 254 270 254c176 0 274 -100 273 -262c0 -194 -119 -265 -273 -265zM287 122c30 0 48 21 48 134c0 98 -16 127 -49 127c-32 0 -50 -28 -50 -121c0 -111 14 -140 51 -140z" />
    <glyph glyph-name="omacron" unicode="&#x14d;" horiz-adv-x="571" 
d="M140 567c0 0 1 32 -2 116c0 0 73 -1 296 2c0 0 -2 -32 -2 -116c0 0 -77 1 -292 -2zM284 -10c-176 0 -270 96 -270 273c0 162 106 254 270 254c176 0 274 -100 273 -262c0 -194 -119 -265 -273 -265zM287 122c30 0 48 21 48 134c0 98 -16 127 -49 127
c-32 0 -50 -28 -50 -121c0 -111 14 -140 51 -140z" />
    <glyph glyph-name="racute" unicode="&#x155;" horiz-adv-x="396" 
d="M254 529c-63 45 -95 62 -95 62c87 115 116 162 116 162c77 -55 118 -80 118 -80c-110 -110 -139 -144 -139 -144zM26 -2c0 0 1 262 -2 501c0 0 50 -1 174 1c0 0 -2 -37 -2 -85c32 67 108 112 198 102c0 0 -4 -71 -6 -203c-120 -2 -146 -36 -149 -148
c-1 -56 1 -167 1 -167s-70 1 -214 -1z" />
    <glyph glyph-name="rcaron" unicode="&#x159;" horiz-adv-x="396" 
d="M173 539c0 0 -34 32 -127 108c0 0 25 24 76 83c0 0 32 -27 110 -84c0 0 35 24 106 85c0 0 21 -23 76 -76c0 0 -43 -34 -120 -108c0 0 -33 0 -121 -8zM26 -2c0 0 1 262 -2 501c0 0 50 -1 174 1c0 0 -2 -37 -2 -85c32 67 108 112 198 102c0 0 -4 -71 -6 -203
c-120 -2 -146 -36 -149 -148c-1 -56 1 -167 1 -167s-70 1 -214 -1z" />
    <glyph glyph-name="rcommaaccent" unicode="&#x157;" horiz-adv-x="396" 
d="M217 -107c0 -51 -39 -102 -111 -148c-31 31 -47 44 -50 46c25 21 38 39 44 49c-28 8 -47 32 -47 61c0 39 33 69 83 69c48 0 81 -29 81 -77zM26 -2c0 0 1 262 -2 501c0 0 50 -1 174 1c0 0 -2 -37 -2 -85c32 67 108 112 198 102c0 0 -4 -71 -6 -203
c-120 -2 -146 -36 -149 -148c-1 -56 1 -167 1 -167s-70 1 -214 -1z" />
    <glyph glyph-name="sacute" unicode="&#x15b;" horiz-adv-x="504" 
d="M275 543c-63 45 -95 62 -95 62c87 115 116 162 116 162c77 -55 118 -80 118 -80c-110 -110 -139 -144 -139 -144zM263 -23c-154 0 -253 63 -260 207c0 0 60 0 203 -3c2 -38 17 -61 51 -61c25 0 39 10 39 30c0 21 -19 35 -97 49c-109 21 -185 58 -185 161
c0 100 93 165 234 165c162 0 248 -86 251 -205c0 0 -72 3 -195 -3c-3 36 -17 61 -47 61c-24 0 -37 -13 -37 -29c0 -22 21 -40 91 -52c151 -27 190 -77 190 -152c0 -115 -101 -168 -238 -168z" />
    <glyph glyph-name="scedilla" unicode="&#x15f;" horiz-adv-x="504" 
d="M296 150c0 21 -19 35 -97 49c-109 20 -185 58 -185 161c0 100 93 165 234 165c162 0 248 -86 251 -205c0 0 -72 3 -195 -3c-3 36 -17 61 -47 61c-24 0 -37 -13 -37 -29c0 -22 21 -40 91 -52c151 -27 190 -77 190 -152c0 -105 -85 -158 -204 -167v-30
c77 -2 117 -34 117 -82c0 -59 -57 -99 -161 -99c-31 0 -70 6 -102 17c0 0 6 34 11 78c27 -12 57 -19 83 -19c24 0 40 8 40 22c0 16 -23 27 -85 23c0 0 9 39 17 91c-128 12 -208 75 -214 205c0 0 60 0 203 -3c2 -38 17 -61 51 -61c25 0 39 10 39 30z" />
    <glyph glyph-name="scircumflex" unicode="&#x15d;" horiz-adv-x="504" 
d="M145 536c0 0 -21 24 -76 76c0 0 44 34 121 109c0 0 32 -1 121 7c0 0 33 -32 126 -107c0 0 -25 -24 -75 -84c0 0 -32 28 -110 84c0 0 -36 -23 -107 -85zM263 -23c-154 0 -253 63 -260 207c0 0 60 0 203 -3c2 -38 17 -61 51 -61c25 0 39 10 39 30c0 21 -19 35 -97 49
c-109 21 -185 58 -185 161c0 100 93 165 234 165c162 0 248 -86 251 -205c0 0 -72 3 -195 -3c-3 36 -17 61 -47 61c-24 0 -37 -13 -37 -29c0 -22 21 -40 91 -52c151 -27 190 -77 190 -152c0 -115 -101 -168 -238 -168z" />
    <glyph glyph-name="scommaaccent" unicode="&#x219;" horiz-adv-x="504" 
d="M336 -122c0 -51 -39 -102 -111 -148c-31 31 -47 44 -50 46c25 21 38 39 44 49c-28 8 -47 32 -47 61c0 39 33 69 83 69c48 0 81 -29 81 -77zM263 -23c-154 0 -253 63 -260 207c0 0 60 0 203 -3c2 -38 17 -61 51 -61c25 0 39 10 39 30c0 21 -19 35 -97 49
c-109 21 -185 58 -185 161c0 100 93 165 234 165c162 0 248 -86 251 -205c0 0 -72 3 -195 -3c-3 36 -17 61 -47 61c-24 0 -37 -13 -37 -29c0 -22 21 -40 91 -52c151 -27 190 -77 190 -152c0 -115 -101 -168 -238 -168z" />
    <glyph glyph-name="tcaron" unicode="&#x165;" horiz-adv-x="417" 
d="M476 685c0 -51 -39 -102 -111 -148c-31 31 -47 44 -50 46c25 21 38 39 44 49c-28 8 -47 32 -47 61c0 39 33 69 83 69c48 0 81 -29 81 -77zM405 15c-55 -12 -103 -18 -146 -18c-116 0 -188 60 -190 206c-1 47 -1 93 -1 139c-37 -1 -63 -1 -63 -1c1 133 -2 169 -2 169
c23 -1 45 -1 66 -1c1 76 2 127 2 127c130 -1 210 1 210 1s-2 -55 -3 -130h118c-3 -140 -1 -167 -1 -167l-117 2c0 -33 1 -66 2 -96c2 -40 22 -57 64 -57c14 0 29 2 48 5c7 -113 13 -179 13 -179z" />
    <glyph glyph-name="tcommaaccent" unicode="&#x163;" horiz-adv-x="417" 
d="M332 -107c0 -51 -39 -102 -111 -148c-31 31 -47 44 -50 46c25 21 38 39 44 49c-28 8 -47 32 -47 61c0 39 33 69 83 69c48 0 81 -29 81 -77zM405 15c-55 -12 -103 -18 -146 -18c-116 0 -188 60 -190 206c-1 47 -1 93 -1 139c-37 -1 -63 -1 -63 -1c1 133 -2 169 -2 169
c23 -1 45 -1 66 -1c1 76 2 127 2 127c130 -1 210 1 210 1s-2 -55 -3 -130h118c-3 -140 -1 -167 -1 -167l-117 2c0 -33 1 -66 2 -96c2 -40 22 -57 64 -57c14 0 29 2 48 5c7 -113 13 -179 13 -179z" />
    <glyph glyph-name="ubreve" unicode="&#x16d;" 
d="M203 -4c-134 0 -184 92 -184 304c0 70 4 138 13 208c0 0 49 -7 201 -15c-5 -46 -6 -99 -6 -137c0 -153 14 -188 44 -188c20 0 32 15 34 56c6 151 -3 291 -3 291s52 -3 213 -3c0 0 -2 -205 2 -526c0 0 -49 3 -171 1c0 0 1 41 1 94c-29 -55 -85 -85 -144 -85zM266 548
c-121 0 -166 68 -161 146c0 0 42 0 125 5c-2 -29 11 -50 39 -50c22 0 42 15 34 59c0 0 39 -1 128 1c11 -117 -72 -161 -165 -161z" />
    <glyph glyph-name="uhungarumlaut" unicode="&#x171;" 
d="M203 -4c-134 0 -184 92 -184 304c0 70 4 138 13 208c0 0 49 -7 201 -15c-5 -46 -6 -99 -6 -137c0 -153 14 -188 44 -188c20 0 32 15 34 56c6 151 -3 291 -3 291s52 -3 213 -3c0 0 -2 -205 2 -526c0 0 -49 3 -171 1c0 0 1 41 1 94c-29 -55 -85 -85 -144 -85zM366 540
c-65 39 -94 52 -94 52c77 119 104 169 104 169c81 -47 114 -63 114 -63c-98 -121 -124 -158 -124 -158zM195 546c-66 39 -94 50 -94 50c75 123 98 170 98 170c79 -46 115 -63 115 -63c-94 -120 -119 -157 -119 -157z" />
    <glyph glyph-name="umacron" unicode="&#x16b;" 
d="M203 -4c-134 0 -184 92 -184 304c0 70 4 138 13 208c0 0 49 -7 201 -15c-5 -46 -6 -99 -6 -137c0 -153 14 -188 44 -188c20 0 32 15 34 56c6 151 -3 291 -3 291s52 -3 213 -3c0 0 -2 -205 2 -526c0 0 -49 3 -171 1c0 0 1 41 1 94c-29 -55 -85 -85 -144 -85zM122 572
c0 0 1 32 -2 116c0 0 73 -1 296 2c0 0 -2 -32 -2 -116c0 0 -77 1 -292 -2z" />
    <glyph glyph-name="uogonek" unicode="&#x173;" 
d="M203 -4c-134 0 -184 92 -184 304c0 70 4 138 13 208c0 0 49 -7 201 -15c-5 -46 -6 -99 -6 -137c0 -153 14 -188 44 -188c20 0 32 15 34 56c6 151 -3 291 -3 291s52 -3 213 -3c0 0 -2 -205 2 -526c0 0 -35 2 -88 2c-18 -16 -27 -34 -27 -48c0 -26 21 -43 71 -42
c0 0 -6 -34 -10 -112c-118 -13 -178 31 -179 104c0 39 21 77 62 106c1 12 1 42 1 85c-29 -55 -85 -85 -144 -85z" />
    <glyph glyph-name="uring" unicode="&#x16f;" 
d="M267 546c-80 0 -121 47 -121 105c0 66 54 102 122 102c79 0 124 -46 124 -102c0 -77 -60 -105 -125 -105zM270 607c24 0 39 18 39 44c0 23 -14 45 -39 45c-27 0 -40 -21 -40 -45c0 -25 16 -44 40 -44zM203 -4c-134 0 -184 92 -184 304c0 70 4 138 13 208
c0 0 49 -7 201 -15c-5 -46 -6 -99 -6 -137c0 -153 14 -188 44 -188c20 0 32 15 34 56c6 151 -3 291 -3 291s52 -3 213 -3c0 0 -2 -205 2 -526c0 0 -49 3 -171 1c0 0 1 41 1 94c-29 -55 -85 -85 -144 -85z" />
    <glyph glyph-name="zacute" unicode="&#x17a;" horiz-adv-x="471" 
d="M260 529c-63 45 -95 62 -95 62c87 115 116 162 116 162c77 -55 118 -80 118 -80c-110 -110 -139 -144 -139 -144zM455 0c-340 10 -441 8 -441 8c4 94 2 136 2 136c135 130 188 190 188 190c-133 -2 -180 -8 -180 -8c0 133 -4 177 -4 177c302 0 431 6 431 6
c-1 -108 2 -147 2 -147c-139 -136 -188 -193 -188 -193c123 -2 192 3 192 3c-4 -133 -2 -172 -2 -172z" />
    <glyph glyph-name="zdotaccent" unicode="&#x17c;" horiz-adv-x="471" 
d="M455 0c-340 10 -441 8 -441 8c4 94 2 136 2 136c135 130 188 190 188 190c-133 -2 -180 -8 -180 -8c0 133 -4 177 -4 177c302 0 431 6 431 6c-1 -108 2 -147 2 -147c-139 -136 -188 -193 -188 -193c123 -2 192 3 192 3c-4 -133 -2 -172 -2 -172zM236 546
c-68 0 -99 46 -99 93s36 89 99 89c67 0 99 -47 99 -90c0 -61 -43 -92 -99 -92z" />
    <glyph glyph-name="L_A" horiz-adv-x="988" 
d="M34 -10c0 0 0 329 -6 686c0 0 69 -3 216 0c0 0 -2 -91 4 -500c93 -2 136 -2 166 -2c25 121 63 307 108 532c170 6 322 5 322 5s64 -330 144 -719c0 0 -114 2 -231 0c0 0 -4 35 -15 110c-32 0 -75 1 -131 1c-4 -26 -7 -52 -10 -79c0 0 -66 1 -145 1c0 -19 1 -39 1 -39
c-193 4 -423 4 -423 4zM676 554c-9 -53 -25 -156 -44 -289c61 -1 87 0 87 0z" />
    <glyph glyph-name="L_Aacute" horiz-adv-x="988" 
d="M703 740c-63 45 -95 62 -95 62c87 115 116 162 116 162c77 -55 118 -80 118 -80c-110 -110 -139 -144 -139 -144zM34 -10c0 0 0 329 -6 686c0 0 69 -3 216 0c0 0 -2 -91 4 -500c93 -2 136 -2 166 -2c25 121 63 307 108 532c170 6 322 5 322 5s64 -330 144 -719
c0 0 -114 2 -231 0c0 0 -4 35 -15 110c-32 0 -75 1 -131 1c-4 -26 -7 -52 -10 -79c0 0 -66 1 -145 1c0 -19 1 -39 1 -39c-193 4 -423 4 -423 4zM676 554c-9 -53 -25 -156 -44 -289c61 -1 87 0 87 0z" />
    <glyph glyph-name="L_Abreve" horiz-adv-x="988" 
d="M34 -10c0 0 0 329 -6 686c0 0 69 -3 216 0c0 0 -2 -91 4 -500c93 -2 136 -2 166 -2c25 121 63 307 108 532c170 6 322 5 322 5s64 -330 144 -719c0 0 -114 2 -231 0c0 0 -4 35 -15 110c-32 0 -75 1 -131 1c-4 -26 -7 -52 -10 -79c0 0 -66 1 -145 1c0 -19 1 -39 1 -39
c-193 4 -423 4 -423 4zM676 554c-9 -53 -25 -156 -44 -289c61 -1 87 0 87 0zM676 753c-121 0 -166 68 -161 146c0 0 42 0 125 5c-2 -29 11 -50 39 -50c22 0 42 15 34 59c0 0 39 -1 128 1c11 -117 -72 -161 -165 -161z" />
    <glyph glyph-name="L_Acircumflex" horiz-adv-x="988" 
d="M570 733c0 0 -21 24 -76 76c0 0 44 34 121 109c0 0 32 -1 121 7c0 0 33 -32 126 -107c0 0 -25 -24 -75 -84c0 0 -32 28 -110 84c0 0 -36 -23 -107 -85zM34 -10c0 0 0 329 -6 686c0 0 69 -3 216 0c0 0 -2 -91 4 -500c93 -2 136 -2 166 -2c25 121 63 307 108 532
c170 6 322 5 322 5s64 -330 144 -719c0 0 -114 2 -231 0c0 0 -4 35 -15 110c-32 0 -75 1 -131 1c-4 -26 -7 -52 -10 -79c0 0 -66 1 -145 1c0 -19 1 -39 1 -39c-193 4 -423 4 -423 4zM676 554c-9 -53 -25 -156 -44 -289c61 -1 87 0 87 0z" />
    <glyph glyph-name="L_Adieresis" horiz-adv-x="988" 
d="M580 758c-59 0 -85 40 -85 84c0 47 37 80 86 80c55 0 84 -35 84 -81c0 -61 -42 -83 -85 -83zM781 761c-49 0 -82 33 -82 84c0 44 30 78 84 78c55 0 80 -37 80 -81c0 -54 -36 -81 -82 -81zM34 -10c0 0 0 329 -6 686c0 0 69 -3 216 0c0 0 -2 -91 4 -500
c93 -2 136 -2 166 -2c25 121 63 307 108 532c170 6 322 5 322 5s64 -330 144 -719c0 0 -114 2 -231 0c0 0 -4 35 -15 110c-32 0 -75 1 -131 1c-4 -26 -7 -52 -10 -79c0 0 -66 1 -145 1c0 -19 1 -39 1 -39c-193 4 -423 4 -423 4zM676 554c-9 -53 -25 -156 -44 -289
c61 -1 87 0 87 0z" />
    <glyph glyph-name="L_Agrave" horiz-adv-x="988" 
d="M34 -10c0 0 0 329 -6 686c0 0 69 -3 216 0c0 0 -2 -91 4 -500c93 -2 136 -2 166 -2c25 121 63 307 108 532c170 6 322 5 322 5s64 -330 144 -719c0 0 -114 2 -231 0c0 0 -4 35 -15 110c-32 0 -75 1 -131 1c-4 -26 -7 -52 -10 -79c0 0 -66 1 -145 1c0 -19 1 -39 1 -39
c-193 4 -423 4 -423 4zM676 554c-9 -53 -25 -156 -44 -289c61 -1 87 0 87 0zM670 740c0 0 -30 34 -140 144c0 0 40 25 117 81c0 0 30 -48 118 -163c0 0 -33 -17 -95 -62z" />
    <glyph glyph-name="L_Amacron" horiz-adv-x="988" 
d="M34 -10c0 0 0 329 -6 686c0 0 69 -3 216 0c0 0 -2 -91 4 -500c93 -2 136 -2 166 -2c25 121 63 307 108 532c170 6 322 5 322 5s64 -330 144 -719c0 0 -114 2 -231 0c0 0 -4 35 -15 110c-32 0 -75 1 -131 1c-4 -26 -7 -52 -10 -79c0 0 -66 1 -145 1c0 -19 1 -39 1 -39
c-193 4 -423 4 -423 4zM676 554c-9 -53 -25 -156 -44 -289c61 -1 87 0 87 0zM533 775c0 0 1 32 -2 116c0 0 73 -1 296 2c0 0 -2 -32 -2 -116c0 0 -77 1 -292 -2z" />
    <glyph glyph-name="L_Aogonek" horiz-adv-x="988" 
d="M851 -216c-119 -12 -178 32 -179 104c0 45 28 90 83 119l-13 95c-32 0 -75 1 -131 1c-4 -26 -7 -52 -10 -79c0 0 -66 1 -145 1c0 -19 1 -39 1 -39c-193 4 -423 4 -423 4s0 329 -6 686c0 0 69 -3 216 0c0 0 -2 -91 4 -500c93 -2 136 -2 166 -2c25 121 63 307 108 532
c170 6 322 5 322 5s64 -330 144 -719c0 0 -74 2 -163 1c-24 -18 -36 -38 -36 -55c0 -26 22 -43 72 -42c0 0 -6 -34 -10 -112zM676 554c-9 -53 -25 -156 -44 -289c61 -1 87 0 87 0z" />
    <glyph glyph-name="L_Aring" horiz-adv-x="988" 
d="M677 746c-80 0 -121 47 -121 105c0 66 54 102 122 102c79 0 124 -46 124 -102c0 -77 -60 -105 -125 -105zM680 807c24 0 39 18 39 44c0 23 -14 45 -39 45c-27 0 -40 -21 -40 -45c0 -25 16 -44 40 -44zM34 -10c0 0 0 329 -6 686c0 0 69 -3 216 0c0 0 -2 -91 4 -500
c93 -2 136 -2 166 -2c25 121 63 307 108 532c170 6 322 5 322 5s64 -330 144 -719c0 0 -114 2 -231 0c0 0 -4 35 -15 110c-32 0 -75 1 -131 1c-4 -26 -7 -52 -10 -79c0 0 -66 1 -145 1c0 -19 1 -39 1 -39c-193 4 -423 4 -423 4zM676 554c-9 -53 -25 -156 -44 -289
c61 -1 87 0 87 0z" />
    <glyph glyph-name="L_Atilde" horiz-adv-x="988" 
d="M34 -10c0 0 0 329 -6 686c0 0 69 -3 216 0c0 0 -2 -91 4 -500c93 -2 136 -2 166 -2c25 121 63 307 108 532c170 6 322 5 322 5s64 -330 144 -719c0 0 -114 2 -231 0c0 0 -4 35 -15 110c-32 0 -75 1 -131 1c-4 -26 -7 -52 -10 -79c0 0 -66 1 -145 1c0 -19 1 -39 1 -39
c-193 4 -423 4 -423 4zM676 554c-9 -53 -25 -156 -44 -289c61 -1 87 0 87 0zM602 757c0 0 -30 0 -102 -4c-6 94 28 168 107 168c58 0 86 -50 123 -50c19 0 31 10 27 45c0 0 31 0 95 6c18 -105 -18 -168 -91 -168c-69 0 -92 45 -130 45c-21 0 -32 -18 -29 -42z" />
    <glyph glyph-name="T_h" horiz-adv-x="1009" 
d="M701 697c0 0 -2 -112 -2 -250c29 42 78 71 137 71c94 0 147 -70 151 -175c5 -160 2 -361 2 -361s-83 2 -212 1c0 0 3 164 0 302c-1 32 -10 49 -33 49c-27 0 -37 -17 -37 -52c-4 -129 -1 -263 -1 -263s-83 1 -217 -1c0 0 6 128 2 483c0 0 -43 1 -126 0
c0 -116 1 -274 4 -504c0 0 -89 1 -219 -1c0 0 0 194 -2 503c-49 0 -98 -2 -140 -3c0 0 1 70 -1 199c0 0 471 -1 694 2z" />
    <glyph glyph-name="Pcircle" unicode="&#x24c5;" horiz-adv-x="704" 
d="M362 707c212 0 328 -121 328 -372c0 -230 -118 -356 -345 -356c-219 0 -331 135 -331 360c0 300 162 368 348 368zM356 647c-135 0 -276 -42 -276 -306c0 -187 75 -301 267 -301s276 109 276 302c0 204 -89 305 -267 305zM178 113c0 0 4 157 3 459c51 8 97 11 138 11
c164 0 247 -62 247 -192c0 -137 -99 -186 -228 -183l3 -95s-86 2 -163 0zM336 465c0 0 -1 -48 0 -153c50 0 74 16 74 76c0 54 -16 78 -57 78c-5 0 -11 0 -17 -1z" />
    <glyph glyph-name="Pcircle" unicode="&#x24df;" horiz-adv-x="704" 
d="M362 707c212 0 328 -121 328 -372c0 -230 -118 -356 -345 -356c-219 0 -331 135 -331 360c0 300 162 368 348 368zM356 647c-135 0 -276 -42 -276 -306c0 -187 75 -301 267 -301s276 109 276 302c0 204 -89 305 -267 305zM178 113c0 0 4 157 3 459c51 8 97 11 138 11
c164 0 247 -62 247 -192c0 -137 -99 -186 -228 -183l3 -95s-86 2 -163 0zM336 465c0 0 -1 -48 0 -153c50 0 74 16 74 76c0 54 -16 78 -57 78c-5 0 -11 0 -17 -1z" />
    <glyph glyph-name="servicemark" unicode="&#x2120;" horiz-adv-x="691" 
d="M299 388c0 0 9 118 7 287c0 0 72 -2 161 2c0 0 7 -73 19 -159c5 49 11 112 16 182c0 0 83 -5 159 -5c0 0 4 -124 18 -321c0 0 -55 0 -111 -4c0 0 1 105 -6 249c-6 -47 -14 -120 -20 -200c0 0 -70 0 -109 2c0 0 -5 73 -27 197c0 -47 0 -139 5 -234c0 0 -44 4 -112 4z
M151 364c-89 0 -140 42 -142 124c0 0 42 -2 111 -1c1 -39 12 -49 30 -49c15 0 22 10 22 26c0 17 -10 28 -63 41c-61 15 -92 44 -92 101c0 64 48 99 130 99c91 0 135 -48 136 -124c0 0 -43 3 -104 3c2 32 -5 46 -23 46c-13 0 -25 -6 -25 -26c0 -21 18 -32 60 -41
c78 -16 97 -48 97 -94c0 -67 -55 -105 -137 -105z" />
    <glyph glyph-name="zero.numerator" horiz-adv-x="416" 
d="M207 297c-129 0 -197 76 -197 216c0 142 76 209 197 209c136 0 199 -69 199 -208c0 -152 -80 -217 -199 -217zM207 400c24 0 41 17 41 117c0 81 -18 105 -39 105c-26 0 -42 -22 -42 -111c0 -83 17 -111 40 -111z" />
    <glyph glyph-name="one.numerator" horiz-adv-x="291" 
d="M102 312c1 129 1 199 1 237c-34 -14 -61 -26 -61 -26c-21 73 -40 125 -40 125c84 38 149 70 149 70c49 -6 100 -9 100 -9c0 -205 4 -396 4 -396c-83 0 -153 -1 -153 -1z" />
    <glyph glyph-name="two.numerator" horiz-adv-x="379" 
d="M361 313c-208 5 -344 4 -344 4c-4 70 -5 135 -5 135c125 29 208 78 208 138c0 26 -11 37 -28 37c-28 0 -42 -23 -37 -87c0 0 -64 2 -147 0c-11 124 60 188 189 188c109 0 175 -51 175 -132s-75 -141 -178 -171c91 3 167 9 167 9v-121z" />
    <glyph glyph-name="three.numerator" horiz-adv-x="405" 
d="M205 298c-140 0 -205 56 -199 163c0 0 66 -4 156 -7c-1 -36 16 -54 41 -54c22 0 39 10 39 33c0 17 -8 28 -25 34c-20 6 -61 7 -91 5c0 0 0 30 -3 85c31 -3 69 -1 88 5c18 6 29 15 29 33c0 24 -17 33 -36 33c-24 0 -44 -15 -41 -54c-79 0 -154 -1 -154 -1
c-7 108 74 156 198 156c112 0 183 -47 183 -122c0 -48 -31 -78 -73 -88c50 -11 80 -50 80 -94c0 -83 -85 -127 -192 -127z" />
    <glyph glyph-name="four.numerator" horiz-adv-x="410" 
d="M224 313l1 67l-217 -3s-1 27 -3 110c89 154 134 235 134 235c145 -7 227 -5 227 -5c-1 -101 -1 -170 -1 -233c13 0 37 1 37 1s-1 -35 -1 -105h-35c0 -43 1 -66 1 -66c-95 -2 -143 -1 -143 -1zM144 484h82v151c-41 -72 -69 -125 -82 -151z" />
    <glyph glyph-name="five.numerator" horiz-adv-x="406" 
d="M204 301c-127 0 -188 55 -191 151c82 -2 151 -2 151 -2c2 -37 17 -55 41 -55c22 0 38 15 38 51c0 42 -13 58 -39 58c-22 0 -34 -16 -38 -38c0 0 -64 6 -148 10c0 0 4 107 5 240c0 0 137 0 352 4c0 0 -1 -30 -1 -110c0 0 -86 1 -213 -2v-56c22 20 57 33 93 33
c98 0 144 -63 144 -135c0 -107 -90 -149 -194 -149z" />
    <glyph glyph-name="six.numerator" horiz-adv-x="419" 
d="M214 299c-128 0 -204 74 -204 212c0 135 73 216 205 216c114 0 182 -54 187 -138c-90 2 -155 -1 -155 -1c-4 24 -16 39 -33 39c-25 0 -46 -19 -48 -93c26 23 67 37 109 37c88 0 134 -47 134 -120c0 -104 -91 -152 -195 -152zM216 489c-18 0 -34 -7 -48 -17
c6 -54 24 -73 49 -73c20 0 38 11 38 47c0 27 -15 43 -39 43z" />
    <glyph glyph-name="seven.numerator" horiz-adv-x="345" 
d="M70 308c-3 125 34 222 106 283c-89 0 -171 -3 -171 -3c2 76 2 128 2 128c223 2 332 5 332 5c-2 -100 1 -134 1 -134c-80 -66 -117 -155 -113 -284c-97 5 -157 5 -157 5z" />
    <glyph glyph-name="eight.numerator" horiz-adv-x="422" 
d="M217 300c-134 0 -209 47 -209 125c0 42 25 77 78 89c-44 19 -68 54 -68 98c0 71 69 118 196 118c124 0 195 -46 195 -119c0 -43 -25 -77 -68 -93c44 -13 73 -46 73 -90c0 -89 -88 -128 -197 -128zM213 395c25 0 43 13 43 36c0 24 -21 39 -49 46c-31 -9 -44 -24 -44 -44
c0 -25 20 -38 50 -38zM219 550c22 9 37 27 37 47c0 23 -17 37 -45 37c-30 0 -44 -14 -44 -34c0 -22 21 -42 52 -50z" />
    <glyph glyph-name="nine.numerator" horiz-adv-x="413" 
d="M201 301c-111 0 -183 54 -189 153c87 -6 152 -6 152 -6c1 -30 18 -46 41 -46c28 0 44 19 46 90c-24 -17 -62 -26 -93 -26c-98 0 -146 49 -146 125c0 85 69 137 191 137c136 0 200 -71 200 -218c0 -163 -90 -209 -202 -209zM210 532c13 0 27 3 40 10c-3 67 -18 90 -45 90
c-26 0 -40 -17 -40 -47c0 -34 18 -53 45 -53z" />
    <glyph glyph-name="zero.denominator" horiz-adv-x="416" 
d="M207 -19c-129 0 -197 76 -197 216c0 142 76 209 197 209c136 0 199 -69 199 -208c0 -152 -80 -217 -199 -217zM207 84c24 0 41 17 41 117c0 81 -18 105 -39 105c-26 0 -42 -22 -42 -111c0 -83 17 -111 40 -111z" />
    <glyph glyph-name="one.denominator" horiz-adv-x="291" 
d="M102 -4c1 129 1 199 1 237c-34 -14 -61 -26 -61 -26c-21 73 -40 125 -40 125c84 38 149 70 149 70c49 -6 100 -9 100 -9c0 -205 4 -396 4 -396c-83 0 -153 -1 -153 -1z" />
    <glyph glyph-name="two.denominator" horiz-adv-x="379" 
d="M361 -3c-208 5 -344 4 -344 4c-4 70 -5 135 -5 135c125 29 208 78 208 138c0 26 -11 37 -28 37c-28 0 -42 -23 -37 -87c0 0 -64 2 -147 0c-11 124 60 188 189 188c109 0 175 -51 175 -132s-75 -141 -178 -171c91 3 167 9 167 9v-121z" />
    <glyph glyph-name="three.denominator" horiz-adv-x="405" 
d="M205 -18c-140 0 -205 56 -199 163c0 0 66 -4 156 -7c-1 -36 16 -54 41 -54c22 0 39 10 39 33c0 17 -8 28 -25 34c-20 6 -61 7 -91 5c0 0 0 30 -3 85c31 -3 69 -1 88 5c18 6 29 15 29 33c0 24 -17 33 -36 33c-24 0 -44 -15 -41 -54c-79 0 -154 -1 -154 -1
c-7 108 74 156 198 156c112 0 183 -47 183 -122c0 -48 -31 -78 -73 -88c50 -11 80 -50 80 -94c0 -83 -85 -127 -192 -127z" />
    <glyph glyph-name="four.denominator" horiz-adv-x="410" 
d="M224 -3l1 67l-217 -3s-1 27 -3 110c89 154 134 235 134 235c145 -7 227 -5 227 -5c-1 -101 -1 -170 -1 -233c13 0 37 1 37 1s-1 -35 -1 -105h-35c0 -43 1 -66 1 -66c-95 -2 -143 -1 -143 -1zM144 168h82v151c-41 -72 -69 -125 -82 -151z" />
    <glyph glyph-name="five.denominator" horiz-adv-x="406" 
d="M204 -15c-127 0 -188 55 -191 151c82 -2 151 -2 151 -2c2 -37 17 -55 41 -55c22 0 38 15 38 51c0 42 -13 58 -39 58c-22 0 -34 -16 -38 -38c0 0 -64 6 -148 10c0 0 4 107 5 240c0 0 137 0 352 4c0 0 -1 -30 -1 -110c0 0 -86 1 -213 -2v-56c22 20 57 33 93 33
c98 0 144 -63 144 -135c0 -107 -90 -149 -194 -149z" />
    <glyph glyph-name="six.denominator" horiz-adv-x="419" 
d="M214 -17c-128 0 -204 74 -204 212c0 135 73 216 205 216c114 0 182 -54 187 -138c-90 2 -155 -1 -155 -1c-4 24 -16 39 -33 39c-25 0 -46 -19 -48 -93c26 23 67 37 109 37c88 0 134 -47 134 -120c0 -104 -91 -152 -195 -152zM216 173c-18 0 -34 -7 -48 -17
c6 -54 24 -73 49 -73c20 0 38 11 38 47c0 27 -15 43 -39 43z" />
    <glyph glyph-name="seven.denominator" horiz-adv-x="345" 
d="M70 -8c-3 125 34 222 106 283c-89 0 -171 -3 -171 -3c2 76 2 128 2 128c223 2 332 5 332 5c-2 -100 1 -134 1 -134c-80 -66 -117 -155 -113 -284c-97 5 -157 5 -157 5z" />
    <glyph glyph-name="eight.denominator" horiz-adv-x="422" 
d="M217 -16c-134 0 -209 47 -209 125c0 42 25 77 78 89c-44 19 -68 54 -68 98c0 71 69 118 196 118c124 0 195 -46 195 -119c0 -43 -25 -77 -68 -93c44 -13 73 -46 73 -90c0 -89 -88 -128 -197 -128zM213 79c25 0 43 13 43 36c0 24 -21 39 -49 46c-31 -9 -44 -24 -44 -44
c0 -25 20 -38 50 -38zM219 234c22 9 37 27 37 47c0 23 -17 37 -45 37c-30 0 -44 -14 -44 -34c0 -22 21 -42 52 -50z" />
    <glyph glyph-name="nine.denominator" horiz-adv-x="413" 
d="M201 -15c-111 0 -183 54 -189 153c87 -6 152 -6 152 -6c1 -30 18 -46 41 -46c28 0 44 19 46 90c-24 -17 -62 -26 -93 -26c-98 0 -146 49 -146 125c0 85 69 137 191 137c136 0 200 -71 200 -218c0 -163 -90 -209 -202 -209zM210 216c13 0 27 3 40 10c-3 67 -18 90 -45 90
c-26 0 -40 -17 -40 -47c0 -34 18 -53 45 -53z" />
    <glyph glyph-name="dollar.titling" horiz-adv-x="461" 
d="M312 140c-97 3 -158 2 -158 2c3 32 4 59 5 76c-87 18 -143 70 -144 160c0 0 74 -3 174 -4c-2 -40 17 -57 44 -57c23 0 37 11 37 31c0 22 -17 34 -92 48c-105 20 -156 56 -156 138c0 67 50 115 137 130c-2 49 -5 83 -5 83c106 -1 160 1 160 1c-4 -35 -6 -66 -7 -88
c81 -19 131 -72 136 -159c0 0 -68 3 -172 2c1 36 -14 57 -38 57s-34 -14 -34 -32c0 -25 21 -40 83 -49c129 -18 165 -57 165 -126c0 -82 -56 -123 -138 -137c0 -42 3 -76 3 -76z" />
    <glyph glyph-name="cent.titling" horiz-adv-x="469" 
d="M160 138c3 35 5 64 5 81c-92 23 -151 95 -151 223c0 120 50 197 153 219c-3 45 -7 87 -7 87c91 -1 157 1 157 1c-4 -38 -6 -70 -7 -92c91 -23 144 -89 143 -184c-118 1 -185 -2 -185 -2c-1 54 -11 86 -35 86c-29 0 -36 -36 -36 -107c0 -101 11 -122 38 -122
c20 0 33 21 34 84c0 0 70 -3 185 -3c-4 -115 -58 -172 -144 -191c2 -47 5 -80 5 -80c-74 2 -114 1 -155 0z" />
    <glyph glyph-name="Euro.titling" horiz-adv-x="538" 
d="M12 442c0 12 1 32 0 58h48c19 131 100 204 237 204c134 0 212 -74 225 -171c-89 2 -186 -2 -186 -2c-4 34 -16 47 -40 47c-28 0 -45 -17 -51 -76l199 4s-2 -16 -1 -59c0 0 -71 0 -201 -1c0 0 -1 -12 0 -27c58 0 127 1 207 3c0 0 -2 -12 0 -58c0 0 -71 0 -204 -2
c7 -52 22 -68 50 -68c23 0 39 13 44 45c105 -5 187 -4 187 -4c-13 -110 -110 -166 -235 -165c-129 0 -209 60 -230 190c0 0 -19 0 -48 -1c0 0 2 17 1 59h42s-1 11 0 25c0 0 -20 0 -44 -1z" />
    <glyph glyph-name="sterling.titling" horiz-adv-x="507" 
d="M28 365c2 68 -1 95 -1 95c17 -1 38 -1 38 -1c-10 26 -22 53 -22 87c0 100 72 157 221 157c162 0 234 -92 225 -210c0 0 -67 0 -182 -4c5 58 -10 90 -41 90c-25 0 -40 -14 -40 -49c0 -29 10 -51 19 -72c107 0 165 2 165 2c-1 -71 2 -98 2 -98c-57 1 -110 2 -158 2
c-6 -16 -16 -30 -28 -42c42 -1 127 -1 258 2c0 0 -4 -42 -2 -143c0 0 -182 6 -454 6c0 0 3 58 2 120c24 14 40 34 47 58h-49z" />
    <glyph glyph-name="yen.titling" horiz-adv-x="492" 
d="M42 348c0 0 1 21 -2 83h76c-21 53 -55 134 -107 253c0 0 51 0 186 5c0 0 13 -65 54 -209c0 0 27 100 54 227c0 0 65 -5 180 -3c0 0 -39 -88 -105 -269c23 0 47 1 73 2c0 0 -2 -22 0 -83c0 0 -45 0 -121 -1c-1 -19 0 -30 0 -30l123 3s-1 -15 1 -79h-123l3 -65
s-56 2 -168 -1c0 0 1 29 1 64l-128 -3s1 21 1 80c0 0 46 -1 126 -1c0 10 0 19 -1 30z" />
    <glyph glyph-name="zero.titling" horiz-adv-x="496" 
d="M247 174c-150 0 -235 95 -235 268c0 178 91 262 235 262c158 0 238 -85 238 -260c0 -184 -91 -270 -238 -270zM247 302c30 0 52 22 52 145c0 98 -22 132 -51 132c-34 0 -52 -30 -52 -139c0 -101 19 -138 51 -138z" />
    <glyph glyph-name="one.titling" horiz-adv-x="339" 
d="M118 191c2 180 2 264 1 305c-41 -18 -71 -32 -71 -32c-26 90 -47 149 -47 149c105 48 179 84 179 84l111 -11c0 -256 5 -494 5 -494c-101 -1 -178 -1 -178 -1z" />
    <glyph glyph-name="two.titling" horiz-adv-x="451" 
d="M431 191c-262 5 -412 4 -412 4c-5 87 -6 167 -6 167c153 38 249 101 249 174c0 31 -13 47 -34 47c-34 0 -50 -29 -44 -110c0 0 -71 2 -175 0c-14 154 70 234 226 234c136 0 209 -64 209 -164c0 -99 -88 -175 -215 -213c117 2 201 10 201 10c-1 -102 1 -149 1 -149z" />
    <glyph glyph-name="three.titling" horiz-adv-x="476" 
d="M241 172c-166 0 -245 72 -236 203c0 0 86 -4 186 -9c-3 -47 17 -69 48 -69c26 0 47 13 47 44c0 21 -11 35 -30 43c-24 7 -67 8 -103 5c0 0 -1 38 -5 106c40 -3 77 -1 101 7c21 7 35 19 35 42c0 29 -19 42 -44 42c-32 0 -52 -21 -48 -70c-101 0 -182 -2 -182 -2
c-10 135 84 195 235 195c133 0 217 -62 217 -153c0 -56 -37 -92 -87 -107c58 -15 95 -60 95 -117c0 -108 -104 -160 -229 -160z" />
    <glyph glyph-name="four.titling" horiz-adv-x="482" 
d="M260 191l1 82l-252 -3s-2 33 -4 137c108 196 160 293 160 293c180 -7 262 -6 262 -6c-1 -118 -1 -214 -1 -290c16 0 49 1 49 1s-1 -44 -1 -132h-47c1 -55 2 -82 2 -82c-117 -3 -169 0 -169 0zM171 403h91c1 83 0 143 0 183c-44 -84 -75 -150 -91 -183z" />
    <glyph glyph-name="five.titling" horiz-adv-x="476" 
d="M241 175c-153 0 -226 70 -229 189c103 -3 180 -3 180 -3c2 -46 19 -67 49 -67c25 0 44 18 44 62c0 50 -15 72 -46 72c-24 0 -40 -18 -44 -47c0 0 -77 7 -177 12c0 0 5 133 7 299c0 0 146 1 416 6c0 0 -2 -37 -2 -136c0 0 -94 1 -251 -3v-69c27 25 71 40 113 40
c118 0 168 -79 168 -169c0 -131 -100 -186 -228 -186z" />
    <glyph glyph-name="six.titling" horiz-adv-x="491" 
d="M251 173c-154 0 -239 92 -239 264c0 165 81 270 243 270c139 0 214 -70 218 -173c-111 3 -184 -1 -184 -1c-4 31 -17 50 -37 50c-31 0 -52 -27 -55 -117c31 28 79 46 128 46c106 0 157 -58 157 -149c0 -132 -106 -190 -231 -190zM254 409c-19 0 -38 -8 -55 -20
c7 -67 28 -91 57 -91c26 0 43 17 43 59c0 33 -16 52 -45 52z" />
    <glyph glyph-name="seven.titling" horiz-adv-x="408" 
d="M84 184c-5 158 43 283 132 359c-112 -1 -211 -5 -211 -5c3 95 2 155 2 155c279 2 394 6 394 6c-1 -125 2 -167 2 -167c-98 -82 -137 -191 -133 -354c-120 5 -186 6 -186 6z" />
    <glyph glyph-name="eight.titling" horiz-adv-x="495" 
d="M255 174c-168 0 -249 61 -249 156c0 53 31 95 94 110c-50 25 -81 67 -81 123c0 87 79 147 232 147c151 0 231 -61 231 -148c0 -56 -32 -96 -86 -117c57 -17 93 -57 93 -112c0 -115 -108 -159 -234 -159zM249 291c30 0 52 15 52 44s-26 49 -58 58c-37 -11 -53 -32 -53 -55
c0 -30 23 -47 59 -47zM257 488c26 10 43 33 43 58c0 29 -19 47 -53 47c-36 0 -51 -19 -51 -43c0 -28 25 -53 61 -62z" />
    <glyph glyph-name="nine.titling" horiz-adv-x="485" 
d="M236 175c-138 0 -220 72 -224 191c108 -8 180 -7 180 -7c1 -39 20 -58 48 -58c32 0 50 22 53 111c-26 -22 -67 -32 -109 -32c-116 0 -174 60 -174 156c0 108 87 172 227 172c157 0 237 -87 237 -272c0 -195 -101 -261 -238 -261zM245 464c15 0 32 4 47 11
c-4 88 -21 114 -52 114c-30 0 -47 -22 -47 -60c0 -43 19 -65 52 -65z" />
    <glyph glyph-name="questiondown.cap" horiz-adv-x="580" 
d="M285 -32c-173 0 -280 83 -280 208c0 133 84 199 207 218v42c140 -2 217 2 217 2c0 -97 3 -158 3 -158c-140 8 -192 -11 -192 -83c0 -42 17 -68 52 -68c46 0 58 44 59 106c0 0 92 -3 224 -2c-2 -178 -102 -265 -290 -265zM318 465c-89 0 -135 46 -135 121
c0 70 51 115 132 115c97 0 140 -51 140 -119c0 -74 -57 -117 -137 -117z" />
    <glyph glyph-name="exclamdown.cap" horiz-adv-x="283" 
d="M21 -9c0 0 12 146 24 440c0 0 81 -2 189 2c0 0 7 -171 29 -444c0 0 -123 4 -242 2zM140 465c-87 0 -131 54 -131 118c0 73 58 116 129 116c85 0 136 -45 136 -119c0 -66 -45 -115 -134 -115z" />
    <glyph glyph-name="parenleft.cap" horiz-adv-x="337" 
d="M150 -83c-90 139 -129 287 -129 417c0 163 43 319 139 436c109 -40 173 -61 173 -61c-59 -109 -92 -225 -92 -371c0 -105 33 -226 96 -363c-110 -30 -187 -58 -187 -58z" />
    <glyph glyph-name="parenright.cap" horiz-adv-x="338" 
d="M189 -92c0 0 -79 29 -189 59c62 136 97 264 97 370c0 145 -34 266 -93 375c0 0 69 22 178 64c91 -116 135 -277 135 -436c0 -130 -40 -284 -128 -432z" />
    <glyph glyph-name="bracketleft.cap" horiz-adv-x="341" 
d="M326 -70c0 0 -139 4 -288 3c0 0 3 230 -4 821c0 0 107 -1 288 2c0 0 -1 -67 3 -162c0 0 -37 0 -74 -3c0 0 -4 -224 0 -487c0 0 38 -2 80 -2c0 0 -4 -63 -5 -172z" />
    <glyph glyph-name="bracketright.cap" horiz-adv-x="340" 
d="M16 -66c-3 110 -6 172 -6 172c45 0 81 2 81 2c4 263 0 492 0 492c-37 2 -74 1 -74 1c2 94 1 163 1 163c181 -3 288 -2 288 -2c-8 -589 -4 -823 -4 -823c-117 1 -286 -5 -286 -5z" />
    <glyph glyph-name="braceleft.cap" horiz-adv-x="383" 
d="M370 -63c-43 -12 -86 -18 -124 -18c-112 0 -158 49 -158 164c0 31 3 62 3 89c0 66 -19 93 -86 89c0 0 3 80 2 182c59 -5 83 14 83 70c0 32 -7 71 -7 110c0 97 49 142 163 143c38 0 80 -6 117 -15c-1 -119 4 -160 4 -160c-57 4 -73 -6 -73 -48c0 -23 6 -55 6 -84
c0 -55 -24 -87 -81 -107c58 -21 77 -58 77 -120c0 -25 -3 -51 -3 -73c0 -53 15 -65 76 -59c-2 -117 1 -163 1 -163z" />
    <glyph glyph-name="braceright.cap" horiz-adv-x="382" 
d="M12 -68c0 0 4 42 1 158c56 -7 79 4 79 52c0 26 -6 59 -6 91c0 62 25 102 85 118c-57 14 -88 47 -88 110c0 28 6 56 6 79c0 42 -16 53 -74 50c0 0 5 44 4 163c35 8 74 13 110 13c129 0 170 -53 170 -140c0 -39 -8 -79 -8 -112c0 -58 24 -74 84 -70c-1 -102 2 -177 2 -177
c-66 5 -87 -20 -87 -82l6 -116c0 -104 -45 -156 -161 -155c-38 0 -80 7 -123 18z" />
    <glyph glyph-name="slash.cap" horiz-adv-x="415" 
d="M-5 -52c139 449 233 791 233 791c124 -3 192 0 192 0c-187 -617 -233 -791 -233 -791c-115 2 -192 0 -192 0z" />
    <glyph glyph-name="backslash.cap" horiz-adv-x="415" 
d="M420 -51c0 0 -78 3 -192 0c0 0 -46 175 -233 792c0 0 68 -3 191 0c0 0 95 -342 234 -792z" />
    <glyph glyph-name="bar.cap" horiz-adv-x="277" 
d="M45 -53c0 0 2 373 -3 794c0 0 62 -4 193 -3c0 0 -5 -294 -3 -789c0 0 -62 3 -187 -2z" />
    <glyph glyph-name="at.cap" horiz-adv-x="763" 
d="M491 -15c-270 -55 -477 37 -477 357c0 233 135 374 371 374c242 0 364 -130 364 -366c0 -188 -58 -247 -151 -247c-50 0 -90 22 -109 69c-34 -50 -98 -66 -159 -66c-113 0 -166 62 -166 142c0 86 66 138 249 135c0 0 0 12 -1 20c-3 41 -13 58 -34 58
c-17 0 -34 -14 -34 -56c0 0 -69 -1 -171 -5c-5 111 72 188 220 188c135 0 199 -80 204 -180c3 -52 0 -110 -1 -145c-1 -37 8 -54 25 -54c19 0 32 21 32 134c0 192 -73 292 -266 292c-187 0 -279 -106 -279 -293c0 -229 111 -328 367 -273c0 0 4 -31 16 -84zM373 221
c24 0 48 15 48 67v27c-63 -2 -88 -25 -88 -57c0 -22 14 -37 40 -37z" />
    <glyph glyph-name="A.alt" horiz-adv-x="604" 
d="M0 2c0 0 63 276 144 681c170 6 320 4 320 4s55 -291 140 -679c0 0 -112 2 -229 -1c0 0 -3 24 -11 79c-33 0 -77 1 -134 1c-4 -29 -8 -57 -11 -87c0 0 -103 3 -219 2zM297 533c-9 -52 -26 -154 -45 -287h88z" />
    <glyph glyph-name="B.alt" horiz-adv-x="594" 
d="M37 -1c0 0 -2 317 -9 683c89 13 164 19 228 19c235 0 313 -76 313 -188c0 -73 -45 -130 -118 -156c102 -25 139 -88 139 -165c0 -135 -103 -204 -359 -204c-57 0 -122 4 -194 11zM245 131c12 -1 24 -2 34 -2c64 0 90 29 90 79c0 51 -33 78 -127 71c1 -98 3 -148 3 -148z
M241 545v-135c84 -5 115 17 115 71c0 44 -20 66 -81 66c-10 0 -22 -1 -34 -2z" />
    <glyph glyph-name="C.alt" horiz-adv-x="624" 
d="M320 -10c-175 0 -306 87 -306 354c0 228 106 355 307 355c185 0 283 -115 292 -283c-154 2 -239 -1 -239 -1c-4 90 -24 116 -58 116c-45 0 -66 -56 -65 -187c0 -138 27 -181 66 -181c35 0 60 24 63 121c142 1 239 8 239 8c-4 -197 -109 -303 -299 -302z" />
    <glyph glyph-name="D.alt" horiz-adv-x="614" 
d="M248 153c78 -3 118 24 118 185c0 132 -32 182 -124 176c2 -218 6 -361 6 -361zM28 0c3 399 1 672 1 672c67 9 127 13 181 13c277 0 390 -114 390 -350c0 -242 -137 -343 -425 -343c-45 0 -94 3 -147 8z" />
    <glyph glyph-name="E.alt" horiz-adv-x="492" 
d="M36 11c0 0 -1 270 -8 674c0 0 147 1 445 6c0 0 -1 -69 2 -185c0 0 -88 -1 -231 -6c0 0 -1 -34 0 -85c9 0 40 -1 185 1c0 0 -2 -54 1 -166c0 0 -74 1 -182 1l3 -66l224 3s-2 -62 -2 -181c0 0 -191 3 -437 4z" />
    <glyph glyph-name="F.alt" horiz-adv-x="477" 
d="M36 13c0 0 0 266 -8 669c0 0 194 -1 437 4c0 0 -1 -75 1 -199c0 0 -96 2 -221 -2c0 0 0 -38 1 -121c28 0 69 0 179 2c0 0 -1 -66 1 -186c0 0 -65 1 -178 0c1 -49 2 -104 4 -166c-121 1 -216 -1 -216 -1z" />
    <glyph glyph-name="G.alt" horiz-adv-x="632" 
d="M319 -17c-179 0 -305 100 -305 359c0 222 99 356 308 356c172 0 269 -95 286 -258c0 0 -106 -2 -227 -10c-6 72 -24 101 -63 101c-49 0 -74 -52 -74 -189c1 -156 31 -203 87 -203c35 0 65 23 75 91l-93 -4s2 45 -1 151c0 0 142 -1 311 0c6 -279 -102 -394 -304 -394z" />
    <glyph glyph-name="H.alt" horiz-adv-x="589" 
d="M343 3v176c-17 0 -42 0 -97 -1l3 -186s-99 2 -217 -1c0 0 1 318 -4 709c0 0 78 0 214 1c0 0 0 -143 2 -342c13 0 43 -1 98 -1l-3 335s91 -2 219 1c0 0 0 -284 3 -693c0 0 -91 4 -218 2z" />
    <glyph glyph-name="I.alt" horiz-adv-x="290" 
d="M37 16c0 0 1 265 -4 654c0 0 77 0 219 1c0 0 2 -293 5 -654c0 0 -89 1 -220 -1z" />
    <glyph glyph-name="J.alt" horiz-adv-x="535" 
d="M255 2c-155 0 -250 80 -250 254c0 36 4 81 11 120c0 0 59 -4 201 -12c-4 -24 -6 -60 -6 -81c0 -75 15 -99 41 -99c34 0 52 31 52 239c0 87 -4 150 -16 258c0 0 71 3 214 12c12 -101 19 -179 19 -278c0 -303 -97 -413 -266 -413z" />
    <glyph glyph-name="K.alt" horiz-adv-x="602" 
d="M364 -18c-22 97 -40 169 -54 220l-66 -121c1 -53 2 -80 2 -80c-140 2 -218 -1 -218 -1c1 391 0 677 0 677c132 -2 217 -1 217 -1c-2 -115 -2 -210 -2 -297c85 221 123 323 123 323c143 -11 230 -14 230 -14c-61 -134 -104 -232 -130 -294c73 -233 126 -388 126 -388
c-147 -10 -228 -24 -228 -24z" />
    <glyph glyph-name="L.alt" horiz-adv-x="454" 
d="M34 17c0 0 0 304 -6 661c0 0 69 -2 216 0c0 0 -2 -68 4 -477c131 -2 204 1 204 1c-3 -115 -1 -187 -1 -187c-249 3 -417 2 -417 2z" />
    <glyph glyph-name="M.alt" horiz-adv-x="827" 
d="M16 3c0 0 18 325 29 697c0 0 146 0 307 8c0 0 23 -182 59 -395c16 97 38 238 61 392c0 0 148 -6 304 -9c0 0 9 -248 35 -691l-222 -6s2 192 -3 475c-20 -108 -45 -256 -64 -388c0 0 -107 -1 -220 3c0 0 -28 184 -68 408c0 -122 1 -313 6 -498c0 0 -122 3 -224 4z" />
    <glyph glyph-name="N.alt" horiz-adv-x="613" 
d="M31 -9c0 0 3 293 -3 698c0 0 93 0 207 3c0 0 54 -129 150 -334c-2 67 -8 171 -20 345c0 0 92 -2 204 -2c0 0 2 -242 16 -686c0 0 -74 -3 -205 -14c0 0 -60 132 -155 326c1 -76 4 -190 12 -339c0 0 -92 3 -206 3z" />
    <glyph glyph-name="O.alt" horiz-adv-x="637" 
d="M318 699c197 -1 303 -119 305 -349c1 -242 -111 -359 -303 -359c-227 0 -306 138 -306 358c2 239 108 350 304 350zM317 534c-44 0 -67 -38 -67 -191c0 -154 22 -191 69 -191c45 0 68 34 68 195c0 150 -28 187 -70 187z" />
    <glyph glyph-name="P.alt" horiz-adv-x="572" 
d="M28 -2c0 0 5 252 4 672c59 6 114 9 163 9c247 0 372 -76 372 -265c0 -194 -142 -264 -321 -259l4 -156s-115 1 -222 -1zM243 513c0 0 -1 -65 0 -205c69 -2 108 19 108 104c0 71 -33 106 -108 101z" />
    <glyph glyph-name="Q.alt" horiz-adv-x="636" 
d="M397 -160c-24 70 -42 123 -53 152l-31 -1c-183 0 -299 114 -299 340c0 242 104 360 301 360c210 0 307 -110 307 -368c0 -129 -42 -216 -108 -269c49 -68 88 -113 88 -113c-143 -66 -205 -101 -205 -101zM317 531c-46 0 -67 -36 -67 -204c0 -141 26 -180 67 -180
s68 25 68 179c0 167 -22 205 -68 205z" />
    <glyph glyph-name="R.alt" horiz-adv-x="588" 
d="M376 -34c0 0 -40 101 -102 243c0 0 -15 -2 -33 -2l4 -215s-110 1 -217 -1c0 0 5 264 4 685c77 11 145 17 204 17c243 0 342 -92 342 -246c0 -87 -38 -149 -110 -189c24 -50 65 -134 126 -257c0 0 -93 -13 -218 -35zM241 347c84 -3 118 28 118 97c0 53 -23 92 -94 92
c-13 0 -27 -2 -27 -2c2 -105 3 -187 3 -187z" />
    <glyph glyph-name="S.alt" horiz-adv-x="588" 
d="M298 -13c-179 0 -286 75 -291 248c0 0 86 2 227 10c1 -67 21 -99 65 -99c31 0 48 17 48 54c0 33 -17 54 -132 80c-147 33 -201 99 -201 208c0 129 99 212 275 212c182 0 273 -84 282 -250c0 0 -87 0 -220 -6c1 71 -21 96 -58 96c-33 0 -47 -24 -47 -56
c0 -42 40 -66 122 -82c171 -33 215 -98 215 -197c0 -147 -114 -218 -285 -218z" />
    <glyph glyph-name="T.alt" horiz-adv-x="507" 
d="M8 480c0 0 1 71 -1 199c0 0 271 -1 493 2c0 0 -3 -89 -2 -201c0 0 -60 0 -136 1c0 -108 1 -261 4 -469c0 0 -89 1 -219 -1c0 0 0 170 -2 470z" />
    <glyph glyph-name="U.alt" horiz-adv-x="591" 
d="M300 -2c-187 0 -286 117 -286 408c0 87 10 200 25 300c0 0 72 -7 218 -16c-12 -91 -22 -197 -22 -267c0 -185 24 -233 61 -233c40 0 60 34 60 206c0 91 -6 181 -15 286c0 0 69 1 214 9c15 -107 22 -200 22 -301c0 -271 -91 -392 -277 -392z" />
    <glyph glyph-name="V.alt" horiz-adv-x="585" 
d="M130 5c-70 407 -130 678 -130 678c133 -1 230 0 230 0c22 -217 47 -391 62 -489c47 335 67 500 67 500c138 -4 226 -2 226 -2c-95 -512 -132 -688 -132 -688s-150 0 -323 1z" />
    <glyph glyph-name="W.alt" horiz-adv-x="831" 
d="M455 1c-16 186 -29 321 -39 413c-37 -280 -53 -419 -53 -419c-222 6 -300 1 -300 1c-18 256 -41 536 -56 697c114 1 220 3 220 3c4 -194 10 -379 15 -502c51 338 62 431 62 431c168 -1 229 -3 229 -3c25 -200 46 -338 60 -424c15 399 15 500 15 500c152 -5 216 -4 216 -4
c-41 -509 -55 -694 -55 -694c-207 -2 -314 1 -314 1z" />
    <glyph glyph-name="X.alt" horiz-adv-x="643" 
d="M260 -7c-177 8 -260 9 -260 9c67 148 116 263 142 327c-23 67 -66 194 -128 365c76 1 159 4 243 8c0 0 21 -84 63 -243c42 157 59 235 59 235c166 -7 247 -7 247 -7c-58 -164 -98 -277 -121 -344c92 -241 138 -339 138 -339c-200 -8 -261 -13 -261 -13
c-23 94 -43 173 -58 228c-39 -127 -64 -226 -64 -226z" />
    <glyph glyph-name="Y.alt" horiz-adv-x="610" 
d="M203 -27c0 24 1 49 -4 151c0 0 -67 197 -199 564c0 0 55 -1 242 6c0 0 16 -108 69 -314c0 0 23 121 68 315c0 0 61 -4 231 -4l-191 -565s-2 -14 2 -152c0 0 -52 1 -218 -1z" />
    <glyph glyph-name="Z.alt" horiz-adv-x="510" 
d="M491 7c-311 8 -475 7 -475 7c2 128 1 184 1 184c103 130 178 224 227 287c-135 -1 -221 -4 -221 -4c0 149 -1 202 -1 202c301 -1 464 3 464 3c4 -119 3 -197 3 -197c-99 -128 -175 -225 -226 -288c138 -3 230 -1 230 -1c-4 -150 -2 -193 -2 -193z" />
    <glyph glyph-name="a.alt" horiz-adv-x="537" 
d="M182 -26c-99 0 -175 55 -175 151c0 104 67 167 242 167c16 0 33 -1 51 -2v16c-2 46 -12 61 -36 61c-22 0 -35 -16 -40 -52c0 0 -74 8 -197 12c15 115 102 180 242 180c181 0 245 -90 248 -231c4 -147 -1 -305 -1 -305s-70 0 -177 -2c0 0 3 37 5 86
c-32 -54 -95 -81 -162 -81zM259 103c32 0 51 26 50 106v2c-66 0 -90 -30 -90 -66c0 -25 15 -42 40 -42z" />
    <glyph glyph-name="b.alt" horiz-adv-x="575" 
d="M26 7c0 0 1 217 -2 697c0 0 58 -3 219 -1c0 0 -6 -110 -8 -269c31 43 76 72 136 72c129 0 190 -104 190 -255c0 -157 -88 -250 -213 -250c-66 0 -125 26 -152 79c0 -20 1 -44 3 -72c0 0 -83 1 -173 -1zM283 127c33 0 52 30 52 127c0 79 -15 116 -53 116
c-34 0 -51 -36 -51 -113c0 -101 17 -130 52 -130z" />
    <glyph glyph-name="c.alt" horiz-adv-x="545" 
d="M284 -15c-168 0 -270 75 -270 261c0 150 81 256 266 256c161 0 256 -78 259 -217c-146 1 -223 -1 -223 -1c-1 48 -13 77 -39 77c-30 0 -44 -35 -44 -119c0 -78 16 -107 43 -107c21 0 38 17 38 77c0 0 73 -1 226 2c-10 -149 -108 -229 -256 -229z" />
    <glyph glyph-name="d.alt" horiz-adv-x="574" 
d="M546 4c0 0 -99 2 -175 2c0 0 2 23 4 70c-29 -53 -85 -85 -148 -85c-122 0 -213 80 -213 261c0 142 65 250 196 250c55 0 99 -29 127 -69c-1 59 -3 156 -9 276c0 0 42 -2 220 1c0 0 -4 -320 -2 -706zM290 125c31 0 52 26 52 122c0 73 -18 116 -52 116s-50 -37 -50 -121
c0 -88 23 -117 50 -117z" />
    <glyph glyph-name="e.alt" horiz-adv-x="567" 
d="M290 -15c-177 0 -276 85 -276 264c0 150 95 253 267 253c209 0 282 -113 272 -302c0 0 -107 1 -317 -3c6 -62 24 -81 53 -81c22 0 39 20 45 53c0 0 76 -9 217 -17c-30 -99 -124 -167 -261 -167zM286 376c-32 0 -48 -17 -52 -89c29 0 60 1 99 3c-1 64 -13 86 -47 86z" />
    <glyph glyph-name="f.alt" horiz-adv-x="419" 
d="M402 272c0 0 -45 0 -106 1c0 -135 2 -258 2 -258s-92 1 -211 -1c0 0 -3 115 -4 258c-23 -1 -45 -1 -71 -1c0 0 1 48 -1 177l73 -3v15c2 142 51 224 211 224c36 0 78 -4 127 -13c0 0 -6 -49 -10 -165c-95 9 -113 -15 -113 -56v-10c33 -1 68 -2 105 -2c0 0 -4 -64 -2 -166z
" />
    <glyph glyph-name="g.alt" horiz-adv-x="521" 
d="M253 -270c-152 0 -249 35 -249 123c0 47 43 81 99 94c-42 18 -63 51 -63 85c0 37 30 77 84 100c-76 29 -118 87 -118 181c1 125 93 200 254 200c9 0 20 -1 20 -1c2 36 6 97 7 178c0 0 79 -25 210 -56c0 0 -37 -58 -86 -149c70 -33 104 -94 104 -175
c0 -132 -95 -201 -244 -201c-16 0 -32 1 -46 2c-7 -6 -11 -12 -11 -18c0 -16 26 -23 63 -24c188 -7 259 -53 259 -154c0 -123 -138 -185 -283 -185zM260 202c23 0 43 12 43 87c0 65 -17 88 -43 88c-27 0 -45 -19 -45 -88c0 -71 21 -87 45 -87zM339 -119c0 24 -25 39 -87 43
c-28 -13 -41 -28 -41 -47c0 -23 22 -36 61 -36c36 0 67 14 67 40z" />
    <glyph glyph-name="h.alt" horiz-adv-x="544" 
d="M24 -4c0 0 6 332 2 699c0 0 70 -1 210 1c0 0 -3 -115 -2 -255c30 42 78 71 137 71c94 0 147 -71 151 -176c5 -160 2 -331 2 -331s-83 3 -212 2c0 0 4 133 0 272c0 31 -10 49 -33 49c-27 0 -36 -18 -37 -53c-3 -129 -1 -278 -1 -278s-83 2 -217 -1z" />
    <glyph glyph-name="i.alt" horiz-adv-x="267" 
d="M28 14c0 0 1 105 -3 472c0 0 77 -1 213 1c0 0 -1 -222 4 -472c0 0 -93 1 -214 -1zM135 520c-80 0 -128 36 -128 113c0 63 42 107 126 107c85 0 124 -50 124 -107c0 -71 -44 -113 -122 -113z" />
    <glyph glyph-name="j.alt" horiz-adv-x="266" 
d="M136 516c-89 0 -126 47 -126 112c0 61 38 110 125 110c82 0 124 -48 124 -108c0 -76 -53 -114 -123 -114zM-91 -218c0 0 5 55 4 174c12 -1 23 -2 33 -2c64 0 84 27 85 87c3 175 -1 435 -1 435c142 -3 208 1 208 1s8 -148 4 -461c-1 -157 -80 -239 -253 -239
c-25 0 -51 2 -80 5z" />
    <glyph glyph-name="k.alt" horiz-adv-x="558" 
d="M333 -18c-21 75 -38 132 -50 172c-19 -30 -34 -54 -45 -73c0 -50 1 -79 1 -79c-135 3 -215 1 -215 1c5 486 1 699 1 699c149 -5 215 -2 215 -2c-2 -166 -2 -277 -2 -381c43 129 64 197 64 197c149 -11 241 -18 241 -18c-50 -83 -84 -142 -107 -183
c72 -193 122 -320 122 -320c-165 -7 -225 -13 -225 -13z" />
    <glyph glyph-name="l.alt" horiz-adv-x="267" 
d="M240 -5c-133 4 -213 2 -213 2c4 501 0 703 0 703c147 -4 214 -4 214 -4c-4 -524 -1 -701 -1 -701z" />
    <glyph glyph-name="m.alt" horiz-adv-x="828" 
d="M27 5c0 0 1 197 -3 476c0 0 73 -2 170 -1c0 0 -2 -31 -2 -72c33 59 93 102 165 102c83 0 127 -44 146 -102c32 46 87 77 154 77c111 0 146 -83 149 -170c5 -151 1 -310 1 -310s-81 1 -211 0c0 0 2 117 -3 250c-1 32 -10 51 -31 51c-26 0 -35 -23 -37 -60
c-3 -102 0 -254 0 -254s-97 1 -216 -1c0 0 8 169 3 282c-1 33 -11 53 -34 53c-27 0 -36 -27 -38 -61c-3 -111 1 -260 1 -260s-96 1 -214 0z" />
    <glyph glyph-name="n.alt" 
d="M310 4c0 0 4 116 2 266c-1 31 -10 49 -34 49c-26 0 -35 -17 -37 -52c-3 -71 -1 -273 -1 -273s-118 2 -216 0c0 0 4 203 2 487c0 0 86 -2 166 1c0 0 -2 -44 -1 -84c29 59 97 105 170 104c98 -1 156 -63 160 -178c3 -79 2 -319 2 -319c-61 1 -213 -1 -213 -1z" />
    <glyph glyph-name="o.alt" horiz-adv-x="574" 
d="M289 503c169 0 271 -90 271 -266c0 -145 -107 -248 -271 -248c-176 0 -275 105 -275 257c0 163 107 257 275 257zM287 369c-31 0 -51 -26 -51 -125c0 -90 19 -123 51 -123c31 0 51 31 51 116c0 100 -17 132 -51 132z" />
    <glyph glyph-name="p.alt" horiz-adv-x="580" 
d="M24 -199c4 346 0 711 0 711c58 -2 182 1 182 1c-2 -50 -2 -77 -2 -103c29 57 85 96 155 96c137 0 207 -115 207 -259c1 -164 -79 -251 -199 -251c-52 0 -106 23 -133 64c6 -188 11 -258 11 -258c-94 3 -221 -1 -221 -1zM291 127c32 0 50 23 50 126c0 86 -16 116 -50 116
s-52 -29 -52 -116c0 -104 19 -126 52 -126z" />
    <glyph glyph-name="q.alt" horiz-adv-x="581" 
d="M335 -212l10 272c-25 -44 -73 -68 -131 -68c-113 0 -200 81 -200 261c0 145 76 256 205 256c68 0 126 -44 155 -96c-1 54 -4 93 -4 93c143 -3 185 0 185 0c-5 -446 0 -717 0 -717c-147 2 -220 -1 -220 -1zM291 125c33 0 51 40 51 129c0 76 -17 113 -50 113
c-40 0 -53 -41 -53 -117c0 -89 18 -125 52 -125z" />
    <glyph glyph-name="r.alt" horiz-adv-x="392" 
d="M26 17c0 0 1 229 -2 468c0 0 50 -1 174 1c0 0 -2 -32 -2 -77c33 76 111 125 194 119c0 0 -3 -72 -5 -204c-119 -3 -143 -42 -146 -153c-1 -56 1 -153 1 -153s-70 1 -214 -1z" />
    <glyph glyph-name="s.alt" horiz-adv-x="505" 
d="M263 -21c-144 0 -250 52 -260 194c0 0 67 -1 203 5c2 -37 18 -56 51 -56c22 0 39 10 39 30c0 21 -18 33 -105 48c-120 21 -177 62 -177 149c0 101 94 165 234 165c155 0 241 -79 251 -191c0 0 -70 -3 -194 -11c-3 34 -17 54 -47 54c-25 0 -38 -11 -38 -26
c0 -23 25 -39 100 -51c143 -24 182 -71 182 -142c0 -114 -101 -168 -239 -168z" />
    <glyph glyph-name="t.alt" horiz-adv-x="414" 
d="M402 0c-49 -10 -94 -16 -133 -16c-127 0 -198 59 -200 204c-1 48 -1 95 -1 141h-63c1 132 -2 165 -2 165c23 -1 45 -1 66 -1c1 76 2 128 2 128c130 -2 210 0 210 0s-2 -55 -3 -130h115c-3 -140 -1 -164 -1 -164l-114 2c0 -36 1 -71 2 -103c2 -35 21 -55 68 -55
c12 0 26 2 41 4c7 -113 13 -175 13 -175z" />
    <glyph glyph-name="u.alt" 
d="M203 9c-125 0 -184 75 -184 291c0 70 3 123 11 194c0 0 50 -8 201 -15c-4 -47 -4 -85 -4 -123c0 -153 17 -175 44 -175c19 0 32 18 34 56c6 151 -2 262 -2 262s52 -4 213 -3c0 0 -3 -174 1 -495c0 0 -49 3 -171 1c0 0 1 41 1 93c-29 -56 -85 -86 -144 -86z" />
    <glyph glyph-name="v.alt" horiz-adv-x="529" 
d="M420 28c-192 -2 -301 -5 -301 -5c-80 318 -120 475 -120 475c135 1 220 7 220 7c27 -250 44 -338 44 -338c48 291 52 349 52 349c149 -7 213 -6 213 -6c-77 -360 -108 -482 -108 -482z" />
    <glyph glyph-name="w.alt" horiz-adv-x="777" 
d="M429 13c-29 188 -42 252 -42 252c-29 -183 -37 -263 -37 -263c-198 6 -272 3 -272 3c-45 311 -78 503 -78 503c123 -1 210 3 210 3c9 -223 22 -344 22 -344c38 206 57 315 57 315c138 0 196 -1 196 -1c50 -245 65 -290 65 -290c16 263 15 326 15 326
c146 -5 212 -3 212 -3c-56 -351 -75 -501 -75 -501c-178 3 -273 0 -273 0z" />
    <glyph glyph-name="x.alt" horiz-adv-x="582" 
d="M572 503c-63 -134 -98 -214 -114 -251c79 -175 124 -263 124 -263c-156 3 -231 -3 -231 -3c-24 68 -44 123 -60 165c-35 -94 -52 -154 -52 -154c-169 4 -239 0 -239 0c64 124 105 212 125 255c-68 152 -119 249 -119 249c148 -3 232 2 232 2c21 -72 40 -127 54 -165
c41 124 56 172 56 172c156 -8 224 -7 224 -7z" />
    <glyph glyph-name="y.alt" horiz-adv-x="548" 
d="M358 -253c-167 23 -216 28 -216 28c25 99 38 166 38 166c-101 328 -180 552 -180 552c149 2 231 12 231 12c25 -196 52 -320 52 -320c33 215 43 326 43 326c143 -9 222 -10 222 -10c-155 -590 -190 -754 -190 -754z" />
    <glyph glyph-name="z.alt" horiz-adv-x="467" 
d="M451 9c-340 10 -437 8 -437 8c4 94 2 136 2 136c139 127 184 169 184 169c-126 -1 -176 -4 -176 -4c0 132 -4 175 -4 175c302 -1 427 3 427 3c-2 -108 2 -147 2 -147c-144 -128 -188 -172 -188 -172c123 -2 192 2 192 2c-4 -133 -2 -170 -2 -170z" />
    <glyph glyph-name="dotlessi.alt" horiz-adv-x="267" 
d="M28 14c0 0 1 105 -3 472c0 0 77 -1 213 1c0 0 -1 -222 4 -472c0 0 -93 1 -214 -1z" />
    <glyph glyph-name="Aacute.alt" horiz-adv-x="604" 
d="M326 720c-63 45 -95 62 -95 62c87 115 116 162 116 162c77 -55 118 -80 118 -80c-110 -110 -139 -144 -139 -144zM0 2c0 0 63 276 144 681c170 6 320 4 320 4s55 -291 140 -679c0 0 -112 2 -229 -1c0 0 -3 24 -11 79c-33 0 -77 1 -134 1c-4 -29 -8 -57 -11 -87
c0 0 -103 3 -219 2zM297 533c-9 -52 -26 -154 -45 -287h88z" />
    <glyph glyph-name="Abreve.alt" horiz-adv-x="604" 
d="M0 2c0 0 63 276 144 681c170 6 320 4 320 4s55 -291 140 -679c0 0 -112 2 -229 -1c0 0 -3 24 -11 79c-33 0 -77 1 -134 1c-4 -29 -8 -57 -11 -87c0 0 -103 3 -219 2zM297 533c-9 -52 -26 -154 -45 -287h88zM298 734c-121 0 -166 68 -161 146c0 0 42 0 125 5
c-2 -29 11 -50 39 -50c22 0 42 15 34 59c0 0 39 -1 128 1c11 -117 -72 -161 -165 -161z" />
    <glyph glyph-name="Acircumflex.alt" horiz-adv-x="604" 
d="M193 720c0 0 -21 24 -76 76c0 0 44 34 121 109c0 0 32 -1 121 7c0 0 33 -32 126 -107c0 0 -25 -24 -75 -84c0 0 -32 28 -110 84c0 0 -36 -23 -107 -85zM0 2c0 0 63 276 144 681c170 6 320 4 320 4s55 -291 140 -679c0 0 -112 2 -229 -1c0 0 -3 24 -11 79
c-33 0 -77 1 -134 1c-4 -29 -8 -57 -11 -87c0 0 -103 3 -219 2zM297 533c-9 -52 -26 -154 -45 -287h88z" />
    <glyph glyph-name="Adieresis.alt" horiz-adv-x="604" 
d="M203 739c-59 0 -85 40 -85 84c0 47 37 80 86 80c55 0 84 -35 84 -81c0 -61 -42 -83 -85 -83zM404 742c-49 0 -82 33 -82 84c0 44 30 78 84 78c55 0 80 -37 80 -81c0 -54 -36 -81 -82 -81zM0 2c0 0 63 276 144 681c170 6 320 4 320 4s55 -291 140 -679c0 0 -112 2 -229 -1
c0 0 -3 24 -11 79c-33 0 -77 1 -134 1c-4 -29 -8 -57 -11 -87c0 0 -103 3 -219 2zM297 533c-9 -52 -26 -154 -45 -287h88z" />
    <glyph glyph-name="Agrave.alt" horiz-adv-x="604" 
d="M0 2c0 0 63 276 144 681c170 6 320 4 320 4s55 -291 140 -679c0 0 -112 2 -229 -1c0 0 -3 24 -11 79c-33 0 -77 1 -134 1c-4 -29 -8 -57 -11 -87c0 0 -103 3 -219 2zM297 533c-9 -52 -26 -154 -45 -287h88zM294 722c0 0 -30 34 -140 144c0 0 40 25 117 81
c0 0 30 -48 118 -163c0 0 -33 -17 -95 -62z" />
    <glyph glyph-name="Amacron.alt" horiz-adv-x="604" 
d="M0 2c0 0 63 276 144 681c170 6 320 4 320 4s55 -291 140 -679c0 0 -112 2 -229 -1c0 0 -3 24 -11 79c-33 0 -77 1 -134 1c-4 -29 -8 -57 -11 -87c0 0 -103 3 -219 2zM297 533c-9 -52 -26 -154 -45 -287h88zM156 758c0 0 1 32 -2 116c0 0 73 -1 296 2c0 0 -2 -32 -2 -116
c0 0 -77 1 -292 -2z" />
    <glyph glyph-name="Aogonek.alt" horiz-adv-x="604" 
d="M465 -211c-119 -12 -178 32 -179 104c0 46 30 92 88 121c0 0 -4 32 -10 72c-33 0 -77 1 -134 1c-4 -29 -8 -57 -11 -87c0 0 -103 3 -219 2c0 0 63 276 144 681c170 6 320 4 320 4s55 -291 140 -679c0 0 -68 1 -149 0c-34 -19 -52 -44 -52 -65c0 -26 22 -43 72 -42
c0 0 -6 -34 -10 -112zM297 533c-9 -52 -26 -154 -45 -287h88z" />
    <glyph glyph-name="Aring.alt" horiz-adv-x="604" 
d="M300 731c-80 0 -121 47 -121 105c0 66 54 102 122 102c79 0 124 -46 124 -102c0 -77 -60 -105 -125 -105zM303 792c24 0 39 18 39 44c0 23 -14 45 -39 45c-27 0 -40 -21 -40 -45c0 -25 16 -44 40 -44zM0 2c0 0 63 276 144 681c170 6 320 4 320 4s55 -291 140 -679
c0 0 -112 2 -229 -1c0 0 -3 24 -11 79c-33 0 -77 1 -134 1c-4 -29 -8 -57 -11 -87c0 0 -103 3 -219 2zM297 533c-9 -52 -26 -154 -45 -287h88z" />
    <glyph glyph-name="Atilde.alt" horiz-adv-x="604" 
d="M0 2c0 0 63 276 144 681c170 6 320 4 320 4s55 -291 140 -679c0 0 -112 2 -229 -1c0 0 -3 24 -11 79c-33 0 -77 1 -134 1c-4 -29 -8 -57 -11 -87c0 0 -103 3 -219 2zM297 533c-9 -52 -26 -154 -45 -287h88zM225 740c0 0 -30 0 -102 -4c-6 94 28 168 107 168
c58 0 86 -50 123 -50c19 0 31 10 27 45c0 0 31 0 95 6c18 -105 -18 -168 -91 -168c-69 0 -92 45 -130 45c-21 0 -32 -18 -29 -42z" />
    <glyph glyph-name="Cacute.alt" horiz-adv-x="624" 
d="M320 -10c-175 0 -306 87 -306 354c0 228 106 355 307 355c185 0 283 -115 292 -283c-154 2 -239 -1 -239 -1c-4 90 -24 116 -58 116c-45 0 -66 -56 -65 -187c0 -138 27 -181 66 -181c35 0 60 24 63 121c142 1 239 8 239 8c-4 -197 -109 -303 -299 -302zM340 732
c-63 45 -95 62 -95 62c87 115 116 162 116 162c77 -55 118 -80 118 -80c-110 -110 -139 -144 -139 -144z" />
    <glyph glyph-name="Ccaron.alt" horiz-adv-x="624" 
d="M258 729c0 0 -34 32 -127 108c0 0 25 24 76 83c0 0 32 -27 110 -84c0 0 35 24 106 85c0 0 21 -23 76 -76c0 0 -43 -34 -120 -108c0 0 -33 0 -121 -8zM320 -10c-175 0 -306 87 -306 354c0 228 106 355 307 355c185 0 283 -115 292 -283c-154 2 -239 -1 -239 -1
c-4 90 -24 116 -58 116c-45 0 -66 -56 -65 -187c0 -138 27 -181 66 -181c35 0 60 24 63 121c142 1 239 8 239 8c-4 -197 -109 -303 -299 -302z" />
    <glyph glyph-name="Ccedilla.alt" horiz-adv-x="624" 
d="M619 292c-4 -182 -94 -287 -258 -300v-36c77 -2 117 -34 117 -82c0 -59 -57 -99 -161 -99c-31 0 -70 6 -102 17c0 0 6 34 11 78c27 -12 57 -19 83 -19c24 0 40 8 40 22c0 16 -23 27 -85 23c0 0 9 41 18 96c-156 12 -268 105 -268 352c0 228 106 355 307 355
c185 0 283 -115 292 -283c-154 2 -239 -1 -239 -1c-4 90 -24 116 -58 116c-45 0 -66 -56 -65 -187c0 -138 27 -181 66 -181c35 0 60 24 63 121c142 1 239 8 239 8z" />
    <glyph glyph-name="Ccircumflex.alt" horiz-adv-x="624" 
d="M207 725c0 0 -21 24 -76 76c0 0 44 34 121 109c0 0 32 -1 121 7c0 0 33 -32 126 -107c0 0 -25 -24 -75 -84c0 0 -32 28 -110 84c0 0 -36 -23 -107 -85zM320 -10c-175 0 -306 87 -306 354c0 228 106 355 307 355c185 0 283 -115 292 -283c-154 2 -239 -1 -239 -1
c-4 90 -24 116 -58 116c-45 0 -66 -56 -65 -187c0 -138 27 -181 66 -181c35 0 60 24 63 121c142 1 239 8 239 8c-4 -197 -109 -303 -299 -302z" />
    <glyph glyph-name="Dcaron.alt" horiz-adv-x="614" 
d="M213 723c0 0 -34 32 -127 108c0 0 25 24 76 83c0 0 32 -27 110 -84c0 0 35 24 106 85c0 0 21 -23 76 -76c0 0 -43 -34 -120 -108c0 0 -33 0 -121 -8zM248 153c78 -3 118 24 118 185c0 132 -32 182 -124 176c2 -218 6 -361 6 -361zM28 0c3 399 1 672 1 672
c67 9 127 13 181 13c277 0 390 -114 390 -350c0 -242 -137 -343 -425 -343c-45 0 -94 3 -147 8z" />
    <glyph glyph-name="Eacute.alt" horiz-adv-x="492" 
d="M281 726c-63 45 -95 62 -95 62c87 115 116 162 116 162c77 -55 118 -80 118 -80c-110 -110 -139 -144 -139 -144zM36 11c0 0 -1 270 -8 674c0 0 147 1 445 6c0 0 -1 -69 2 -185c0 0 -88 -1 -231 -6c0 0 -1 -34 0 -85c9 0 40 -1 185 1c0 0 -2 -54 1 -166c0 0 -74 1 -182 1
l3 -66l224 3s-2 -62 -2 -181c0 0 -191 3 -437 4z" />
    <glyph glyph-name="Ecaron.alt" horiz-adv-x="492" 
d="M201 726c0 0 -34 32 -127 108c0 0 25 24 76 83c0 0 32 -27 110 -84c0 0 35 24 106 85c0 0 21 -23 76 -76c0 0 -43 -34 -120 -108c0 0 -33 0 -121 -8zM36 11c0 0 -1 270 -8 674c0 0 147 1 445 6c0 0 -1 -69 2 -185c0 0 -88 -1 -231 -6c0 0 -1 -34 0 -85c9 0 40 -1 185 1
c0 0 -2 -54 1 -166c0 0 -74 1 -182 1l3 -66l224 3s-2 -62 -2 -181c0 0 -191 3 -437 4z" />
    <glyph glyph-name="Ecircumflex.alt" horiz-adv-x="492" 
d="M150 722c0 0 -21 24 -76 76c0 0 44 34 121 109c0 0 32 -1 121 7c0 0 33 -32 126 -107c0 0 -25 -24 -75 -84c0 0 -32 28 -110 84c0 0 -36 -23 -107 -85zM36 11c0 0 -1 270 -8 674c0 0 147 1 445 6c0 0 -1 -69 2 -185c0 0 -88 -1 -231 -6c0 0 -1 -34 0 -85c9 0 40 -1 185 1
c0 0 -2 -54 1 -166c0 0 -74 1 -182 1l3 -66l224 3s-2 -62 -2 -181c0 0 -191 3 -437 4z" />
    <glyph glyph-name="Edieresis.alt" horiz-adv-x="492" 
d="M159 744c-59 0 -85 40 -85 84c0 47 37 80 86 80c55 0 84 -35 84 -81c0 -61 -42 -83 -85 -83zM360 747c-49 0 -82 33 -82 84c0 44 30 78 84 78c55 0 80 -37 80 -81c0 -54 -36 -81 -82 -81zM36 11c0 0 -1 270 -8 674c0 0 147 1 445 6c0 0 -1 -69 2 -185c0 0 -88 -1 -231 -6
c0 0 -1 -34 0 -85c9 0 40 -1 185 1c0 0 -2 -54 1 -166c0 0 -74 1 -182 1l3 -66l224 3s-2 -62 -2 -181c0 0 -191 3 -437 4z" />
    <glyph glyph-name="Edotaccent.alt" horiz-adv-x="492" 
d="M258 743c-68 0 -99 46 -99 93s36 89 99 89c67 0 99 -47 99 -90c0 -61 -43 -92 -99 -92zM36 11c0 0 -1 270 -8 674c0 0 147 1 445 6c0 0 -1 -69 2 -185c0 0 -88 -1 -231 -6c0 0 -1 -34 0 -85c9 0 40 -1 185 1c0 0 -2 -54 1 -166c0 0 -74 1 -182 1l3 -66l224 3
s-2 -62 -2 -181c0 0 -191 3 -437 4z" />
    <glyph glyph-name="Egrave.alt" horiz-adv-x="492" 
d="M250 726c0 0 -30 34 -140 144c0 0 40 25 117 81c0 0 30 -48 118 -163c0 0 -33 -17 -95 -62zM36 11c0 0 -1 270 -8 674c0 0 147 1 445 6c0 0 -1 -69 2 -185c0 0 -88 -1 -231 -6c0 0 -1 -34 0 -85c9 0 40 -1 185 1c0 0 -2 -54 1 -166c0 0 -74 1 -182 1l3 -66l224 3
s-2 -62 -2 -181c0 0 -191 3 -437 4z" />
    <glyph glyph-name="Emacron.alt" horiz-adv-x="492" 
d="M112 761c0 0 1 32 -2 116c0 0 73 -1 296 2c0 0 -2 -32 -2 -116c0 0 -77 1 -292 -2zM36 11c0 0 -1 270 -8 674c0 0 147 1 445 6c0 0 -1 -69 2 -185c0 0 -88 -1 -231 -6c0 0 -1 -34 0 -85c9 0 40 -1 185 1c0 0 -2 -54 1 -166c0 0 -74 1 -182 1l3 -66l224 3s-2 -62 -2 -181
c0 0 -191 3 -437 4z" />
    <glyph glyph-name="Eogonek.alt" horiz-adv-x="492" 
d="M468 -215c-115 -13 -179 29 -179 102c-1 47 28 92 93 121c-43 0 -256 3 -346 3c0 0 -1 270 -8 674c0 0 147 1 445 6c0 0 -1 -69 2 -185c0 0 -88 -1 -231 -6c0 0 -1 -34 0 -85c9 0 40 -1 185 1c0 0 -2 -54 1 -166c0 0 -74 1 -182 1l3 -66l224 3s-2 -62 -2 -181
c-47 -20 -67 -45 -67 -69c0 -26 22 -43 72 -42c0 0 -6 -34 -10 -111z" />
    <glyph glyph-name="Gbreve.alt" horiz-adv-x="632" 
d="M319 -17c-179 0 -305 100 -305 359c0 222 99 356 308 356c172 0 269 -95 286 -258c0 0 -106 -2 -227 -10c-6 72 -24 101 -63 101c-49 0 -74 -52 -74 -189c1 -156 31 -203 87 -203c35 0 65 23 75 91l-93 -4s2 45 -1 151c0 0 142 -1 311 0c6 -279 -102 -394 -304 -394z
M315 733c-121 0 -166 68 -161 146c0 0 42 0 125 5c-2 -29 11 -50 39 -50c22 0 42 15 34 59c0 0 39 -1 128 1c11 -117 -72 -161 -165 -161z" />
    <glyph glyph-name="Gcircumflex.alt" horiz-adv-x="632" 
d="M319 -17c-179 0 -305 100 -305 359c0 222 99 356 308 356c172 0 269 -95 286 -258c0 0 -106 -2 -227 -10c-6 72 -24 101 -63 101c-49 0 -74 -52 -74 -189c1 -156 31 -203 87 -203c35 0 65 23 75 91l-93 -4s2 45 -1 151c0 0 142 -1 311 0c6 -279 -102 -394 -304 -394z
M209 718c0 0 -21 24 -76 76c0 0 44 34 121 109c0 0 32 -1 121 7c0 0 33 -32 126 -107c0 0 -25 -24 -75 -84c0 0 -32 28 -110 84c0 0 -36 -23 -107 -85z" />
    <glyph glyph-name="Gcommaaccent.alt" horiz-adv-x="632" 
d="M319 -17c-179 0 -305 100 -305 359c0 222 99 356 308 356c172 0 269 -95 286 -258c0 0 -106 -2 -227 -10c-6 72 -24 101 -63 101c-49 0 -74 -52 -74 -189c1 -156 31 -203 87 -203c35 0 65 23 75 91l-93 -4s2 45 -1 151c0 0 142 -1 311 0c6 -279 -102 -394 -304 -394z
M400 -122c0 -51 -39 -102 -111 -148c-31 31 -47 44 -50 46c25 21 38 39 44 49c-28 8 -47 32 -47 61c0 39 33 69 83 69c48 0 81 -29 81 -77z" />
    <glyph glyph-name="Hcircumflex.alt" horiz-adv-x="589" 
d="M186 732c0 0 -21 24 -76 76c0 0 44 34 121 109c0 0 32 -1 121 7c0 0 33 -32 126 -107c0 0 -25 -24 -75 -84c0 0 -32 28 -110 84c0 0 -36 -23 -107 -85zM343 3v176c-17 0 -42 0 -97 -1l3 -186s-99 2 -217 -1c0 0 1 318 -4 709c0 0 78 0 214 1c0 0 0 -143 2 -342
c13 0 43 -1 98 -1l-3 335s91 -2 219 1c0 0 0 -284 3 -693c0 0 -91 4 -218 2z" />
    <glyph glyph-name="Iacute.alt" horiz-adv-x="290" 
d="M169 711c-63 45 -95 62 -95 62c87 115 116 162 116 162c77 -55 118 -80 118 -80c-110 -110 -139 -144 -139 -144zM37 16c0 0 1 265 -4 654c0 0 77 0 219 1c0 0 2 -293 5 -654c0 0 -89 1 -220 -1z" />
    <glyph glyph-name="Icircumflex.alt" horiz-adv-x="290" 
d="M37 707c0 0 -21 24 -76 76c0 0 44 34 121 109c0 0 32 -1 121 7c0 0 33 -32 126 -107c0 0 -25 -24 -75 -84c0 0 -32 28 -110 84c0 0 -36 -23 -107 -85zM37 16c0 0 1 265 -4 654c0 0 77 0 219 1c0 0 2 -293 5 -654c0 0 -89 1 -220 -1z" />
    <glyph glyph-name="Idieresis.alt" horiz-adv-x="290" 
d="M46 729c-59 0 -85 40 -85 84c0 47 37 80 86 80c55 0 84 -35 84 -81c0 -61 -42 -83 -85 -83zM247 732c-49 0 -82 33 -82 84c0 44 30 78 84 78c55 0 80 -37 80 -81c0 -54 -36 -81 -82 -81zM37 16c0 0 1 265 -4 654c0 0 77 0 219 1c0 0 2 -293 5 -654c0 0 -89 1 -220 -1z
" />
    <glyph glyph-name="Idotaccent.alt" horiz-adv-x="290" 
d="M37 16c0 0 1 265 -4 654c0 0 77 0 219 1c0 0 2 -293 5 -654c0 0 -89 1 -220 -1zM145 728c-68 0 -99 46 -99 93s36 89 99 89c67 0 99 -47 99 -90c0 -61 -43 -92 -99 -92z" />
    <glyph glyph-name="Igrave.alt" horiz-adv-x="290" 
d="M37 16c0 0 1 265 -4 654c0 0 77 0 219 1c0 0 2 -293 5 -654c0 0 -89 1 -220 -1zM137 711c0 0 -30 34 -140 144c0 0 40 25 117 81c0 0 30 -48 118 -163c0 0 -33 -17 -95 -62z" />
    <glyph glyph-name="Imacron.alt" horiz-adv-x="290" 
d="M37 16c0 0 1 265 -4 654c0 0 77 0 219 1c0 0 2 -293 5 -654c0 0 -89 1 -220 -1zM-1 746c0 0 1 32 -2 116c0 0 73 -1 296 2c0 0 -2 -32 -2 -116c0 0 -77 1 -292 -2z" />
    <glyph glyph-name="Iogonek.alt" horiz-adv-x="290" 
d="M210 -200c-119 -13 -179 31 -179 103c-1 43 25 85 74 114l-68 -1s1 265 -4 654c0 0 77 0 219 1c0 0 2 -293 5 -654h-59c-33 -19 -50 -44 -50 -64c0 -26 22 -43 72 -42c0 0 -6 -34 -10 -111z" />
    <glyph glyph-name="Jcircumflex.alt" horiz-adv-x="535" 
d="M287 717c0 0 -21 24 -76 76c0 0 44 34 121 109c0 0 32 -1 121 7c0 0 33 -32 126 -107c0 0 -25 -24 -75 -84c0 0 -32 28 -110 84c0 0 -36 -23 -107 -85zM255 2c-155 0 -250 80 -250 254c0 36 4 81 11 120c0 0 59 -4 201 -12c-4 -24 -6 -60 -6 -81c0 -75 15 -99 41 -99
c34 0 52 31 52 239c0 87 -4 150 -16 258c0 0 71 3 214 12c12 -101 19 -179 19 -278c0 -303 -97 -413 -266 -413z" />
    <glyph glyph-name="Kcommaaccent.alt" horiz-adv-x="602" 
d="M382 -117c0 -51 -39 -102 -111 -148c-31 31 -47 44 -50 46c25 21 38 39 44 49c-28 8 -47 32 -47 61c0 39 33 69 83 69c48 0 81 -29 81 -77zM364 -18c-22 97 -40 169 -54 220l-66 -121c1 -53 2 -80 2 -80c-140 2 -218 -1 -218 -1c1 391 0 677 0 677c132 -2 217 -1 217 -1
c-2 -115 -2 -210 -2 -297c85 221 123 323 123 323c143 -11 230 -14 230 -14c-61 -134 -104 -232 -130 -294c73 -233 126 -388 126 -388c-147 -10 -228 -24 -228 -24z" />
    <glyph glyph-name="Lacute.alt" horiz-adv-x="454" 
d="M157 708c-63 45 -95 62 -95 62c87 115 116 162 116 162c77 -55 118 -80 118 -80c-110 -110 -139 -144 -139 -144zM34 17c0 0 0 304 -6 661c0 0 69 -2 216 0c0 0 -2 -68 4 -477c131 -2 204 1 204 1c-3 -115 -1 -187 -1 -187c-249 3 -417 2 -417 2z" />
    <glyph glyph-name="Lcaron.alt" horiz-adv-x="454" 
d="M454 656c0 -51 -39 -102 -111 -148c-31 31 -47 44 -50 46c25 21 38 39 44 49c-28 8 -47 32 -47 61c0 39 33 69 83 69c48 0 81 -29 81 -77zM34 17c0 0 0 304 -6 661c0 0 69 -2 216 0c0 0 -2 -68 4 -477c131 -2 204 1 204 1c-3 -115 -1 -187 -1 -187c-249 3 -417 2 -417 2z
" />
    <glyph glyph-name="Lcommaaccent.alt" horiz-adv-x="454" 
d="M323 -100c0 -51 -39 -102 -111 -148c-31 31 -47 44 -50 46c25 21 38 39 44 49c-28 8 -47 32 -47 61c0 39 33 69 83 69c48 0 81 -29 81 -77zM34 17c0 0 0 304 -6 661c0 0 69 -2 216 0c0 0 -2 -68 4 -477c131 -2 204 1 204 1c-3 -115 -1 -187 -1 -187c-249 3 -417 2 -417 2
z" />
    <glyph glyph-name="Nacute.alt" horiz-adv-x="613" 
d="M31 -9c0 0 3 293 -3 698c0 0 93 0 207 3c0 0 54 -129 150 -334c-2 67 -8 171 -20 345c0 0 92 -2 204 -2c0 0 2 -242 16 -686c0 0 -74 -3 -205 -14c0 0 -60 132 -155 326c1 -76 4 -190 12 -339c0 0 -92 3 -206 3zM327 724c-63 45 -95 62 -95 62c87 115 116 162 116 162
c77 -55 118 -80 118 -80c-110 -110 -139 -144 -139 -144z" />
    <glyph glyph-name="Ncaron.alt" horiz-adv-x="613" 
d="M31 -9c0 0 3 293 -3 698c0 0 93 0 207 3c0 0 54 -129 150 -334c-2 67 -8 171 -20 345c0 0 92 -2 204 -2c0 0 2 -242 16 -686c0 0 -74 -3 -205 -14c0 0 -60 132 -155 326c1 -76 4 -190 12 -339c0 0 -92 3 -206 3zM249 735c0 0 -34 32 -127 108c0 0 25 24 76 83
c0 0 32 -27 110 -84c0 0 35 24 106 85c0 0 21 -23 76 -76c0 0 -43 -34 -120 -108c0 0 -33 0 -121 -8z" />
    <glyph glyph-name="Ncommaaccent.alt" horiz-adv-x="613" 
d="M31 -9c0 0 3 293 -3 698c0 0 93 0 207 3c0 0 54 -129 150 -334c-2 67 -8 171 -20 345c0 0 92 -2 204 -2c0 0 2 -242 16 -686c0 0 -74 -3 -205 -14c0 0 -60 132 -155 326c1 -76 4 -190 12 -339c0 0 -92 3 -206 3zM389 -107c0 -51 -39 -102 -111 -148c-31 31 -47 44 -50 46
c25 21 38 39 44 49c-28 8 -47 32 -47 61c0 39 33 69 83 69c48 0 81 -29 81 -77z" />
    <glyph glyph-name="Ntilde.alt" horiz-adv-x="613" 
d="M31 -9c0 0 3 293 -3 698c0 0 93 0 207 3c0 0 54 -129 150 -334c-2 67 -8 171 -20 345c0 0 92 -2 204 -2c0 0 2 -242 16 -686c0 0 -74 -3 -205 -14c0 0 -60 132 -155 326c1 -76 4 -190 12 -339c0 0 -92 3 -206 3zM230 752c0 0 -30 0 -102 -4c-6 94 28 168 107 168
c58 0 86 -50 123 -50c19 0 31 10 27 45c0 0 31 0 95 6c18 -105 -18 -168 -91 -168c-69 0 -92 45 -130 45c-21 0 -32 -18 -29 -42z" />
    <glyph glyph-name="Oacute.alt" horiz-adv-x="637" 
d="M342 726c-63 45 -95 62 -95 62c87 115 116 162 116 162c77 -55 118 -80 118 -80c-110 -110 -139 -144 -139 -144zM318 699c197 -1 303 -119 305 -349c1 -242 -111 -359 -303 -359c-227 0 -306 138 -306 358c2 239 108 350 304 350zM317 534c-44 0 -67 -38 -67 -191
c0 -154 22 -191 69 -191c45 0 68 34 68 195c0 150 -28 187 -70 187z" />
    <glyph glyph-name="Ocircumflex.alt" horiz-adv-x="637" 
d="M210 720c0 0 -21 24 -76 76c0 0 44 34 121 109c0 0 32 -1 121 7c0 0 33 -32 126 -107c0 0 -25 -24 -75 -84c0 0 -32 28 -110 84c0 0 -36 -23 -107 -85zM318 699c197 -1 303 -119 305 -349c1 -242 -111 -359 -303 -359c-227 0 -306 138 -306 358c2 239 108 350 304 350z
M317 534c-44 0 -67 -38 -67 -191c0 -154 22 -191 69 -191c45 0 68 34 68 195c0 150 -28 187 -70 187z" />
    <glyph glyph-name="Odieresis.alt" horiz-adv-x="637" 
d="M219 742c-59 0 -85 40 -85 84c0 47 37 80 86 80c55 0 84 -35 84 -81c0 -61 -42 -83 -85 -83zM420 745c-49 0 -82 33 -82 84c0 44 30 78 84 78c55 0 80 -37 80 -81c0 -54 -36 -81 -82 -81zM318 699c197 -1 303 -119 305 -349c1 -242 -111 -359 -303 -359
c-227 0 -306 138 -306 358c2 239 108 350 304 350zM317 534c-44 0 -67 -38 -67 -191c0 -154 22 -191 69 -191c45 0 68 34 68 195c0 150 -28 187 -70 187z" />
    <glyph glyph-name="Ograve.alt" horiz-adv-x="637" 
d="M318 699c197 -1 303 -119 305 -349c1 -242 -111 -359 -303 -359c-227 0 -306 138 -306 358c2 239 108 350 304 350zM317 534c-44 0 -67 -38 -67 -191c0 -154 22 -191 69 -191c45 0 68 34 68 195c0 150 -28 187 -70 187zM309 726c0 0 -30 34 -140 144c0 0 40 25 117 81
c0 0 30 -48 118 -163c0 0 -33 -17 -95 -62z" />
    <glyph glyph-name="Ohungarumlaut.alt" horiz-adv-x="637" 
d="M318 699c197 -1 303 -119 305 -349c1 -242 -111 -359 -303 -359c-227 0 -306 138 -306 358c2 239 108 350 304 350zM317 534c-44 0 -67 -38 -67 -191c0 -154 22 -191 69 -191c45 0 68 34 68 195c0 150 -28 187 -70 187zM417 722c-65 39 -94 52 -94 52
c77 119 104 169 104 169c81 -47 114 -63 114 -63c-98 -121 -124 -158 -124 -158zM246 728c-66 39 -94 50 -94 50c75 123 98 170 98 170c79 -46 115 -63 115 -63c-94 -120 -119 -157 -119 -157z" />
    <glyph glyph-name="Omacron.alt" horiz-adv-x="637" 
d="M172 759c0 0 1 32 -2 116c0 0 73 -1 296 2c0 0 -2 -32 -2 -116c0 0 -77 1 -292 -2zM318 699c197 -1 303 -119 305 -349c1 -242 -111 -359 -303 -359c-227 0 -306 138 -306 358c2 239 108 350 304 350zM317 534c-44 0 -67 -38 -67 -191c0 -154 22 -191 69 -191
c45 0 68 34 68 195c0 150 -28 187 -70 187z" />
    <glyph glyph-name="Otilde.alt" horiz-adv-x="637" 
d="M318 699c197 -1 303 -119 305 -349c1 -242 -111 -359 -303 -359c-227 0 -306 138 -306 358c2 239 108 350 304 350zM317 534c-44 0 -67 -38 -67 -191c0 -154 22 -191 69 -191c45 0 68 34 68 195c0 150 -28 187 -70 187zM242 741c0 0 -30 0 -102 -4c-6 94 28 168 107 168
c58 0 86 -50 123 -50c19 0 31 10 27 45c0 0 31 0 95 6c18 -105 -18 -168 -91 -168c-69 0 -92 45 -130 45c-21 0 -32 -18 -29 -42z" />
    <glyph glyph-name="Racute.alt" horiz-adv-x="588" 
d="M301 721c-63 45 -95 62 -95 62c87 115 116 162 116 162c77 -55 118 -80 118 -80c-110 -110 -139 -144 -139 -144zM376 -34c0 0 -40 101 -102 243c0 0 -15 -2 -33 -2l4 -215s-110 1 -217 -1c0 0 5 264 4 685c77 11 145 17 204 17c243 0 342 -92 342 -246
c0 -87 -38 -149 -110 -189c24 -50 65 -134 126 -257c0 0 -93 -13 -218 -35zM241 347c84 -3 118 28 118 97c0 53 -23 92 -94 92c-13 0 -27 -2 -27 -2c2 -105 3 -187 3 -187z" />
    <glyph glyph-name="Rcaron.alt" horiz-adv-x="588" 
d="M221 727c0 0 -34 32 -127 108c0 0 25 24 76 83c0 0 32 -27 110 -84c0 0 35 24 106 85c0 0 21 -23 76 -76c0 0 -43 -34 -120 -108c0 0 -33 0 -121 -8zM376 -34c0 0 -40 101 -102 243c0 0 -15 -2 -33 -2l4 -215s-110 1 -217 -1c0 0 5 264 4 685c77 11 145 17 204 17
c243 0 342 -92 342 -246c0 -87 -38 -149 -110 -189c24 -50 65 -134 126 -257c0 0 -93 -13 -218 -35zM241 347c84 -3 118 28 118 97c0 53 -23 92 -94 92c-13 0 -27 -2 -27 -2c2 -105 3 -187 3 -187z" />
    <glyph glyph-name="Rcommaaccent.alt" horiz-adv-x="588" 
d="M367 -117c0 -51 -39 -102 -111 -148c-31 31 -47 44 -50 46c25 21 38 39 44 49c-28 8 -47 32 -47 61c0 39 33 69 83 69c48 0 81 -29 81 -77zM376 -34c0 0 -40 101 -102 243c0 0 -15 -2 -33 -2l4 -215s-110 1 -217 -1c0 0 5 264 4 685c77 11 145 17 204 17
c243 0 342 -92 342 -246c0 -87 -38 -149 -110 -189c24 -50 65 -134 126 -257c0 0 -93 -13 -218 -35zM241 347c84 -3 118 28 118 97c0 53 -23 92 -94 92c-13 0 -27 -2 -27 -2c2 -105 3 -187 3 -187z" />
    <glyph glyph-name="Sacute.alt" horiz-adv-x="588" 
d="M298 -13c-179 0 -286 75 -291 248c0 0 86 2 227 10c1 -67 21 -99 65 -99c31 0 48 17 48 54c0 33 -17 54 -132 80c-147 33 -201 99 -201 208c0 129 99 212 275 212c182 0 273 -84 282 -250c0 0 -87 0 -220 -6c1 71 -21 96 -58 96c-33 0 -47 -24 -47 -56
c0 -42 40 -66 122 -82c171 -33 215 -98 215 -197c0 -147 -114 -218 -285 -218zM317 730c-63 45 -95 62 -95 62c87 115 116 162 116 162c77 -55 118 -80 118 -80c-110 -110 -139 -144 -139 -144z" />
    <glyph glyph-name="Scaron.alt" horiz-adv-x="588" 
d="M237 733c0 0 -34 32 -127 108c0 0 25 24 76 83c0 0 32 -27 110 -84c0 0 35 24 106 85c0 0 21 -23 76 -76c0 0 -43 -34 -120 -108c0 0 -33 0 -121 -8zM298 -13c-179 0 -286 75 -291 248c0 0 86 2 227 10c1 -67 21 -99 65 -99c31 0 48 17 48 54c0 33 -17 54 -132 80
c-147 33 -201 99 -201 208c0 129 99 212 275 212c182 0 273 -84 282 -250c0 0 -87 0 -220 -6c1 71 -21 96 -58 96c-33 0 -47 -24 -47 -56c0 -42 40 -66 122 -82c171 -33 215 -98 215 -197c0 -147 -114 -218 -285 -218z" />
    <glyph glyph-name="Scedilla.alt" horiz-adv-x="588" 
d="M347 200c0 33 -17 54 -132 80c-147 33 -201 99 -201 208c0 129 99 212 275 212c182 0 273 -84 282 -250c0 0 -87 0 -220 -6c1 71 -21 96 -58 96c-33 0 -47 -24 -47 -56c0 -42 40 -66 122 -82c171 -33 215 -98 215 -197c0 -135 -96 -205 -244 -216c-1 -10 -1 -22 -1 -37
c77 -2 117 -34 117 -82c0 -59 -57 -99 -161 -99c-31 0 -70 6 -102 17c0 0 6 34 11 78c27 -12 57 -19 83 -19c24 0 40 8 40 22c0 16 -23 27 -85 23c0 0 9 41 18 97c-156 10 -248 86 -252 246c0 0 86 2 227 10c1 -67 21 -99 65 -99c31 0 48 17 48 54z" />
    <glyph glyph-name="Scircumflex.alt" horiz-adv-x="588" 
d="M186 718c0 0 -21 24 -76 76c0 0 44 34 121 109c0 0 32 -1 121 7c0 0 33 -32 126 -107c0 0 -25 -24 -75 -84c0 0 -32 28 -110 84c0 0 -36 -23 -107 -85zM298 -13c-179 0 -286 75 -291 248c0 0 86 2 227 10c1 -67 21 -99 65 -99c31 0 48 17 48 54c0 33 -17 54 -132 80
c-147 33 -201 99 -201 208c0 129 99 212 275 212c182 0 273 -84 282 -250c0 0 -87 0 -220 -6c1 71 -21 96 -58 96c-33 0 -47 -24 -47 -56c0 -42 40 -66 122 -82c171 -33 215 -98 215 -197c0 -147 -114 -218 -285 -218z" />
    <glyph glyph-name="Scommaaccent.alt" horiz-adv-x="588" 
d="M377 -107c0 -51 -39 -102 -111 -148c-31 31 -47 44 -50 46c25 21 38 39 44 49c-28 8 -47 32 -47 61c0 39 33 69 83 69c48 0 81 -29 81 -77zM298 -13c-179 0 -286 75 -291 248c0 0 86 2 227 10c1 -67 21 -99 65 -99c31 0 48 17 48 54c0 33 -17 54 -132 80
c-147 33 -201 99 -201 208c0 129 99 212 275 212c182 0 273 -84 282 -250c0 0 -87 0 -220 -6c1 71 -21 96 -58 96c-33 0 -47 -24 -47 -56c0 -42 40 -66 122 -82c171 -33 215 -98 215 -197c0 -147 -114 -218 -285 -218z" />
    <glyph glyph-name="Tcaron.alt" horiz-adv-x="507" 
d="M197 717c0 0 -34 32 -127 108c0 0 25 24 76 83c0 0 32 -27 110 -84c0 0 35 24 106 85c0 0 21 -23 76 -76c0 0 -43 -34 -120 -108c0 0 -33 0 -121 -8zM8 480c0 0 1 71 -1 199c0 0 271 -1 493 2c0 0 -3 -89 -2 -201c0 0 -60 0 -136 1c0 -108 1 -261 4 -469
c0 0 -89 1 -219 -1c0 0 0 170 -2 470z" />
    <glyph glyph-name="Tcommaaccent.alt" horiz-adv-x="507" 
d="M337 -97c0 -51 -39 -102 -111 -148c-31 31 -47 44 -50 46c25 21 38 39 44 49c-28 8 -47 32 -47 61c0 39 33 69 83 69c48 0 81 -29 81 -77zM8 480c0 0 1 71 -1 199c0 0 271 -1 493 2c0 0 -3 -89 -2 -201c0 0 -60 0 -136 1c0 -108 1 -261 4 -469c0 0 -89 1 -219 -1
c0 0 0 170 -2 470z" />
    <glyph glyph-name="Uacute.alt" horiz-adv-x="591" 
d="M326 714c-63 45 -95 62 -95 62c87 115 116 162 116 162c77 -55 118 -80 118 -80c-110 -110 -139 -144 -139 -144zM300 -2c-187 0 -286 117 -286 408c0 87 10 200 25 300c0 0 72 -7 218 -16c-12 -91 -22 -197 -22 -267c0 -185 24 -233 61 -233c40 0 60 34 60 206
c0 91 -6 181 -15 286c0 0 69 1 214 9c15 -107 22 -200 22 -301c0 -271 -91 -392 -277 -392z" />
    <glyph glyph-name="Ubreve.alt" horiz-adv-x="591" 
d="M300 -2c-187 0 -286 117 -286 408c0 87 10 200 25 300c0 0 72 -7 218 -16c-12 -91 -22 -197 -22 -267c0 -185 24 -233 61 -233c40 0 60 34 60 206c0 91 -6 181 -15 286c0 0 69 1 214 9c15 -107 22 -200 22 -301c0 -271 -91 -392 -277 -392zM299 735
c-121 0 -166 68 -161 146c0 0 42 0 125 5c-2 -29 11 -50 39 -50c22 0 42 15 34 59c0 0 39 -1 128 1c11 -117 -72 -161 -165 -161z" />
    <glyph glyph-name="Ucircumflex.alt" horiz-adv-x="591" 
d="M194 720c0 0 -21 24 -76 76c0 0 44 34 121 109c0 0 32 -1 121 7c0 0 33 -32 126 -107c0 0 -25 -24 -75 -84c0 0 -32 28 -110 84c0 0 -36 -23 -107 -85zM300 -2c-187 0 -286 117 -286 408c0 87 10 200 25 300c0 0 72 -7 218 -16c-12 -91 -22 -197 -22 -267
c0 -185 24 -233 61 -233c40 0 60 34 60 206c0 91 -6 181 -15 286c0 0 69 1 214 9c15 -107 22 -200 22 -301c0 -271 -91 -392 -277 -392z" />
    <glyph glyph-name="Udieresis.alt" horiz-adv-x="591" 
d="M203 742c-59 0 -85 40 -85 84c0 47 37 80 86 80c55 0 84 -35 84 -81c0 -61 -42 -83 -85 -83zM404 745c-49 0 -82 33 -82 84c0 44 30 78 84 78c55 0 80 -37 80 -81c0 -54 -36 -81 -82 -81zM300 -2c-187 0 -286 117 -286 408c0 87 10 200 25 300c0 0 72 -7 218 -16
c-12 -91 -22 -197 -22 -267c0 -185 24 -233 61 -233c40 0 60 34 60 206c0 91 -6 181 -15 286c0 0 69 1 214 9c15 -107 22 -200 22 -301c0 -271 -91 -392 -277 -392z" />
    <glyph glyph-name="Ugrave.alt" horiz-adv-x="591" 
d="M295 717c0 0 -30 34 -140 144c0 0 40 25 117 81c0 0 30 -48 118 -163c0 0 -33 -17 -95 -62zM300 -2c-187 0 -286 117 -286 408c0 87 10 200 25 300c0 0 72 -7 218 -16c-12 -91 -22 -197 -22 -267c0 -185 24 -233 61 -233c40 0 60 34 60 206c0 91 -6 181 -15 286
c0 0 69 1 214 9c15 -107 22 -200 22 -301c0 -271 -91 -392 -277 -392z" />
    <glyph glyph-name="Uhungarumlaut.alt" horiz-adv-x="591" 
d="M402 732c-65 39 -94 52 -94 52c77 119 104 169 104 169c81 -47 114 -63 114 -63c-98 -121 -124 -158 -124 -158zM231 738c-66 39 -94 50 -94 50c75 123 98 170 98 170c79 -46 115 -63 115 -63c-94 -120 -119 -157 -119 -157zM300 -2c-187 0 -286 117 -286 408
c0 87 10 200 25 300c0 0 72 -7 218 -16c-12 -91 -22 -197 -22 -267c0 -185 24 -233 61 -233c40 0 60 34 60 206c0 91 -6 181 -15 286c0 0 69 1 214 9c15 -107 22 -200 22 -301c0 -271 -91 -392 -277 -392z" />
    <glyph glyph-name="Umacron.alt" horiz-adv-x="591" 
d="M156 759c0 0 1 32 -2 116c0 0 73 -1 296 2c0 0 -2 -32 -2 -116c0 0 -77 1 -292 -2zM300 -2c-187 0 -286 117 -286 408c0 87 10 200 25 300c0 0 72 -7 218 -16c-12 -91 -22 -197 -22 -267c0 -185 24 -233 61 -233c40 0 60 34 60 206c0 91 -6 181 -15 286c0 0 69 1 214 9
c15 -107 22 -200 22 -301c0 -271 -91 -392 -277 -392z" />
    <glyph glyph-name="Uogonek.alt" horiz-adv-x="591" 
d="M369 -211c-119 -12 -178 32 -179 104c0 39 22 79 64 107c-157 19 -240 139 -240 406c0 87 10 200 25 300c0 0 72 -7 218 -16c-12 -91 -22 -197 -22 -267c0 -185 24 -233 61 -233c40 0 60 34 60 206c0 91 -6 181 -15 286c0 0 69 1 214 9c15 -107 22 -200 22 -301
c0 -247 -76 -369 -230 -389c-26 -18 -40 -40 -40 -58c0 -26 22 -43 72 -42c0 0 -6 -34 -10 -112z" />
    <glyph glyph-name="Uring.alt" horiz-adv-x="591" 
d="M301 726c-80 0 -121 47 -121 105c0 66 54 102 122 102c79 0 124 -46 124 -102c0 -77 -60 -105 -125 -105zM304 787c24 0 39 18 39 44c0 23 -14 45 -39 45c-27 0 -40 -21 -40 -45c0 -25 16 -44 40 -44zM300 -2c-187 0 -286 117 -286 408c0 87 10 200 25 300
c0 0 72 -7 218 -16c-12 -91 -22 -197 -22 -267c0 -185 24 -233 61 -233c40 0 60 34 60 206c0 91 -6 181 -15 286c0 0 69 1 214 9c15 -107 22 -200 22 -301c0 -271 -91 -392 -277 -392z" />
    <glyph glyph-name="Yacute.alt" horiz-adv-x="610" 
d="M328 720c-63 45 -95 62 -95 62c87 115 116 162 116 162c77 -55 118 -80 118 -80c-110 -110 -139 -144 -139 -144zM203 -27c0 24 1 49 -4 151c0 0 -67 197 -199 564c0 0 55 -1 242 6c0 0 16 -108 69 -314c0 0 23 121 68 315c0 0 61 -4 231 -4l-191 -565s-2 -14 2 -152
c0 0 -52 1 -218 -1z" />
    <glyph glyph-name="Ydieresis.alt" horiz-adv-x="610" 
d="M206 742c-59 0 -85 40 -85 84c0 47 37 80 86 80c55 0 84 -35 84 -81c0 -61 -42 -83 -85 -83zM407 745c-49 0 -82 33 -82 84c0 44 30 78 84 78c55 0 80 -37 80 -81c0 -54 -36 -81 -82 -81zM203 -27c0 24 1 49 -4 151c0 0 -67 197 -199 564c0 0 55 -1 242 6
c0 0 16 -108 69 -314c0 0 23 121 68 315c0 0 61 -4 231 -4l-191 -565s-2 -14 2 -152c0 0 -52 1 -218 -1z" />
    <glyph glyph-name="Zacute.alt" horiz-adv-x="510" 
d="M278 720c-63 45 -95 62 -95 62c87 115 116 162 116 162c77 -55 118 -80 118 -80c-110 -110 -139 -144 -139 -144zM491 7c-311 8 -475 7 -475 7c2 128 1 184 1 184c103 130 178 224 227 287c-135 -1 -221 -4 -221 -4c0 149 -1 202 -1 202c301 -1 464 3 464 3
c4 -119 3 -197 3 -197c-99 -128 -175 -225 -226 -288c138 -3 230 -1 230 -1c-4 -150 -2 -193 -2 -193z" />
    <glyph glyph-name="Zcaron.alt" horiz-adv-x="510" 
d="M199 723c0 0 -34 32 -127 108c0 0 25 24 76 83c0 0 32 -27 110 -84c0 0 35 24 106 85c0 0 21 -23 76 -76c0 0 -43 -34 -120 -108c0 0 -33 0 -121 -8zM491 7c-311 8 -475 7 -475 7c2 128 1 184 1 184c103 130 178 224 227 287c-135 -1 -221 -4 -221 -4
c0 149 -1 202 -1 202c301 -1 464 3 464 3c4 -119 3 -197 3 -197c-99 -128 -175 -225 -226 -288c138 -3 230 -1 230 -1c-4 -150 -2 -193 -2 -193z" />
    <glyph glyph-name="Zdotaccent.alt" horiz-adv-x="510" 
d="M491 7c-311 8 -475 7 -475 7c2 128 1 184 1 184c103 130 178 224 227 287c-135 -1 -221 -4 -221 -4c0 149 -1 202 -1 202c301 -1 464 3 464 3c4 -119 3 -197 3 -197c-99 -128 -175 -225 -226 -288c138 -3 230 -1 230 -1c-4 -150 -2 -193 -2 -193zM256 737
c-68 0 -99 46 -99 93s36 89 99 89c67 0 99 -47 99 -90c0 -61 -43 -92 -99 -92z" />
    <glyph glyph-name="aacute.alt" horiz-adv-x="537" 
d="M286 528c-63 45 -95 62 -95 62c87 115 116 162 116 162c77 -55 118 -80 118 -80c-110 -110 -139 -144 -139 -144zM182 -26c-99 0 -175 55 -175 151c0 104 67 167 242 167c16 0 33 -1 51 -2v16c-2 46 -12 61 -36 61c-22 0 -35 -16 -40 -52c0 0 -74 8 -197 12
c15 115 102 180 242 180c181 0 245 -90 248 -231c4 -147 -1 -305 -1 -305s-70 0 -177 -2c0 0 3 37 5 86c-32 -54 -95 -81 -162 -81zM259 103c32 0 51 26 50 106v2c-66 0 -90 -30 -90 -66c0 -25 15 -42 40 -42z" />
    <glyph glyph-name="abreve.alt" horiz-adv-x="537" 
d="M182 -26c-99 0 -175 55 -175 151c0 104 67 167 242 167c16 0 33 -1 51 -2v16c-2 46 -12 61 -36 61c-22 0 -35 -16 -40 -52c0 0 -74 8 -197 12c15 115 102 180 242 180c181 0 245 -90 248 -231c4 -147 -1 -305 -1 -305s-70 0 -177 -2c0 0 3 37 5 86
c-32 -54 -95 -81 -162 -81zM259 103c32 0 51 26 50 106v2c-66 0 -90 -30 -90 -66c0 -25 15 -42 40 -42zM261 542c-121 0 -166 68 -161 146c0 0 42 0 125 5c-2 -29 11 -50 39 -50c22 0 42 15 34 59c0 0 39 -1 128 1c11 -117 -72 -161 -165 -161z" />
    <glyph glyph-name="acircumflex.alt" horiz-adv-x="537" 
d="M155 524c0 0 -21 24 -76 76c0 0 44 34 121 109c0 0 32 -1 121 7c0 0 33 -32 126 -107c0 0 -25 -24 -75 -84c0 0 -32 28 -110 84c0 0 -36 -23 -107 -85zM182 -26c-99 0 -175 55 -175 151c0 104 67 167 242 167c16 0 33 -1 51 -2v16c-2 46 -12 61 -36 61
c-22 0 -35 -16 -40 -52c0 0 -74 8 -197 12c15 115 102 180 242 180c181 0 245 -90 248 -231c4 -147 -1 -305 -1 -305s-70 0 -177 -2c0 0 3 37 5 86c-32 -54 -95 -81 -162 -81zM259 103c32 0 51 26 50 106v2c-66 0 -90 -30 -90 -66c0 -25 15 -42 40 -42z" />
    <glyph glyph-name="adieresis.alt" horiz-adv-x="537" 
d="M165 542c-59 0 -85 40 -85 84c0 47 37 80 86 80c55 0 84 -35 84 -81c0 -61 -42 -83 -85 -83zM366 545c-49 0 -82 33 -82 84c0 44 30 78 84 78c55 0 80 -37 80 -81c0 -54 -36 -81 -82 -81zM182 -26c-99 0 -175 55 -175 151c0 104 67 167 242 167c16 0 33 -1 51 -2v16
c-2 46 -12 61 -36 61c-22 0 -35 -16 -40 -52c0 0 -74 8 -197 12c15 115 102 180 242 180c181 0 245 -90 248 -231c4 -147 -1 -305 -1 -305s-70 0 -177 -2c0 0 3 37 5 86c-32 -54 -95 -81 -162 -81zM259 103c32 0 51 26 50 106v2c-66 0 -90 -30 -90 -66c0 -25 15 -42 40 -42z
" />
    <glyph glyph-name="agrave.alt" horiz-adv-x="537" 
d="M182 -26c-99 0 -175 55 -175 151c0 104 67 167 242 167c16 0 33 -1 51 -2v16c-2 46 -12 61 -36 61c-22 0 -35 -16 -40 -52c0 0 -74 8 -197 12c15 115 102 180 242 180c181 0 245 -90 248 -231c4 -147 -1 -305 -1 -305s-70 0 -177 -2c0 0 3 37 5 86
c-32 -54 -95 -81 -162 -81zM259 103c32 0 51 26 50 106v2c-66 0 -90 -30 -90 -66c0 -25 15 -42 40 -42zM255 528c0 0 -30 34 -140 144c0 0 40 25 117 81c0 0 30 -48 118 -163c0 0 -33 -17 -95 -62z" />
    <glyph glyph-name="amacron.alt" horiz-adv-x="537" 
d="M182 -26c-99 0 -175 55 -175 151c0 104 67 167 242 167c16 0 33 -1 51 -2v16c-2 46 -12 61 -36 61c-22 0 -35 -16 -40 -52c0 0 -74 8 -197 12c15 115 102 180 242 180c181 0 245 -90 248 -231c4 -147 -1 -305 -1 -305s-70 0 -177 -2c0 0 3 37 5 86
c-32 -54 -95 -81 -162 -81zM259 103c32 0 51 26 50 106v2c-66 0 -90 -30 -90 -66c0 -25 15 -42 40 -42zM118 557c0 0 1 32 -2 116c0 0 73 -1 296 2c0 0 -2 -32 -2 -116c0 0 -77 1 -292 -2z" />
    <glyph glyph-name="aogonek.alt" horiz-adv-x="537" 
d="M182 -26c-99 0 -175 55 -175 151c0 103 67 167 236 167c18 0 37 -1 57 -2v16c-2 46 -12 61 -36 61c-22 0 -35 -16 -40 -52c0 0 -74 8 -197 12c15 115 102 180 242 180c181 0 245 -90 248 -231c4 -147 -1 -305 -1 -305h-96c-22 -18 -33 -38 -33 -54c0 -25 22 -43 72 -42
c0 0 -6 -33 -10 -111c-119 -13 -178 31 -179 104c0 40 24 81 70 110l4 77c-32 -54 -95 -81 -162 -81zM259 103c32 0 51 26 50 106v2c-66 0 -90 -30 -90 -66c0 -25 15 -42 40 -42z" />
    <glyph glyph-name="aring.alt" horiz-adv-x="537" 
d="M262 537c-80 0 -121 47 -121 105c0 66 54 102 122 102c79 0 124 -46 124 -102c0 -77 -60 -105 -125 -105zM265 598c24 0 39 18 39 44c0 23 -14 45 -39 45c-27 0 -40 -21 -40 -45c0 -25 16 -44 40 -44zM182 -26c-99 0 -175 55 -175 151c0 104 67 167 242 167
c16 0 33 -1 51 -2v16c-2 46 -12 61 -36 61c-22 0 -35 -16 -40 -52c0 0 -74 8 -197 12c15 115 102 180 242 180c181 0 245 -90 248 -231c4 -147 -1 -305 -1 -305s-70 0 -177 -2c0 0 3 37 5 86c-32 -54 -95 -81 -162 -81zM259 103c32 0 51 26 50 106v2c-66 0 -90 -30 -90 -66
c0 -25 15 -42 40 -42z" />
    <glyph glyph-name="atilde.alt" horiz-adv-x="537" 
d="M182 -26c-99 0 -175 55 -175 151c0 104 67 167 242 167c16 0 33 -1 51 -2v16c-2 46 -12 61 -36 61c-22 0 -35 -16 -40 -52c0 0 -74 8 -197 12c15 115 102 180 242 180c181 0 245 -90 248 -231c4 -147 -1 -305 -1 -305s-70 0 -177 -2c0 0 3 37 5 86
c-32 -54 -95 -81 -162 -81zM259 103c32 0 51 26 50 106v2c-66 0 -90 -30 -90 -66c0 -25 15 -42 40 -42zM187 545c0 0 -30 0 -102 -4c-6 94 28 168 107 168c58 0 86 -50 123 -50c19 0 31 10 27 45c0 0 31 0 95 6c18 -105 -18 -168 -91 -168c-69 0 -92 45 -130 45
c-21 0 -32 -18 -29 -42z" />
    <glyph glyph-name="cacute.alt" horiz-adv-x="545" 
d="M284 -15c-168 0 -270 75 -270 261c0 150 81 256 266 256c161 0 256 -78 259 -217c-146 1 -223 -1 -223 -1c-1 48 -13 77 -39 77c-30 0 -44 -35 -44 -119c0 -78 16 -107 43 -107c21 0 38 17 38 77c0 0 73 -1 226 2c-10 -149 -108 -229 -256 -229zM300 529
c-63 45 -95 62 -95 62c87 115 116 162 116 162c77 -55 118 -80 118 -80c-110 -110 -139 -144 -139 -144z" />
    <glyph glyph-name="ccaron.alt" horiz-adv-x="545" 
d="M221 529c0 0 -34 32 -127 108c0 0 25 24 76 83c0 0 32 -27 110 -84c0 0 35 24 106 85c0 0 21 -23 76 -76c0 0 -43 -34 -120 -108c0 0 -33 0 -121 -8zM284 -15c-168 0 -270 75 -270 261c0 150 81 256 266 256c161 0 256 -78 259 -217c-146 1 -223 -1 -223 -1
c-1 48 -13 77 -39 77c-30 0 -44 -35 -44 -119c0 -78 16 -107 43 -107c21 0 38 17 38 77c0 0 73 -1 226 2c-10 -149 -108 -229 -256 -229z" />
    <glyph glyph-name="ccedilla.alt" horiz-adv-x="545" 
d="M540 214c-9 -138 -94 -216 -223 -227v-31c77 -2 117 -34 117 -82c0 -59 -57 -99 -161 -99c-31 0 -70 6 -102 17c0 0 6 34 11 78c27 -12 57 -19 83 -19c24 0 40 8 40 22c0 16 -23 27 -85 23c0 0 9 39 17 92c-140 13 -223 90 -223 258c0 150 81 256 266 256
c161 0 256 -78 259 -217c-146 1 -223 -1 -223 -1c-1 48 -13 77 -39 77c-30 0 -44 -35 -44 -119c0 -78 16 -107 43 -107c21 0 38 17 38 77c0 0 73 -1 226 2z" />
    <glyph glyph-name="ccircumflex.alt" horiz-adv-x="545" 
d="M170 522c0 0 -21 24 -76 76c0 0 44 34 121 109c0 0 32 -1 121 7c0 0 33 -32 126 -107c0 0 -25 -24 -75 -84c0 0 -32 28 -110 84c0 0 -36 -23 -107 -85zM284 -15c-168 0 -270 75 -270 261c0 150 81 256 266 256c161 0 256 -78 259 -217c-146 1 -223 -1 -223 -1
c-1 48 -13 77 -39 77c-30 0 -44 -35 -44 -119c0 -78 16 -107 43 -107c21 0 38 17 38 77c0 0 73 -1 226 2c-10 -149 -108 -229 -256 -229z" />
    <glyph glyph-name="dcaron.alt" horiz-adv-x="574" 
d="M747 633c0 -51 -39 -102 -111 -148c-31 31 -47 44 -50 46c25 21 38 39 44 49c-28 8 -47 32 -47 61c0 39 33 69 83 69c48 0 81 -29 81 -77zM546 4c0 0 -99 2 -175 2c0 0 2 23 4 70c-29 -53 -85 -85 -148 -85c-122 0 -213 80 -213 261c0 142 65 250 196 250
c55 0 99 -29 127 -69c-1 59 -3 156 -9 276c0 0 42 -2 220 1c0 0 -4 -320 -2 -706zM290 125c31 0 52 26 52 122c0 73 -18 116 -52 116s-50 -37 -50 -121c0 -88 23 -117 50 -117z" />
    <glyph glyph-name="eacute.alt" horiz-adv-x="567" 
d="M307 526c-63 45 -95 62 -95 62c87 115 116 162 116 162c77 -55 118 -80 118 -80c-110 -110 -139 -144 -139 -144zM290 -15c-177 0 -276 85 -276 264c0 150 95 253 267 253c209 0 282 -113 272 -302c0 0 -107 1 -317 -3c6 -62 24 -81 53 -81c22 0 39 20 45 53
c0 0 76 -9 217 -17c-30 -99 -124 -167 -261 -167zM286 376c-32 0 -48 -17 -52 -89c29 0 60 1 99 3c-1 64 -13 86 -47 86z" />
    <glyph glyph-name="ecaron.alt" horiz-adv-x="567" 
d="M227 526c0 0 -34 32 -127 108c0 0 25 24 76 83c0 0 32 -27 110 -84c0 0 35 24 106 85c0 0 21 -23 76 -76c0 0 -43 -34 -120 -108c0 0 -33 0 -121 -8zM290 -15c-177 0 -276 85 -276 264c0 150 95 253 267 253c209 0 282 -113 272 -302c0 0 -107 1 -317 -3
c6 -62 24 -81 53 -81c22 0 39 20 45 53c0 0 76 -9 217 -17c-30 -99 -124 -167 -261 -167zM286 376c-32 0 -48 -17 -52 -89c29 0 60 1 99 3c-1 64 -13 86 -47 86z" />
    <glyph glyph-name="ecircumflex.alt" horiz-adv-x="567" 
d="M176 518c0 0 -21 24 -76 76c0 0 44 34 121 109c0 0 32 -1 121 7c0 0 33 -32 126 -107c0 0 -25 -24 -75 -84c0 0 -32 28 -110 84c0 0 -36 -23 -107 -85zM290 -15c-177 0 -276 85 -276 264c0 150 95 253 267 253c209 0 282 -113 272 -302c0 0 -107 1 -317 -3
c6 -62 24 -81 53 -81c22 0 39 20 45 53c0 0 76 -9 217 -17c-30 -99 -124 -167 -261 -167zM286 376c-32 0 -48 -17 -52 -89c29 0 60 1 99 3c-1 64 -13 86 -47 86z" />
    <glyph glyph-name="edieresis.alt" horiz-adv-x="567" 
d="M185 533c-59 0 -85 40 -85 84c0 47 37 80 86 80c55 0 84 -35 84 -81c0 -61 -42 -83 -85 -83zM386 536c-49 0 -82 33 -82 84c0 44 30 78 84 78c55 0 80 -37 80 -81c0 -54 -36 -81 -82 -81zM290 -15c-177 0 -276 85 -276 264c0 150 95 253 267 253c209 0 282 -113 272 -302
c0 0 -107 1 -317 -3c6 -62 24 -81 53 -81c22 0 39 20 45 53c0 0 76 -9 217 -17c-30 -99 -124 -167 -261 -167zM286 376c-32 0 -48 -17 -52 -89c29 0 60 1 99 3c-1 64 -13 86 -47 86z" />
    <glyph glyph-name="edotaccent.alt" horiz-adv-x="567" 
d="M284 542c-68 0 -99 46 -99 93s36 89 99 89c67 0 99 -47 99 -90c0 -61 -43 -92 -99 -92zM290 -15c-177 0 -276 85 -276 264c0 150 95 253 267 253c209 0 282 -113 272 -302c0 0 -107 1 -317 -3c6 -62 24 -81 53 -81c22 0 39 20 45 53c0 0 76 -9 217 -17
c-30 -99 -124 -167 -261 -167zM286 376c-32 0 -48 -17 -52 -89c29 0 60 1 99 3c-1 64 -13 86 -47 86z" />
    <glyph glyph-name="egrave.alt" horiz-adv-x="567" 
d="M276 526c0 0 -30 34 -140 144c0 0 40 25 117 81c0 0 30 -48 118 -163c0 0 -33 -17 -95 -62zM290 -15c-177 0 -276 85 -276 264c0 150 95 253 267 253c209 0 282 -113 272 -302c0 0 -107 1 -317 -3c6 -62 24 -81 53 -81c22 0 39 20 45 53c0 0 76 -9 217 -17
c-30 -99 -124 -167 -261 -167zM286 376c-32 0 -48 -17 -52 -89c29 0 60 1 99 3c-1 64 -13 86 -47 86z" />
    <glyph glyph-name="emacron.alt" horiz-adv-x="567" 
d="M138 555c0 0 1 32 -2 116c0 0 73 -1 296 2c0 0 -2 -32 -2 -116c0 0 -77 1 -292 -2zM290 -15c-177 0 -276 85 -276 264c0 150 95 253 267 253c209 0 282 -113 272 -302c0 0 -107 1 -317 -3c6 -62 24 -81 53 -81c22 0 39 20 45 53c0 0 76 -9 217 -17
c-30 -99 -124 -167 -261 -167zM286 376c-32 0 -48 -17 -52 -89c29 0 60 1 99 3c-1 64 -13 86 -47 86z" />
    <glyph glyph-name="eogonek.alt" horiz-adv-x="567" 
d="M369 -216c-119 -12 -178 32 -179 104c0 36 18 71 53 99c-148 14 -229 99 -229 262c0 150 95 253 267 253c209 0 282 -113 272 -302c0 0 -107 1 -317 -3c6 -62 24 -81 53 -81c22 0 39 20 45 53c0 0 76 -9 217 -17c-27 -88 -103 -151 -214 -164c-20 -17 -30 -34 -30 -50
c0 -26 22 -43 72 -42c0 0 -6 -34 -10 -112zM286 376c-32 0 -48 -17 -52 -89c29 0 60 1 99 3c-1 64 -13 86 -47 86z" />
    <glyph glyph-name="gbreve.alt" horiz-adv-x="521" 
d="M253 -270c-152 0 -249 35 -249 123c0 47 43 81 99 94c-42 18 -63 51 -63 85c0 37 30 77 84 100c-76 29 -118 87 -118 181c1 125 93 200 254 200c173 0 255 -77 255 -203c0 -132 -95 -201 -244 -201c-16 0 -32 1 -46 2c-7 -6 -11 -12 -11 -18c0 -20 40 -23 91 -26
c169 -10 231 -57 231 -152c0 -123 -138 -185 -283 -185zM260 202c23 0 43 12 43 87c0 65 -17 88 -43 88c-27 0 -45 -19 -45 -88c0 -71 21 -87 45 -87zM339 -119c0 24 -25 39 -87 43c-28 -13 -41 -28 -41 -47c0 -23 22 -36 61 -36c36 0 67 14 67 40zM267 546
c-121 0 -166 68 -161 146c0 0 42 0 125 5c-2 -29 11 -50 39 -50c22 0 42 15 34 59c0 0 39 -1 128 1c11 -117 -72 -161 -165 -161z" />
    <glyph glyph-name="gcircumflex.alt" horiz-adv-x="521" 
d="M253 -270c-152 0 -249 35 -249 123c0 47 43 81 99 94c-42 18 -63 51 -63 85c0 37 30 77 84 100c-76 29 -118 87 -118 181c1 125 93 200 254 200c173 0 255 -77 255 -203c0 -132 -95 -201 -244 -201c-16 0 -32 1 -46 2c-7 -6 -11 -12 -11 -18c0 -20 40 -23 91 -26
c169 -10 231 -57 231 -152c0 -123 -138 -185 -283 -185zM260 202c23 0 43 12 43 87c0 65 -17 88 -43 88c-27 0 -45 -19 -45 -88c0 -71 21 -87 45 -87zM339 -119c0 24 -25 39 -87 43c-28 -13 -41 -28 -41 -47c0 -23 22 -36 61 -36c36 0 67 14 67 40zM161 530
c0 0 -21 24 -76 76c0 0 44 34 121 109c0 0 32 -1 121 7c0 0 33 -32 126 -107c0 0 -25 -24 -75 -84c0 0 -32 28 -110 84c0 0 -36 -23 -107 -85z" />
    <glyph glyph-name="gcommaaccent.alt" horiz-adv-x="521" 
d="M253 -270c-152 0 -249 35 -249 123c0 47 43 81 99 94c-42 18 -63 51 -63 85c0 37 30 77 84 100c-76 29 -118 87 -118 181c1 125 93 200 254 200c173 0 255 -77 255 -203c0 -132 -95 -201 -244 -201c-16 0 -32 1 -46 2c-7 -6 -11 -12 -11 -18c0 -20 40 -23 91 -26
c169 -10 231 -57 231 -152c0 -123 -138 -185 -283 -185zM260 202c23 0 43 12 43 87c0 65 -17 88 -43 88c-27 0 -45 -19 -45 -88c0 -71 21 -87 45 -87zM339 -119c0 24 -25 39 -87 43c-28 -13 -41 -28 -41 -47c0 -23 22 -36 61 -36c36 0 67 14 67 40zM177 622
c0 51 39 102 111 148c31 -31 47 -44 50 -46c-25 -21 -38 -39 -44 -49c28 -8 47 -32 47 -61c0 -39 -33 -69 -83 -69c-48 0 -81 29 -81 77z" />
    <glyph glyph-name="hcircumflex.alt" horiz-adv-x="544" 
d="M25 714c0 0 -21 24 -76 76c0 0 44 34 121 109c0 0 32 -1 121 7c0 0 33 -32 126 -107c0 0 -25 -24 -75 -84c0 0 -32 28 -110 84c0 0 -36 -23 -107 -85zM24 -4c0 0 6 332 2 699c0 0 70 -1 210 1c0 0 -3 -115 -2 -255c30 42 78 71 137 71c94 0 147 -71 151 -176
c5 -160 2 -331 2 -331s-83 3 -212 2c0 0 4 133 0 272c0 31 -10 49 -33 49c-27 0 -36 -18 -37 -53c-3 -129 -1 -278 -1 -278s-83 2 -217 -1z" />
    <glyph glyph-name="iacute.alt" horiz-adv-x="267" 
d="M28 14c0 0 1 105 -3 472c0 0 77 -1 213 1c0 0 -1 -222 4 -472c0 0 -93 1 -214 -1zM147 529c-63 45 -95 62 -95 62c87 115 116 162 116 162c77 -55 118 -80 118 -80c-110 -110 -139 -144 -139 -144z" />
    <glyph glyph-name="icircumflex.alt" horiz-adv-x="267" 
d="M28 14c0 0 1 105 -3 472c0 0 77 -1 213 1c0 0 -1 -222 4 -472c0 0 -93 1 -214 -1zM26 525c0 0 -21 24 -76 76c0 0 44 34 121 109c0 0 32 -1 121 7c0 0 33 -32 126 -107c0 0 -25 -24 -75 -84c0 0 -32 28 -110 84c0 0 -36 -23 -107 -85z" />
    <glyph glyph-name="idieresis.alt" horiz-adv-x="267" 
d="M28 14c0 0 1 105 -3 472c0 0 77 -1 213 1c0 0 -1 -222 4 -472c0 0 -93 1 -214 -1zM32 547c-59 0 -85 40 -85 84c0 47 37 80 86 80c55 0 84 -35 84 -81c0 -61 -42 -83 -85 -83zM233 550c-49 0 -82 33 -82 84c0 44 30 78 84 78c55 0 80 -37 80 -81c0 -54 -36 -81 -82 -81z
" />
    <glyph glyph-name="igrave.alt" horiz-adv-x="267" 
d="M28 14c0 0 1 105 -3 472c0 0 77 -1 213 1c0 0 -1 -222 4 -472c0 0 -93 1 -214 -1zM140 529c0 0 -30 34 -140 144c0 0 40 25 117 81c0 0 30 -48 118 -163c0 0 -33 -17 -95 -62z" />
    <glyph glyph-name="imacron.alt" horiz-adv-x="267" 
d="M28 14c0 0 1 105 -3 472c0 0 77 -1 213 1c0 0 -1 -222 4 -472c0 0 -93 1 -214 -1zM-13 564c0 0 1 32 -2 116c0 0 73 -1 296 2c0 0 -2 -32 -2 -116c0 0 -77 1 -292 -2z" />
    <glyph glyph-name="iogonek.alt" horiz-adv-x="267" 
d="M28 14c0 0 1 105 -3 472c0 0 77 -1 213 1c0 0 -1 -222 4 -472h-59c-35 -19 -52 -44 -52 -65c0 -26 21 -43 71 -42c0 0 -6 -34 -10 -111c-118 -13 -178 31 -179 103c0 43 26 86 77 115zM135 520c-80 0 -128 36 -128 113c0 63 42 107 126 107c85 0 124 -50 124 -107
c0 -71 -44 -113 -122 -113z" />
    <glyph glyph-name="jcircumflex.alt" horiz-adv-x="266" 
d="M-91 -218c0 0 5 55 4 174c12 -1 23 -2 33 -2c64 0 84 27 85 87c3 175 -1 435 -1 435c142 -3 208 1 208 1s8 -148 4 -461c-1 -157 -80 -239 -253 -239c-25 0 -51 2 -80 5zM24 525c0 0 -21 24 -76 76c0 0 44 34 121 109c0 0 32 -1 121 7c0 0 33 -32 126 -107
c0 0 -25 -24 -75 -84c0 0 -32 28 -110 84c0 0 -36 -23 -107 -85z" />
    <glyph glyph-name="kcommaaccent.alt" horiz-adv-x="558" 
d="M374 -115c0 -51 -39 -102 -111 -148c-31 31 -47 44 -50 46c25 21 38 39 44 49c-28 8 -47 32 -47 61c0 39 33 69 83 69c48 0 81 -29 81 -77zM333 -18c-21 75 -38 132 -50 172c-19 -30 -34 -54 -45 -73c0 -50 1 -79 1 -79c-135 3 -215 1 -215 1c5 486 1 699 1 699
c149 -5 215 -2 215 -2c-2 -166 -2 -277 -2 -381c43 129 64 197 64 197c149 -11 241 -18 241 -18c-50 -83 -84 -142 -107 -183c72 -193 122 -320 122 -320c-165 -7 -225 -13 -225 -13z" />
    <glyph glyph-name="lacute.alt" horiz-adv-x="267" 
d="M157 725c-63 45 -95 62 -95 62c87 115 116 162 116 162c77 -55 118 -80 118 -80c-110 -110 -139 -144 -139 -144zM240 -5c-133 4 -213 2 -213 2c4 501 0 703 0 703c147 -4 214 -4 214 -4c-4 -524 -1 -701 -1 -701z" />
    <glyph glyph-name="lcaron.alt" horiz-adv-x="267" 
d="M440 623c0 -51 -39 -102 -111 -148c-31 31 -47 44 -50 46c25 21 38 39 44 49c-28 8 -47 32 -47 61c0 39 33 69 83 69c48 0 81 -29 81 -77zM240 -5c-133 4 -213 2 -213 2c4 501 0 703 0 703c147 -4 214 -4 214 -4c-4 -524 -1 -701 -1 -701z" />
    <glyph glyph-name="lcommaaccent.alt" horiz-adv-x="267" 
d="M216 -107c0 -51 -39 -102 -111 -148c-31 31 -47 44 -50 46c25 21 38 39 44 49c-28 8 -47 32 -47 61c0 39 33 69 83 69c48 0 81 -29 81 -77zM240 -5c-133 4 -213 2 -213 2c4 501 0 703 0 703c147 -4 214 -4 214 -4c-4 -524 -1 -701 -1 -701z" />
    <glyph glyph-name="nacute.alt" 
d="M310 4c0 0 4 116 2 266c-1 31 -10 49 -34 49c-26 0 -35 -17 -37 -52c-3 -71 -1 -273 -1 -273s-118 2 -216 0c0 0 4 203 2 487c0 0 86 -2 166 1c0 0 -2 -44 -1 -84c29 59 97 105 170 104c98 -1 156 -63 160 -178c3 -79 2 -319 2 -319c-61 1 -213 -1 -213 -1zM303 524
c-63 45 -95 62 -95 62c87 115 116 162 116 162c77 -55 118 -80 118 -80c-110 -110 -139 -144 -139 -144z" />
    <glyph glyph-name="ncaron.alt" 
d="M310 4c0 0 4 116 2 266c-1 31 -10 49 -34 49c-26 0 -35 -17 -37 -52c-3 -71 -1 -273 -1 -273s-118 2 -216 0c0 0 4 203 2 487c0 0 86 -2 166 1c0 0 -2 -44 -1 -84c29 59 97 105 170 104c98 -1 156 -63 160 -178c3 -79 2 -319 2 -319c-61 1 -213 -1 -213 -1zM223 528
c0 0 -34 32 -127 108c0 0 25 24 76 83c0 0 32 -27 110 -84c0 0 35 24 106 85c0 0 21 -23 76 -76c0 0 -43 -34 -120 -108c0 0 -33 0 -121 -8z" />
    </font>
</defs>
</svg>
